<?xml version="1.0" encoding="UTF-8" standalone="no"?>
<!-- Created with Inkscape (http://www.inkscape.org/) -->

<svg
   xmlns:dc="http://purl.org/dc/elements/1.1/"
   xmlns:cc="http://creativecommons.org/ns#"
   xmlns:rdf="http://www.w3.org/1999/02/22-rdf-syntax-ns#"
   xmlns:svg="http://www.w3.org/2000/svg"
   xmlns="http://www.w3.org/2000/svg"
   xmlns:sodipodi="http://sodipodi.sourceforge.net/DTD/sodipodi-0.dtd"
   xmlns:inkscape="http://www.inkscape.org/namespaces/inkscape"
   width="231mm"
   height="53mm"
   viewBox="0 0 818.50398 187.79516"
   id="svg3391"
   version="1.1"
   inkscape:version="0.91 r13725"
   sodipodi:docname="tmva_logo.svg"
   inkscape:export-filename="D:\code\GSOC\tmva_logo_transparent.png"
   inkscape:export-xdpi="500"
   inkscape:export-ydpi="500">
  <defs
     id="defs3393" />
  <sodipodi:namedview
     id="base"
     pagecolor="#ffffff"
     bordercolor="#666666"
     borderopacity="1.0"
     inkscape:pageopacity="0"
     inkscape:pageshadow="2"
     inkscape:zoom="1.4142136"
     inkscape:cx="664.71727"
     inkscape:cy="157.79072"
     inkscape:document-units="px"
     inkscape:current-layer="layer1"
     showgrid="false"
     showguides="true"
     inkscape:guide-bbox="true"
     inkscape:window-width="1536"
     inkscape:window-height="801"
     inkscape:window-x="-8"
     inkscape:window-y="-8"
     inkscape:window-maximized="1">
    <sodipodi:guide
       position="568.46328,985.40383"
       orientation="0,1"
       id="guide4386" />
  </sodipodi:namedview>
  <metadata
     id="metadata3396">
    <rdf:RDF>
      <cc:Work
         rdf:about="">
        <dc:format>image/svg+xml</dc:format>
        <dc:type
           rdf:resource="http://purl.org/dc/dcmitype/StillImage" />
        <dc:title></dc:title>
      </cc:Work>
    </rdf:RDF>
  </metadata>
  <g
     inkscape:label="Layer 1"
     inkscape:groupmode="layer"
     id="layer1"
     transform="translate(0,-864.56756)">
    <path
       style="fill:#ffa521;fill-opacity:1"
       d="m 202.72629,866.53905 a 47.098362,46.214478 0 0 0 -47.09961,46.21484 47.098362,46.214478 0 0 0 10.86914,29.4707 l -21.35546,24.27344 a 50.507626,48.48732 0 0 0 -33.91211,-12.66016 50.507626,48.48732 0 0 0 -46.833991,30.42969 l -61.7578112,0 0,66.66994 641.9511722,0 0,-0.012 171.81445,0 0,-66.65627 -171.81445,0 0,-0.002 -303.67383,0 a 50.507626,48.48732 0 0 0 -46.84765,-30.42966 50.507626,48.48732 0 0 0 -33.89258,12.64844 l -21.26367,-24.16797 a 47.098362,46.214478 0 0 0 10.91406,-29.56445 47.098362,46.214478 0 0 0 -47.09766,-46.21484 z m -32.2539,79.8164 a 47.098362,46.214478 0 0 0 32.2539,12.61328 47.098362,46.214478 0 0 0 32.19727,-12.5332 l 21.16797,24.05859 a 50.507626,48.48732 0 0 0 -8.85938,13.77344 l -89.15625,0 a 50.507626,48.48732 0 0 0 -8.8457,-13.76758 l 21.24219,-24.14453 z m 123.76172,9.22852 a 47.098362,46.214478 0 0 1 47.09765,46.21483 47.098362,46.214478 0 0 1 -47.09765,46.2129 47.098362,46.214478 0 0 1 -47.09961,-46.2129 47.098362,46.214478 0 0 1 47.09961,-46.21483 z m -182.88086,0.65234 a 47.098362,46.214478 0 0 1 47.09961,46.21489 47.098362,46.214478 0 0 1 -47.09961,46.2148 47.098362,46.214478 0 0 1 -47.097661,-46.2148 47.098362,46.214478 0 0 1 47.097661,-46.21489 z"
       id="rect3399"
       inkscape:connector-curvature="0" />
    <path
       style="fill:#333399"
       d="m 586.44525,911.47656 c 8.90471,24.04051 17.96317,48.02942 26.52539,72.20508 3.20228,8.56537 6.5246,17.08046 9.8125,25.62886 9.48694,0.017 18.99007,0.033 28.49414,0.033 3.27077,-8.5822 6.57553,-17.16446 9.79493,-25.76362 8.56222,-24.14187 17.62218,-48.0968 26.50976,-72.10352 -6.35317,0.0338 -19.04331,0.11728 -25.39648,0.16797 -8.18548,22.55381 -16.06203,45.22577 -23.78516,67.93164 -9.48694,-22.19904 -16.04655,-45.4624 -24.66016,-67.98242 -9.1102,-0.0338 -18.20184,-0.0834 -27.29492,-0.11719 z m -118.21289,0.0117 c -0.0379,24.16556 -0.077,48.34812 -0.0391,72.51367 0,8.42592 0.0566,16.85337 0.0566,25.27927 l 26.44531,0 c 0,-8.4428 0.0182,-16.8697 0.0371,-25.31247 0.0758,-13.09389 0.26506,-26.20495 0.56836,-39.29883 6.65361,13.04333 13.0997,26.18748 18.76758,39.60156 7.88576,0.0842 15.79002,0.18577 23.67578,0.10157 5.61102,-13.49833 12.18784,-26.64198 19.08789,-39.63477 0.26538,13.07705 0.41824,26.17101 0.49414,39.24805 0,8.42592 0.0176,16.86899 0.0176,25.29489 l 28.32227,0 c 0.0189,-8.4091 0.0748,-16.81942 0.0937,-25.22849 0.0188,-24.18242 7.9e-4,-48.36518 -0.0371,-72.56445 -11.25996,0.0337 -22.48303,0.10129 -33.70508,0.18555 -8.13219,16.07667 -16.1876,32.20479 -25.58985,47.74219 -8.41642,-15.79019 -16.81473,-31.59694 -24.68153,-47.62305 -11.18413,-0.11796 -22.34849,-0.20358 -33.51367,-0.30469 z m 235.79297,0.0859 c -9.07186,24.47781 -18.69614,48.76951 -28.12305,73.1289 -3.14231,8.33971 -6.33816,16.64664 -9.48046,24.98634 6.4799,-0.1015 19.45742,-0.3067 25.95507,-0.4082 2.55645,-6.1237 5.16568,-12.21356 7.77539,-18.32032 12.30291,0.0169 24.62465,7e-4 36.94532,0.11914 2.29015,5.88685 4.5614,11.79088 6.85156,17.67768 9.58669,0.3553 19.19226,0.6917 28.81445,0.9961 -3.16006,-8.3904 -6.38894,-16.72864 -9.53125,-25.11909 -9.42691,-24.30865 -18.9619,-48.58333 -28.17578,-72.97656 -10.35006,-0.0677 -20.68117,-0.1009 -31.03125,-0.084 z m 14.46875,26.52539 c 4.43805,11.24875 8.84053,22.53271 12.35547,34.08594 -8.13093,0.0338 -16.20908,0.0671 -24.32227,0.084 3.78142,-11.4523 7.6528,-22.88678 11.9668,-34.16992 z"
       id="path12"
       inkscape:connector-curvature="0" />
    <path
       inkscape:connector-curvature="0"
       style="fill:#ff0000"
       d="m 368.86292,911.5994 c 32.89657,-0.1519 65.79315,-0.135 98.68975,-0.034 -1.46757,6.0754 -2.89705,12.1339 -4.28839,18.2262 -10.97823,0.3207 -21.9374,0.6582 -32.89658,1.0295 -4.59332,17.7874 -9.28193,35.558 -14.27551,53.2611 -2.36337,8.3369 -4.47896,16.7412 -6.36585,25.1792 -9.92996,0.034 -19.85993,0.067 -29.78989,0.1013 2.21089,-8.3031 4.30743,-16.6061 6.51834,-24.9092 5.05074,-18.0575 10.13961,-36.0981 14.7901,-54.24 -12.14085,-0.1181 -24.30076,-0.1856 -36.42257,-0.2868 1.42945,-6.0923 2.74456,-12.2184 4.0406,-18.3275 z"
       id="path10" />
  </g>
</svg>
