/* XPM */
static char * root_bin_xpm[] = {
"32 32 194 2",
"  	c None",
". 	c #8FB2AA",
"+ 	c #838574",
"@ 	c #8FB7A9",
"# 	c #8FE3EA",
"$ 	c #B0C2C0",
"% 	c #A6A69E",
"& 	c #87D9CC",
"* 	c #A3CDBD",
"= 	c #A3B6B1",
"- 	c #95CCC0",
"; 	c #D4D3C9",
"> 	c #B8C0D3",
", 	c #B1B5D0",
"' 	c #D7DCE2",
") 	c #CBCBC9",
"! 	c #D1D0CC",
"~ 	c #C9CECE",
"{ 	c #AAAFAF",
"] 	c #CAD8DC",
"^ 	c #D0D5DF",
"/ 	c #BDBED3",
"( 	c #CBCDD6",
"_ 	c #E3E3E0",
": 	c #C7CACA",
"< 	c #C5B7B6",
"[ 	c #D1DEE0",
"} 	c #CDDDE3",
"| 	c #BCC4D6",
"1 	c #A8AAC0",
"2 	c #CAD1D6",
"3 	c #C9C0BA",
"4 	c #C3C5C5",
"5 	c #E5E8E9",
"6 	c #E9E3E3",
"7 	c #D5CBCA",
"8 	c #CCD8DA",
"9 	c #B2C4C8",
"0 	c #9FADB1",
"a 	c #D7EAEE",
"b 	c #D3D1CF",
"c 	c #E1E6E8",
"d 	c #EEEEEE",
"e 	c #E6E5E3",
"f 	c #DEE3E2",
"g 	c #D4E4E8",
"h 	c #CFDFE1",
"i 	c #D0DCDD",
"j 	c #BCACA4",
"k 	c #C8D1D4",
"l 	c #F5F7F6",
"m 	c #F7F8F8",
"n 	c #F8FAFA",
"o 	c #DBE8EC",
"p 	c #CBCECD",
"q 	c #8C0000",
"r 	c #DCE4E6",
"s 	c #F4F7F7",
"t 	c #EEF4F5",
"u 	c #D2E1E6",
"v 	c #CCDCE2",
"w 	c #E70000",
"x 	c #730000",
"y 	c #EFF0EF",
"z 	c #F9FAFA",
"A 	c #DEE8EB",
"B 	c #C6D6DB",
"C 	c #BABDB9",
"D 	c #FD0000",
"E 	c #D60000",
"F 	c #640000",
"G 	c #EEF1EA",
"H 	c #FDFDFD",
"I 	c #F2F8F7",
"J 	c #E0E8E7",
"K 	c #FC0000",
"L 	c #FF0000",
"M 	c #E00000",
"N 	c #00005B",
"O 	c #E7ECDC",
"P 	c #FCFDFB",
"Q 	c #FAFCFB",
"R 	c #D5D1CD",
"S 	c #FA0000",
"T 	c #FE0000",
"U 	c #D30000",
"V 	c #000080",
"W 	c #D2D7C8",
"X 	c #F9FBF3",
"Y 	c #FAFCF7",
"Z 	c #DDE0DE",
"` 	c #FB0000",
" .	c #BF0000",
"..	c #0000C7",
"+.	c #C4CAB9",
"@.	c #F0F8E2",
"#.	c #E9EFDF",
"$.	c #E7EAE4",
"%.	c #E3E5E2",
"&.	c #F60000",
"*.	c #B50000",
"=.	c #33002A",
"-.	c #0000EB",
";.	c #ACB0A7",
">.	c #EAF4D9",
",.	c #D5DDCD",
"'.	c #DFE6D4",
").	c #F0F4E8",
"!.	c #F90000",
"~.	c #BF0011",
"{.	c #2200B8",
"].	c #ABADA8",
"^.	c #CDD4C0",
"/.	c #C3C7BD",
"(.	c #CAD1BF",
"_.	c #E8F3D4",
":.	c #D1D7C8",
"<.	c #FD0001",
"[.	c #A90036",
"}.	c #9B9D9A",
"|.	c #BDC3B3",
"1.	c #BBBDB8",
"2.	c #AAB19C",
"3.	c #DBE8C3",
"4.	c #B2BBA2",
"5.	c #B10404",
"6.	c #F80000",
"7.	c #F90003",
"8.	c #AB0014",
"9.	c #969893",
"0.	c #A8A994",
"a.	c #8E8B71",
"b.	c #A6A47D",
"c.	c #ABB08A",
"d.	c #E90000",
"e.	c #660000",
"f.	c #7E786B",
"g.	c #877757",
"h.	c #92865D",
"i.	c #83886A",
"j.	c #DA0000",
"k.	c #74624B",
"l.	c #817352",
"m.	c #91866F",
"n.	c #907768",
"o.	c #570000",
"p.	c #7A604D",
"q.	c #77593E",
"r.	c #876C59",
"s.	c #876F60",
"t.	c #88725F",
"u.	c #BC1714",
"v.	c #6B4A3D",
"w.	c #694E3C",
"x.	c #734F37",
"y.	c #8E755F",
"z.	c #948573",
"A.	c #B45C49",
"B.	c #916F52",
"C.	c #482D26",
"D.	c #7B5F46",
"E.	c #97755C",
"F.	c #937362",
"G.	c #B85546",
"H.	c #815E52",
"I.	c #907260",
"J.	c #9C4D43",
"K.	c #CF2721",
"L.	c #87665B",
"M.	c #A38173",
"N.	c #7C3F38",
"O.	c #F20000",
"P.	c #F30907",
"Q.	c #DC1812",
"R.	c #A9493B",
"S.	c #966A65",
"T.	c #8E6F60",
"U.	c #90715D",
"V.	c #845A46",
"W.	c #91523E",
"X.	c #68483A",
"Y.	c #926D61",
"Z.	c #835E4B",
"`.	c #6D5543",
" +	c #957166",
".+	c #6F594A",
"++	c #6D5848",
"@+	c #716052",
"#+	c #7F6E60",
"$+	c #8C7063",
"%+	c #88756B",
"&+	c #877365",
"*+	c #91776A",
"=+	c #897A70",
"                              . + @             #               ",
"                              $ %                               ",
"                            & *                   = -           ",
"                              ;         > , '   ) !             ",
"                            ~         { ] ^ / ( _               ",
"                            : <       [ } | 1 2 3               ",
"                            4 5 6 7   8 9 0 a b                 ",
"                                c d e f g h i j                 ",
"                                  k l m n o p                   ",
"      q                           r s t u v                     ",
"      w x                         y z A B C                     ",
"      D E F                       G H I J                       ",
"      K L M         N             O P Q R                       ",
"      S L T U       V             W X Y Z                       ",
"      K L L `  .    ..            +.@.#.$.%.                    ",
"      D L L L &.*.=.-.            ;.>.,.'.).                    ",
"      D L L L L !.~.{.            ].^./.(._.:.                  ",
"      T L L L L L <.[.            }.|.1.2.3.4.                  ",
"    5.6.L L L L L L 7.8.          9.0.a.b.c.                    ",
"      K L L L L L L L d.e.        f.g.h.i.                      ",
"      D L L L L L L L T j.        k.l.m.n.                      ",
"      D L L L L L L L L L   o.  p.q.r.s.t.                      ",
"      T L L L L L L L L L L u.v.w.x.y.z.                        ",
"      6.L L L L L L L L L L A.B.C.D.E.F.                        ",
"      ` L L L L L L L L L L G.  H.I.J.                          ",
"      K L L L L L L L L L L K.  L.M.N.                          ",
"      T L D O.L L L ` K P.Q.R.    S.T.U.                        ",
"                        V.W.X.      Y.Z.`.                      ",
"                                     +.+++@+                    ",
"                      #+            $+%+                        ",
"                    &+              *+=+                        ",
"                                                                "};
