/* XPM */
static char *arrow_right2[]={
"12 12 2 1",
". c None",
"# c #000000",
"............",
"......#.....",
"......##....",
"......###...",
".#########..",
".##########.",
".#########..",
"......###...",
"......##....",
"......#.....",
"............",
"............"};
