/* XPM */
static char *bld_grid_d[] = {
/* width height num_colors chars_per_pixel */
"    21    21        4            1",
/* colors */
". c #cbcbcb",
"# c #999999",
"a c #d6d6d6",
"b c #989898",
/* pixels */
"..........#.........#",
".aaaaaaaab#.aaaaaaab#",
".aaaaaaaab#.aaaaaaab#",
".aaaaaaaab#.aaaaaaab#",
".aaaaaaaab#.aaaaaaab#",
".bbbbbbbbb#.bbbbbbbb#",
"#####################",
"..........#.........#",
".aaaaaaaab#.aaaaaaab#",
".aaaaaaaab#.aaaaaaab#",
".aaaaaaaab#.aaaaaaab#",
".aaaaaaaab#.aaaaaaab#",
".bbbbbbbbb#.bbbbbbbb#",
"#####################",
"..........#.........#",
".aaaaaaaab#.aaaaaaab#",
".aaaaaaaab#.aaaaaaab#",
".aaaaaaaab#.aaaaaaab#",
".aaaaaaaab#.aaaaaaab#",
".bbbbbbbbb#.bbbbbbbb#",
"#####################"
};
