/* XPM */
static char *bld_AlignBtm[] = {
/* width height num_colors chars_per_pixel */
"    21    21        8            1",
/* colors */
". c #000003",
"# c #c9cfcc",
"a c #cececc",
"b c #dadada",
"c c #c2c2c2",
"d c #b6b6b6",
"e c #cfcccc",
"f c #d0cecc",
/* pixels */
"##deeeed######deeee##",
"##e....e######e....e#",
"##e.bc.e######e.bc.e#",
"##e.bc.e######e.bc.e#",
"##e.bc.eed##dee.bc.e#",
"##e.bc....dd....bc.e#",
"##e.bc.bc.dd.bc.bc.e#",
"##e.bc.bc.dd.bc.bc.e#",
"##e.bc.bc.ee.bc.bc.e#",
"##e.bc.bc....bc.bc.e#",
"##e.bc.bc.bc.bc.bc.e#",
"##e.bc.bc.bc.bc.ac.e#",
"##e.ac.bc.bc.bc.ac.e#",
"##e.ac.bc.bc.bc.ac.e#",
"##e.ac.ac.ac.ac.ac.e#",
"##e.ac.ac.ac.ac.ac.e#",
"##e.ac.ac.fc.fc.fc.e#",
"##e.fc.fc.fc.fc.fc.e#",
"##e................e#",
"##deeeeeeeeeeeeeeeed#",
"##deeeeeeeeeeeeeeeed#"
};
