/* XPM */
static char *progressbar[] = {
/* width height num_colors chars_per_pixel */
"    21    21        6            1",
/* colors */
". c #000000",
"# c #7b7b7b",
"a c #d6d6d6",
"b c #dedede",
"c c #ffffff",
"d c #bfbfbf",
/* pixels */
"ddddddddddddddddddddd",
"ddddddddddddddddddddd",
"ddddddddddddddddddddd",
"ddddddddddddddddddddd",
"ddddddddddddddddddddd",
"ddddddddddddddddddddd",
"dd##################d",
"dd#cccccc#.aaaaaaaacd",
"dd#cbbbbb#.aaaaaaaacd",
"dd#cbbbbb#.aaaaaaaacd",
"dd#cbbbbb#.aaaaaaaacd",
"dd#cbbbbb#.aaaaaaaacd",
"dd#cbbbbb#.aaaaaaaacd",
"dd########.aaaaaaaacd",
"dd#........aaaaaaaacd",
"ddccccccccccccccccccd",
"ddddddddddddddddddddd",
"ddddddddddddddddddddd",
"ddddddddddddddddddddd",
"ddddddddddddddddddddd",
"ddddddddddddddddddddd"
};
