/* XPM */
static char*branch[]={
"16 16 6 1",
"d c #808080",
"# c #008000",
"c c #808000",
"a c #0000c0",
"b c #008080",
". c #ffffff",
"...........#....",
".aa.a....b#b....",
".a..a...b#bb...c",
".a..a...b#bb..cc",
".aa.aa...b#.ccc.",
"..........ccc...",
"....bb..ccc.....",
"...b##dcc.......",
"..b#bbcc#b......",
"..#bbcc.b#bb....",
".#bbcc..bb#bb...",
".#.cc....b##b...",
"...cc....bb#....",
"..ccc......#....",
"..ccc......#....",
"..ccc..........."};
