/* XPM */
static char *magick[] = {
/* columns rows colors chars-per-pixel */
"32 32 8 1",
"  c Gray0",
". c #008000",
"X c #008080",
"o c #808000",
"O c Yellow",
"+ c #808080",
"@ c #c0c0c0",
"# c None",
/* pixels */
"####+++++++++#######.###########",
"###+#########+######..##########",
"##+#O@O@O@O@O@+####...##########",
"#+#O@O@O@O@O@O@+###...##########",
"+@@@@@@@@@@@@@@@+++...++++++++ #",
"+##################...########  ",
"+#O@O@O@O@O@O@O@O@O...O@o@O@O@o ",
"+#@O@O@O@O@O@O@O@O@...@ooO@O@Oo ",
"+#O@O@O@O@O@O@..O@O...Ooo@O@O@o ",
"+#@O@O@O@O@O@...@O@..Ooo@O@O@Oo ",
"+#O@O@O@O@O@O...O@O@.oo@O..@O@o ",
"+#@O@O@O@O@O....@O@Ooo@O...O@Oo ",
"+#O@O@O@O@O@...+O@Ooo@O...O@O@o ",
"+#@O@O@O@O@O...O@Ooo@O...X@O@Oo ",
"+#O@O@O@O@O@...@Ooo@O....@O@@oo ",
"+#@O@O@O@O@X...Ooo@O+...@Oooooo ",
"+#O@O@O@O@O...+oo@O@...oooooO@o ",
"+#@O@O@O@O@X.ooo@O@O.ooooo@O@Oo ",
"+#O@O@O@O@O@ooo@O@ooooo..+O@O@o ",
"+#@O@O@O@O@ooo@+oooooO@O...O@Oo ",
"+#O@O@O@O@oo@ooooo@@O@O@O...O@o ",
"+#@O@O@O@ooooooo@O@O@O@O@X...Xo ",
"+#O@O@O+ooooo@O@O@O@O@O@O@X...+ ",
"+#@O@ooooo@O@O@O@O@O@O@O@O@O... ",
"+#+oooo+O@O@O@O@O@O@O@O@O@O@O...",
"ooooooooooooooooooooooooooooooo+",
"+o                             #",
"################################",
"################################",
"################################",
"################################",
"################################"
};
