/* XPM */
static char *button[]={
"16 16 4 1",
". c None",
"b c #303030",
"a c #808080",
"# c #ffffff",
"................",
"################",
"###############a",
"##............aa",
"##............aa",
"##............aa",
"##...bb..b..b.aa",
"##..b.bb.b.b..aa",
"##..b..b.bb...aa",
"##..b..b.bbb..aa",
"##..bb.b.b..b.aa",
"##...bb..b..b.aa",
"##............aa",
"##aaaaaaaaaaaaaa",
"#aaaaaaaaaaaaaaa",
"................"};
