/* XPM */
static char *checked_t_new[]={
"16 16 5 1",
". c None",
"b c #000000",
"# c #808080",
"c c #c0c0c0",
"a c #ffffff",
"................",
".############a..",
".#bbbbbbbbbbca..",
".#baaaaaaaaaca..",
".#baaaaaaabaca..",
".#baaaaaabbaca..",
".#babaaabbbaca..",
".#babbabbbaaca..",
".#babbbbbaaaca..",
".#baabbbaaaaca..",
".#baaabaaaaaca..",
".#baaaaaaaaaca..",
".#ccccccccccca..",
".aaaaaaaaaaaaa..",
"................",
"................"};
