/* XPM */
static char * deb_s_xpm[] = {
"32 32 8 1",
" 	c None",
".	c #808080",
"+	c #FFFFFF",
"@	c #000000",
"#	c #C0C0C0",
"$	c #C00000",
"%	c #A0A0A0",
"&	c #C3C3C3",
"       ...................      ",
"       .+++++++++++++++++.@     ",
"       .+++++++++++++++++..@    ",
"       .+++++++++++++++++.#.@   ",
"       .+++++++++++++++++.+#.@  ",
"       .+++++++++++++++++.++#.@ ",
"       .++$$$$$++++++++++.@@@@@@",
"       .$$$$$$$$$+++++++++++++#@",
"       $$$$$$$$$$$$+++++++++++#@",
"      $$$$%&&&&$$$$$++++++++++#@",
"     $$$%&&+++++&$$$&+++++++++#@",
"     $$%&+++++++++$$$+++++++++#@",
"    $$$&++++$$$+++$$$&++++++++#@",
"    $$%.+++$$%&$+++$$&++++++++#@",
"   $$$&.++$$%&++$++$$&++++++++#@",
"   $$% .++$$&+++++$$$&++++++++#@",
"   $$& .++$%&+++++$$%&++++++++#@",
"   $$& .++$$++++++$$&+++++++++#@",
"   $$& .++$$&++++$$%&+++++++++#@",
"   $$$ .+++$$$+$$$$&++++++++++#@",
"    $$&.++++$$$$$%&&++++++++++#@",
"    $$&.+++++&&&&&++++++++++++#@",
"     $$.++++++++++++++++++++++#@",
"     $$&++++++++++++++++++++++#@",
"      $$&+++++++++++++++++++++#@",
"      $$$+++++++++++++++++++++#@",
"       &$$++++++++++++++++++++#@",
"       .&$$$++++++++++++++++++#@",
"       .++&$$$++++++++++++++++#@",
"       .++++&&&+++++++++++++++#@",
"       .#######################@",
"       @@@@@@@@@@@@@@@@@@@@@@@@@"};
