/* XPM */
static char *ia_ellipse[]={
"16 16 3 1",
". c None",
"# c #303030",
"a c #c3c3c3",
"................",
"................",
"................",
"....#######.....",
"..##aaaaaaa##...",
".##aaaaaaaaa##..",
".#aaaaaaaaaaa#..",
".#aaaaaaaaaaa#..",
".#aaaaaaaaaaa#..",
".##aaaaaaaaa##..",
"..##aaaaaaa##...",
"....#######.....",
"................",
"................",
"................",
"................"};
