/* XPM */
static char * track_xpm[] = {
"16 16 42 1",
" 	c None",
".	c #FFFFFF",
"+	c #D6D6D6",
"@	c #848484",
"#	c #EAEAEA",
"$	c #6C6C6C",
"%	c #464646",
"&	c #DBDBDB",
"*	c #929292",
"=	c #5B5B5B",
"-	c #A5A5A5",
";	c #ECECEC",
">	c #454545",
",	c #626262",
"'	c #B2B2B2",
")	c #545454",
"!	c #3D3D3D",
"~	c #888888",
"{	c #E4E4E4",
"]	c #F7F7F7",
"^	c #121212",
"/	c #616161",
"(	c #858585",
"_	c #DCDCDC",
":	c #000000",
"<	c #5A5A5A",
"[	c #FDFDFD",
"}	c #393939",
"|	c #0C0C0C",
"1	c #F4F4F4",
"2	c #585858",
"3	c #737373",
"4	c #2D2D2D",
"5	c #F9F9F9",
"6	c #EDEDED",
"7	c #D9D9D9",
"8	c #FCFCFC",
"9	c #6B6B6B",
"0	c #606060",
"a	c #B8B8B8",
"b	c #A0A0A0",
"c	c #D4D4D4",
"................",
"..............+@",
"............#$%&",
"..........#*=-;.",
"..........>,'...",
".......).!~{]...",
".......^/(_.....",
".....>:::<;.....",
".....[}|$1].....",
".....2345.......",
"...6!78-........",
"...97...........",
"..0.............",
".=a.............",
"=b..............",
"c1.............."};
