/* XPM */
static char *arb8 shape 32_xpm[] = {
/* width height num_colors chars_per_pixel */
"    32    32       32            1",
/* colors */
"` c None s None",
". c #a8a8a8",
"# c #787878",
"a c #808080",
"b c #707070",
"c c #a0a0a0",
"d c #686868",
"e c #989898",
"f c #888888",
"g c #c8c8c8",
"h c #e8e8e8",
"i c #f2f2f2",
"j c #b0b0b0",
"k c #919191",
"l c #c1c1c1",
"m c #e0e0e0",
"n c #b9b9b9",
"o c #d0d0d0",
"p c #dbdbdb",
"q c #636363",
"r c #000000",
"s c #000000",
"t c #000000",
"u c #000000",
"v c #000000",
"w c #000000",
"x c #000000",
"y c #000000",
"z c #000000",
"A c #000000",
"B c #000000",
"C c #000000",
/* pixels */
"````````````````````````````````",
"````````````````````````````````",
"``````````````````gj````````````",
"````````````````hnc#m```````````",
"```````````````pc..bj```````````",
"`````````````ilc..c##i``````````",
"````````````m.c...c#bj``````````",
"```````````gc.....c##ai`````````",
"`````````hjc..c...eb#bj`````````",
"````````o.c.......e###a`````````",
"```````nc.......c.eb#abg````````",
"`````h....c.......kb##af````````",
"`````iac..........kb#aa#l```````",
"``````kde..c......fb##aak```````",
"``````lqbk....c...a##aaa#g``````",
"``````mdbdf.......a###aaao``````",
"```````abbdac..c..a##aaafh``````",
"```````.dbbbbcjc..###aaae```````",
"```````gd#bbbbe...###aa#.```````",
"```````iad#bbbdk.c####f#g```````",
"````````hedbbbbdfc###aaam```````",
"``````````lbb#bbd####aaf````````",
"```````````pad#bbbb#aa#.````````",
"`````````````cdb#bb#aa#l````````",
"``````````````g#d#b#aaap````````",
"```````````````hfdb##aai````````",
"`````````````````jbb#ae`````````",
"``````````````````oab#n`````````",
"```````````````````iedg`````````",
"`````````````````````lh`````````",
"````````````````````````````````",
"````````````````````````````````"
};
