/* XPM */
static char *gtra shape 32_xpm[] = {
/* width height num_colors chars_per_pixel */
"    32    32       32            1",
/* colors */
"` c None s None",
". c #a8a8a8",
"# c #b0b0b0",
"a c #808080",
"b c #a0a0a0",
"c c #787878",
"d c #989898",
"e c #707070",
"f c #c9c9c9",
"g c #888888",
"h c #686868",
"i c #616161",
"j c #585858",
"k c #f0f0f0",
"l c #e9e9e9",
"m c #d1d1d1",
"n c #bababa",
"o c #909090",
"p c #c0c0c0",
"q c #515151",
"r c #e0e0e0",
"s c #dadada",
"t c #000000",
"u c #000000",
"v c #000000",
"w c #000000",
"x c #000000",
"y c #000000",
"z c #000000",
"A c #000000",
"B c #000000",
"C c #000000",
/* pixels */
"````````````````````````````````",
"`````````````mpffffffffm````````",
"````````````lhcccececeec````````",
"````````````njgaaaaaaacd````````",
"````````````oqaaaaaaaacb````````",
"```````````kiqcaccacaacb````````",
"```````````fqjcggggggga.````````",
"```````````dqjd#.##.##.m````````",
"```````````cjjd#.##.##.m````````",
"``````````sjijd#.##.#..l````````",
"``````````.jijd###.###.k````````",
"``````````ciiid#.#.#..#`````````",
"`````````rhhhid##.#.#.n`````````",
"`````````nieiid#.#.#..f`````````",
"`````````ohhhid#.#.#..m`````````",
"````````leeehhd##.#.#br`````````",
"````````fhceehd#..#.#bl`````````",
"````````deceehd#......k`````````",
"```````kacceehb#..#..#``````````",
"```````fcacceed.....bn``````````",
"```````.caccced.....bf``````````",
"``````koaaacccb.b...ds``````````",
"``````lagaaacc....b.dr``````````",
"```````pcgaacab..b.bbk``````````",
"````````pagaaabbb.bb.```````````",
"`````````#cgaab.bbbd#```````````",
"``````````.aaabbbbbbn```````````",
"```````````bagbbbbddm```````````",
"````````````dabddbpk````````````",
"````````````loo.f```````````````",
"`````````````ks`````````````````",
"````````````````````````````````"
};
