/* XPM */
static char *pcon shape 16_xpm[] = {
/* width height num_colors chars_per_pixel */
"    16    16       32            1",
/* colors */
"` c None s None",
". c #989898",
"# c #a0a0a0",
"a c #b8b8b8",
"b c #a8a8a8",
"c c #888888",
"d c #808080",
"e c #b0b0b0",
"f c #d8d8d8",
"g c #949494",
"h c #f2f2f2",
"i c #c0c0c0",
"j c #ebebeb",
"k c #c9c9c9",
"l c #d2d2d2",
"m c #7f7f7f",
"n c #e3e3e3",
"o c #696969",
"p c #777777",
"q c #000000",
"r c #000000",
"s c #000000",
"t c #000000",
"u c #000000",
"v c #000000",
"w c #000000",
"x c #000000",
"y c #000000",
"z c #000000",
"A c #000000",
"B c #000000",
"C c #000000",
/* pixels */
"```````hh```````",
"```nbbaeeabbn```",
"```dod.eebdpmh``",
"``hc#e#babg.ch``",
"``jd#a##abc.dj``",
"``fdba.#a#g.df``",
"``kcba..abc.ck``",
"``idba..a#g.ci``",
"``ecba..a#g.cb``",
"``icbag.a#g.ci``",
"```i#ag.i#cca```",
"```fde#f`hecf```",
"```fdb#f``lml```",
"```h###f``l.````",
"`````kej````````",
"````````````````"
};
