/* XPM */
const char *magick[] = {
/* columns rows colors chars-per-pixel */
"16 16 4 1",
"  c Gray0",
". c Blue",
"X c #800000",
"o c None",
/* pixels */
" ooooooooooooooo",
" ooooooooooooooo",
" ooooooooooooooo",
" ooooooooooooooo",
" oooo  ooooooooo",
" oooo .ooooooooo",
" oooo . oooooooo",
" oooo . oo ooooo",
" oooo . oo. oooo",
" ooo .. o.. oooo",
" ooo.... .. oooo",
" oo ........ ooo",
" oo......... ooo",
" o........... oo",
"               o",
"oooooooooooooooo"
};
