/* XPM */
const char *magick[] = {
/* columns rows colors chars-per-pixel */
"32 32 10 1",
"  c Gray0",
". c #000080",
"X c Blue",
"o c Cyan",
"O c #800000",
"+ c #800080",
"@ c Magenta",
"# c #808080",
"$ c #c0c0c0",
"% c None",
/* pixels */
"%%%%%%%%%%%%%%%%%%%%%%%%%%%%%%%%",
"%%%%%%%%%%%%%%%%%%%%%%%%%%%%%%%%",
"%%%%%%%%%%%%%%%%%%%%%%%%%%%%%%%%",
"%%%%%%%%%#$#$#$#$#$#$#$#$#$#$#$#",
"%%%%%%%%#$#$#$#$#$#$#$#$#$#$#$#$",
"%%%%%%%#$#$#$#$ooooooo$#$#$#$#$#",
"%%%%%%#$#$#$#$ooooooo.#$#$#$#$#$",
"%%%%%#$#$#$#$#XXXXXX..$#ooooooo#",
"%%%%#$#$#$#$#$XXXXXX..#ooooooo.$",
"%%%#$#$#$#$#@@@@@@@X..$XXXXXX..#",
"%%#$#$#$#$#@@@@@@@ X..#XXXXXX..$",
"%#$#$#ooooo++++++  X..$XXXXXX..#",
"#$#$#oooooo++++++  X..#XXXXXX..$",
"$#$#$XXXXXX++++++  X.@@@@@@@X..#",
"#$#$#XXXXXX++++++  X@@@@@@@ X..$",
"$#$#$XXXXXX++++++  X++++++  X..#",
"#$#$#XXXXXX++++++  X++++++  X..$",
"$#$@@@@@@@X++++++  X++++++  X..#",
"#$@@@@@@@ X++++++  X++++++  X..$",
"$#++++++  X++++++  X++++++  X..#",
"#$++++++  X++++++  X++++++  X..$",
"$#++++++  X++++++  X++++++  X.$#",
"#$++++++  X++++++  X++++++  X$#$",
"$#++++++  $++++++  #++++++  $#$%",
"#$++++++ $#++++++  $++++++  #$%%",
"$#++++++ #$++++++ $#++++++ #$%%%",
"#$#$#$#$#$#$#$#$#$#$#$#$#$#$%%%%",
"$#$#$#$#$#$#$#$#$#$#$#$#$#$%%%%%",
"#$#$#$#$#$#$#$#$#$#$#$#$#$%%%%%%",
"%%%%%%%%%%%%%%%%%%%%%%%%%%%%%%%%",
"%%%%%%%%%%%%%%%%%%%%%%%%%%%%%%%%",
"%%%%%%%%%%%%%%%%%%%%%%%%%%%%%%%%"
};
