/* XPM */
const char *leaf16[] = {
/* columns rows colors chars-per-pixel */
"16 16 7 1",
"  c Gray0",
". c #008000",
"X c #008080",
"o c #800000",
"O c #808000",
"+ c #c0c0c0",
"@ c None",
/* pixels */
"@@@@@@@@@@@@@@@@",
"@@..@@@@@@@@@@@@",
"@@X.. X@@@@@@@@@",
"@@@X+..@@X@@@@@@",
"@@..+.X.XX@@@@@@",
"@@@X.+....XX@@@@",
"@@XXXO+OO.XX@@@@",
"@@@O...+O.. ..@@",
"@@X.X.XO+.OXXX@@",
"@@@@.O..+..XXX@@",
"@.X.X.X.O+XXX. @",
"@@@O.X.O.X+OOX@@",
"@@@@..O...O+X@@@",
"@@@..O....O+.@@@",
"@@@@OO..OO@@..@@",
"@@@@@@   @@@@. @"
};
