/* XPM */
static char *marker30[]={
"16 16 34 1",
"A c #4e4d4e",
"k c #777577",
"f c #787678",
"E c #7b797b",
"d c #7e7c7e",
"g c #817f81",
"p c #898789",
"i c #918f91",
"v c #949194",
"m c #949294",
"t c #979497",
"j c #9c9a9c",
"a c #9d9a9d",
"b c #a3a0a3",
"x c #a8a5a8",
"o c #aca9ac",
"n c #b4b2b4",
"D c #b5b2b5",
"r c #b7b4b7",
"F c #b8b5b8",
"e c #bbb8bb",
"z c #bcb9bc",
"s c #c0bdc0",
"y c #c4c1c4",
"B c #c8c5c8",
"u c #d6d2d6",
"w c #d8d5d8",
"h c #e3dfe3",
"c c #e5e1e5",
"q c #eae6ea",
"l c #ebe7eb",
"C c #eeeaee",
"# c #f6f2f6",
". c #ffffff",
"................",
"................",
".##ab#####cda##.",
".##efgh##hije##.",
".###klmnoplk###.",
".###k#qrs##k###.",
".###tu####ut###.",
".###vw####wv###.",
".##xy######yx##.",
".#xy########yx#.",
".zAkkkB##BkkkAz.",
".#####dCCd#####.",
".#####DrrD##.##.",
"....###EE###....",
"......#FF##.....",
"......#####....."};
