/* XPM */
static char * next_t_xpm[] = {
"12 12 2 1",
".	c None",
"+	c #000000",
"............",
"............",
"............",
"....+.......",
"....++......",
"....+++.....",
"....++++....",
"....+++.....",
"....++......",
"....+.......",
"............",
"............"};
