/* XPM */
static char * pdf_xpm[] = {
"32 32 6 1",
" 	s None	c None",
".	c #808080",
"X	c white",
"o	c black",
"O	c #c0c0c0",
"+	c #ff0000",
"    ...................         ",
"    .XXXXXXXXXXXXXXXXX.o        ",
"    .XXXXXXXXXXXXXXXXX..o       ",
"    .XXXXXXXXXXXXXXXXX.O.o      ",
"    .XXXXXXXXXXXXXXXXX.XO.o     ",
"    .XXXXXXXXXXXXXXXXX.XXO.o    ",
"    .XXXXXXXXX+XXXXXXX.oooooo   ",
"    .XXXXXXXX+X+XXXXXXXXXXXOo   ",
"    .XXXXXXXX+X+.XXXXXXXXXXOo   ",
"    .XXXXXX.X+X+XXX.XXXXXXXOo   ",
"    .XXXXXXXX+++XXXXXXXXXXXOo   ",
"    .XXXX.XXXX++XXXXX.XXXXXOo   ",
"    .XXXXXXXXX++XXXXXXXXXXXOo   ",
"    .XXXXXXXXX+++XXXXXXXXXXOo   ",
"    .XXX.XXXXO+X++XXXX.XXXXOo   ",
"    .XXXXXXXX++XX++OXXXXXXXOo   ",
"    .XXXXXXXX+OXXXX++++++XXOo   ",
"    .XXX.XXXO+XXX+++++XXX+XOo   ",
"    .XXXXXXX++X+++XXXX+++XXOo   ",
"    .XXXXXXX++++XXXXXXXXXXXOo   ",
"    .XXXX.X++OXXXXXXX.XXXXXOo   ",
"    .XXXXX++XXXXXXXXXXXXXXXOo   ",
"    .XXX++++XXXXXXX.XXXXXXXOo   ",
"    .XX++X+XX.XX.XXXXXXXXXXOo   ",
"    .XX+XX+XXXXXXXXXXXXXXXXOo   ",
"    .XXX++XXXXXXXXXXXXXXXXXOo   ",
"    .XXXXXXXXXXXXXXXXXXXXXXOo   ",
"    .XXXXXXXXXXXXXXXXXXXXXXOo   ",
"    .XXXXXXXXXXXXXXXXXXXXXXOo   ",
"    .XXXXXXXXXXXXXXXXXXXXXXOo   ",
"    .OOOOOOOOOOOOOOOOOOOOOOOo   ",
"    ooooooooooooooooooooooooo   "};
