/* XPM */
static char *printer[]={
"16 16 22 1",
". c None",
"# c #000000",
"l c #003e00",
"n c #00f100",
"m c #00f900",
"j c #040404",
"t c #080808",
"i c #081408",
"h c #0b0b0b",
"q c #0c0c0c",
"p c #131313",
"g c #140c14",
"d c #141414",
"s c #191919",
"f c #1c1c1c",
"a c #232323",
"e c #999199",
"o c #a7a7a7",
"r c #bfbfbf",
"k c #cfcfcf",
"b c #fbfbfb",
"c c #ffffff",
"................",
"................",
"....########a...",
"...abcccccccca..",
"...#cccccccccd..",
".a#ccccccccc#ea.",
"fe#cccccccccgeh.",
"###########i##jh",
"#kkkkkkkk#lmn#oj",
"#kkkkkkkk#####o#",
"#kkkkkkkkdkkk#o#",
"#p############oj",
"qrkrrrrrrrrrr#hh",
"#sj###########t.",
"................",
"................"};
