/* XPM */
static char *refresh[]={
"16 16 17 1",
". c None",
"d c #ab231b",
"# c #bababa",
"a c #c0c0c0",
"c c #c7c8c7",
"b c #c8c7c7",
"e c #cbcbcb",
"f c #d3d3d3",
"g c #d8d8d7",
"h c #dbdbdb",
"i c #e2e2e2",
"j c #e8e7e8",
"k c #e8e8e7",
"l c #ececec",
"m c #f4f4f4",
"n c #f8f7f7",
"o c #fefefd",
"................",
"................",
".#############a.",
".##########abbc.",
".###ddddddbeeef.",
".##aaddbeddffgg.",
".bceeddffddhhii.",
".effgddhiddjjkk.",
".gghhdddddllmmn.",
".iiijddlddnnnoo.",
".kllmddnnddoooo.",
".mmnddddooddooo.",
".oooooooooooooo.",
".oooooooooooooo.",
"................",
"................"};
