/* XPM */
static char *delete[]={
"16 16 7 1",
"# c #000000",
"a c #4a4a4a",
"d c #626262",
"e c #960031",
". c None s None",
"c c #dc0049",
"b c #ff6b8f",
"..###......a##..",
".##b##....a#b##.",
"##bcb##..a#bcb##",
"#bcccb#dd#bccce#",
"##ecccb##bccce##",
".##ecccbbccce##.",
"..##ecccccce##..",
"...d#ecccce#d...",
"...d#bccccb#d...",
"..##bccccccb##..",
".##bccceecccb##.",
"##bccce##ecccb##",
"#bccce#dd#ecccb#",
"##cce##..a#ecc##",
".##e##....a#e##.",
"..###......a##.."};
