/* XPM */
static char *export[]={
"16 16 7 1",
"# c #000000",
"b c #585858",
"c c #808080",
"d c #a0a0a0",
"e c #c3c3c3",
"a c #f4f4f4",
". c None s None",
".......#........",
"......#.#.......",
".....#...#......",
"....#.....#.....",
"...###...###....",
"..#.a#...#..#...",
"..#.b#...#bb#...",
".#.bc#...#dc.#..",
".#.ce#...#dcc#..",
"#....e###e....#.",
"####.......####.",
"#ccc#######ccc#.",
"#ccccccccccccc#.",
"#ccccccccccccc#.",
"###############c",
".ccccccccccccccc"};
