/* XPM */
static char *help[]={
"16 16 41 1",
"C c None",
"e c #303030",
"w c #7b007b",
"A c #7d007d",
"d c #800080",
"l c #800878",
"k c #800880",
"q c #800b75",
"v c #811071",
"u c #862363",
"z c #876187",
"a c #967596",
"r c #a0a0a0",
"E c #a17da1",
"H c #a584a5",
"t c #a86ca8",
"K c #a88ba8",
"y c #ab6cab",
"M c #b5b3b5",
"L c #b8b5b8",
"I c #bbb8bb",
"F c #bfbbbf",
"i c #c0c000",
"B c #c3c0c3",
"f c #c3c3c3",
"x c #c7c5c7",
"# c #cbaccb",
"c c #cbaecb",
"g c #ccb1cc",
"h c #cdb4cd",
"j c #cfb7cf",
"o c #d1bbd1",
"p c #d3bfd3",
"s c #d4c1d4",
"D c #d7cdd7",
"b c #dfdfdf",
"J c #e1e1e1",
"G c #e2e2e2",
"n c #f6ee08",
"m c #ffff00",
". c None s None",
".......#ab......",
"......cddef.....",
".....gdddddef...",
"....hdddiidddef.",
"...jdklmmmnddddf",
"..odddddddmddde.",
".pddddqdmmidder.",
"sddddddiddddefr.",
"teeeddmddddef.rf",
"tf.feeuvdwef.rex",
"yz...feeAef.reBC",
"DedE...fef.reFCC",
"CGredH....reICCC",
"CCCJredK.reLCCCC",
"CCCCCJredeMCCCCC",
"CCCCCCCGrrCCCCCC"};
