/* XPM */
static char *unchecked_dis_t[]={
"16 16 5 1",
". c None",
"b c #000000",
"# c #808080",
"c c #c0c0c0",
"a c #ffffff",
"................",
".############a..",
".#bbbbbbbbbbba..",
".#bcccccccccca..",
".#bcccccccccca..",
".#bcccccccccca..",
".#bcccccccccca..",
".#bcccccccccca..",
".#bcccccccccca..",
".#bcccccccccca..",
".#bcccccccccca..",
".#bcccccccccca..",
".#ccccccccccca..",
".aaaaaaaaaaaaa..",
"................",
"................"};
