/* XPM */
static char *_about[] = {
/* width height num_colors chars_per_pixel */
"    16    16      256            2",
/* colors */
"`` c #000000",
"`. c #ff0000",
"`# c #00ff00",
"`a c #0000ff",
"`b c #ffff00",
"`c c #00ffff",
"`d c #ff00ff",
"`e c #ffffff",
"`f c #7b7b7b",
"`g c None s None",
"`h c #7b7b7b",
"`i c #7b7b7b",
"`j c #7b7b7b",
"`k c #7b7b7b",
"`l c #7b7b7b",
"`m c #7b7b7b",
"`n c #7b7b7b",
"`o c #7b7b7b",
"`p c #7b7b7b",
"`q c #7b7b7b",
"`r c #7b7b7b",
"`s c #7b7b7b",
"`t c #7b7b7b",
"`u c #7b7b7b",
"`v c #7b7b7b",
"`w c #7b7b7b",
"`x c #7b7b7b",
"`y c #7b7b7b",
"`z c #7b7b7b",
"`A c #7b7b7b",
"`B c #7b7b7b",
"`C c #7b7b7b",
"`D c #7b7b7b",
"`E c #7b7b7b",
"`F c #7b7b7b",
"`G c #7b7b7b",
"`H c #7b7b7b",
"`I c #7b7b7b",
"`J c #7b7b7b",
"`K c #7b7b7b",
"`L c #7b7b7b",
"`M c #7b7b7b",
"`N c #7b7b7b",
"`O c #7b7b7b",
"`P c #7b7b7b",
"`Q c #7b7b7b",
"`R c #7b7b7b",
"`S c #7b7b7b",
"`T c #7b7b7b",
"`U c #7b7b7b",
"`V c #7b7b7b",
"`W c #7b7b7b",
"`X c #7b7b7b",
"`Y c #7b7b7b",
"`Z c #7b7b7b",
"`0 c #7b7b7b",
"`1 c #7b7b7b",
"`2 c #7b7b7b",
"`3 c #7b7b7b",
"`4 c #7b7b7b",
"`5 c #7b7b7b",
"`6 c #7b7b7b",
"`7 c #7b7b7b",
"`8 c #7b7b7b",
".` c #7b7b7b",
".. c #7b7b7b",
".# c #7b7b7b",
".a c #7b7b7b",
".b c #7b7b7b",
".c c #7b7b7b",
".d c #7b7b7b",
".e c #7b7b7b",
".f c #7b7b7b",
".g c #7b7b7b",
".h c #7b7b7b",
".i c #7b7b7b",
".j c #7b7b7b",
".k c #7b7b7b",
".l c #7b7b7b",
".m c #7b7b7b",
".n c #7b7b7b",
".o c #7b7b7b",
".p c #7b7b7b",
".q c #7b7b7b",
".r c #7b7b7b",
".s c #7b7b7b",
".t c #7b7b7b",
".u c #7b7b7b",
".v c #7b7b7b",
".w c #7b7b7b",
".x c #7b7b7b",
".y c #7b7b7b",
".z c #7b7b7b",
".A c #7b7b7b",
".B c #7b7b7b",
".C c #7b7b7b",
".D c #7b7b7b",
".E c #7b7b7b",
".F c #7b7b7b",
".G c #7b7b7b",
".H c #7b7b7b",
".I c #7b7b7b",
".J c #7b7b7b",
".K c #7b7b7b",
".L c #7b7b7b",
".M c #7b7b7b",
".N c #7b7b7b",
".O c #7b7b7b",
".P c #7b7b7b",
".Q c #7b7b7b",
".R c #7b7b7b",
".S c #7b7b7b",
".T c #7b7b7b",
".U c #7b7b7b",
".V c #7b7b7b",
".W c #7b7b7b",
".X c #7b7b7b",
".Y c #7b7b7b",
".Z c #7b7b7b",
".0 c #7b7b7b",
".1 c #7b7b7b",
".2 c #7b7b7b",
".3 c #7b7b7b",
".4 c #7b7b7b",
".5 c #7b7b7b",
".6 c #7b7b7b",
".7 c #7b7b7b",
".8 c #7b7b7b",
"#` c #7b7b7b",
"#. c #7b7b7b",
"## c #7b7b7b",
"#a c #7b7b7b",
"#b c #7b7b7b",
"#c c #7b7b7b",
"#d c #7b7b7b",
"#e c #7b7b7b",
"#f c #7b7b7b",
"#g c #7b7b7b",
"#h c #7b7b7b",
"#i c #7b7b7b",
"#j c #7b7b7b",
"#k c #7b7b7b",
"#l c #7b7b7b",
"#m c #7b7b7b",
"#n c #7b7b7b",
"#o c #7b7b7b",
"#p c #7b7b7b",
"#q c #7b7b7b",
"#r c #7b7b7b",
"#s c #7b7b7b",
"#t c #7b7b7b",
"#u c #7b7b7b",
"#v c #7b7b7b",
"#w c #7b7b7b",
"#x c #7b7b7b",
"#y c #7b7b7b",
"#z c #7b7b7b",
"#A c #7b7b7b",
"#B c #7b7b7b",
"#C c #7b7b7b",
"#D c #7b7b7b",
"#E c #7b7b7b",
"#F c #7b7b7b",
"#G c #7b7b7b",
"#H c #7b7b7b",
"#I c #7b7b7b",
"#J c #7b7b7b",
"#K c #7b7b7b",
"#L c #7b7b7b",
"#M c #7b7b7b",
"#N c #7b7b7b",
"#O c #7b7b7b",
"#P c #7b7b7b",
"#Q c #7b7b7b",
"#R c #7b7b7b",
"#S c #7b7b7b",
"#T c #7b7b7b",
"#U c #7b7b7b",
"#V c #7b7b7b",
"#W c #7b7b7b",
"#X c #7b7b7b",
"#Y c #7b7b7b",
"#Z c #7b7b7b",
"#0 c #7b7b7b",
"#1 c #7b7b7b",
"#2 c #7b7b7b",
"#3 c #7b7b7b",
"#4 c #7b7b7b",
"#5 c #7b7b7b",
"#6 c #7b7b7b",
"#7 c #7b7b7b",
"#8 c #7b7b7b",
"a` c #7b7b7b",
"a. c #7b7b7b",
"a# c #7b7b7b",
"aa c #7b7b7b",
"ab c #7b7b7b",
"ac c #7b7b7b",
"ad c #7b7b7b",
"ae c #7b7b7b",
"af c #7b7b7b",
"ag c #7b7b7b",
"ah c #7b7b7b",
"ai c #7b7b7b",
"aj c #7b7b7b",
"ak c #7b7b7b",
"al c #7b7b7b",
"am c #7b7b7b",
"an c #7b7b7b",
"ao c #7b7b7b",
"ap c #7b7b7b",
"aq c #7b7b7b",
"ar c #7b7b7b",
"as c #7b7b7b",
"at c #7b7b7b",
"au c #7b7b7b",
"av c #7b7b7b",
"aw c #7b7b7b",
"ax c #7b7b7b",
"ay c #7b7b7b",
"az c #7b7b7b",
"aA c #7b7b7b",
"aB c #7b7b7b",
"aC c #7b7b7b",
"aD c #7b7b7b",
"aE c #7b7b7b",
"aF c #7b7b7b",
"aG c #7b7b7b",
"aH c #a4b4c5",
"aI c #7b8b9c",
"aJ c #20394a",
"aK c #627b94",
"aL c #182029",
"aM c #738394",
"aN c #315273",
"aO c #9c9c9c",
"aP c #5a7394",
"aQ c #627b9c",
"aR c #4a6283",
"aS c #839cac",
"aT c #e6e6e6",
"aU c #31415a",
"aV c #395273",
"aW c #6a83a4",
"aX c #395a7b",
"aY c #94acbd",
"aZ c #4a6a8b",
"a0 c #292929",
"a1 c #7b7b7b",
"a2 c #4a5a6a",
"a3 c #b4bdcd",
"a4 c #314a6a",
"a5 c #839cb4",
"a6 c #9cacbd",
"a7 c #081018",
"a8 c #62738b",
/* pixels */
"`g`g`g`g`g`g`g`g`g`g`g`g`g`g`g`g",
"`g`g`g`g`g`fa0````a0`f`g`g`g`g`g",
"`g`g`gaO``aMa6a6aYaSa2``aO`g`g`g",
"`g`gaOaLaHa5aWaWaQaQaPaZaLaO`g`g",
"`g`g``a3a5aWaW`e`eaPaPaZaR```g`g",
"`g`fa8a5aWaWaQ`e`eaPaZaZaRaU`f`g",
"`ga0a6aWaWaQaQaPaPaZaZaRaRaXa0`g",
"`g``aHaWaQaQ`e`e`eaZaRaRaXaX```g",
"`g``aHaQaQaPaP`e`eaRaRaXaXaV```g",
"`ga0a6aQaPaPaZ`e`eaRaXaXaVa4a0`g",
"`g`faIaWaPaZaZ`e`eaXaXaVaNaJ`f`g",
"`g`g``aSaQaZ`e`e`e`eaVaNa4```g`g",
"`g`gaOaLaKaKaRaXaXaVaNa4a7aO`g`g",
"`g`g`gaO``a2aRaXaVa4aJ``aO`g`g`g",
"`g`g`g`g`g`fa0````a0`f`g`g`g`g`g",
"`g`g`g`g`g`g`g`g`g`g`g`g`g`g`g`g"
};
