/* XPM */
const char * arrow_up_xpm[] = {
"12 12 2 1",
" 	c None s None",
".	c black",
"            ",
"            ",
"            ",
"            ",
"     .      ",
"    ...     ",
"   .....    ",
"  .......   ",
"            ",
"            ",
"            ",
"            "};
