/* XPM */
const char * arrow_up_xpm[] = {
"12 6 2 1",
" 	c None s None",
".	c black",
"            ",
"     .      ",
"    ...     ",
"   .....    ",
"  .......   ",
"            "};
