/* XPM */
static char *arrow[]={
"16 16 4 1",
". c None",
"# c #303030",
"b c #585858",
"a c #a0a0a0",
"................",
"................",
"..#a............",
"..abba..........",
"...b##b#........",
"...a###a........",
"....b##.........",
"....#a.#........",
"........#.......",
".........#......",
"..........#.....",
"...........#....",
"............b...",
".............#..",
"................",
"................"};
