/* XPM */
static char *bld_replace_d[] = {
/* width height num_colors chars_per_pixel */
"    21    21        5            1",
/* colors */
". c #cecaca",
"# c #c0c0c0",
"a c #595959",
"b c #808080",
"c c #808284",
/* pixels */
"#####################",
"#####################",
"#####################",
"#########cccc########",
"#####c#cc####cc######",
"#####cc########c#####",
"#####ccc########c####",
"#####################",
"##############.#.#.##",
"###############.#.#.a",
"###############aaaaaa",
"##......#############",
"##......b############",
"###bbbbbb############",
"#####################",
"#####c########ccc####",
"######c########cc####",
"#######cc####cc#c####",
"#########cccc########",
"#####################",
"#####################"
};
