/* XPM */
static char *asxpm[] = {
/* columns rows colors chars-per-pixel */
"21 21 15 1",
"  c #000000",
". c #111111",
"X c #2A2A2A",
"o c #3B3B3B",
"O c #4A4A4A",
"+ c #5A5A5A",
"@ c #666666",
"# c #717171",
"$ c #8B8B8B",
"% c #9F9F9F",
"& c #AAAAAA",
"* c #B1B1B1",
"= c #CCCCCC",
"- c #FFFFFF",
"; c None",
";;;;;         ;;;;;;;",
";;;;X++++++++o.;;;;;;",
";;;X++.o+o.o+o..;;;;;",
";;X++ooooooooooX.;;;;",
";X++.o+o.o+o.o+o..;;;",
".++ooooooooooooooX.;;",
"X+.o+o.o+o.o+o.o+.. ;",
"XOo%%#&%%o&&.#&&oX. ;",
"Xo---%---*---*---o. ;",
"XO-=ooo-o&-&-&-%-X. ;",
"X++--o.-+%-%-%---.. ;",
"XOo#-&o-o&-&-&-&oX. ;",
"Xo---%+-.*---*-o.o. ;",
"XO&&$oo%oo*%o@&ooX. ;",
"X+.o+o.o+o.o+o.o+.. ;",
";ooooooooooooooo.. ;;",
"; +o.o+o.o+o.o+.. ;;;",
";; ooooooooooo.. ;;;;",
";;; +.......... ;;;;;",
";;;; .. . . .  ;;;;;;",
";;;;;;;;;;;;;;;;;;;;;"
};
