/* XPM */
static char *bld_paste_d[] = {
/* width height num_colors chars_per_pixel */
"    21    21       18            1",
/* colors */
". c #999999",
"# c #cccccc",
"a c #999999",
"b c #989898",
"c c #999999",
"d c #cbcbcb",
"e c #e4e4e4",
"f c #d8d8d8",
"g c #f2f2f2",
"h c #e6e6e6",
"i c #dadada",
"j c #cecece",
"k c #b6b6b6",
"l c #999999",
"m c #999999",
"n c #989898",
"o c #989898",
"p c #ffffff",
/* pixels */
"####kkkk......kkkk###",
"####kkkk......kkkk###",
"###knnn.ppnnii.nnnk##",
"##kn...hkkkkkkk...nk#",
"##kn.a.pkllllll.a.nk#",
"##kn.ab........cb.nk#",
"##kn.abbccccccccb.nk#",
"##kn.abbc.........mk#",
"##kn.abbc.fdeeeoimomk",
"##kn.abbc.kdjhgopim.n",
"##kn.abbc.fdeeeoppi.n",
"##kn.abbc.kdjhgmmmm.n",
"##kn.abbc.fdeeeeeee.n",
"##kn.abbc.kdjhgpppg.n",
"##kn.abbc.fdeeeeeee.n",
"##kn.abbc.kdjhgpppg.n",
"##kn.abbc.fdeeeeeee.n",
"##kn.abbb.kdjhgpppg.n",
"##kn......fdeeeeeee.n",
"###knnnnn...........n",
"####kkkkknnnnnnnnnnnk"
};
