/* XPM */
static char *list_xpm[] = {
/* columns rows colors chars-per-pixel */
"21 21 4 1",
"  c Gray0",
". c #b3cece",
"X c Gray100",
"o c None",
/* pixels */
"ooooooooooooooooooooo",
"oooo             oooo",
"oooo XXXXXXXXXXX oooo",
"oooo XXXXXXXXXXX oooo",
"oooo X       XXX oooo",
"oooo XXXXXXXXXXX oooo",
"oooo XXXXXXXXXXX oooo",
"oooo X        XX oooo",
"oooo XXXXXXXXXXX oooo",
"oooo XXXXXXXXXXX oooo",
"oooo X        XX oooo",
"oooo XXXXXXXXXXX oooo",
"oooo XXXXXXXXXXX oooo",
"oooo X        XX oooo",
"oooo XXXXXXXXXXX oooo",
"oooo XXXXXXXXXXX oooo",
"oooo X       XXX oooo",
"oooo XXXXXXXXXXX oooo",
"oooo XXXXXXXXXXX oooo",
"oooo             oooo",
"ooooooooooooooooooooo"
};
