/* XPM */
static char *entry_xpm[] = {
/* columns rows colors chars-per-pixel */
"21 21 6 1",
"  c Gray0",
". c #7b7b7b",
"X c #d6d6d6",
"o c #b3cece",
"O c Gray100",
"+ c None",
/* pixels */
"+++++++++++++++++++++",
"+++++++++++++++++++++",
"....................O",
".                  XO",
". OOOOOOOOOOOOOOOOOXO",
". OOOOOOOOOOOOOOO OXO",
". OOOOOOOO OOOOOO OXO",
". OOOOOOOO OOOOOO OXO",
". OOO   OO X  OOO OXO",
". OO XOX O  O. OO OXO",
". OOOOOO O OOO OO OXO",
". OOO    O OOO OO OXO",
". OO XOO O OOO OO OXO",
". OO XOO O OO. OO OXO",
". OOO    O    OOO OXO",
". OOOOOOOOOOOOOOO OXO",
". OOOOOOOOOOOOOOOOOXO",
".XXXXXXXXXXXXXXXXXXXO",
"OOOOOOOOOOOOOOOOOOOOO",
"+++++++++++++++++++++",
"+++++++++++++++++++++"
};
