/* XPM */
static char *vscale_xpm[] = {
/* columns rows colors chars-per-pixel */
"21 21 7 1",
"  c Gray0",
". c #7b7b7b",
"X c #d6d6d6",
"o c #b3cece",
"O c Gray87",
"+ c Gray100",
"@ c None",
/* pixels */
".........@@@@@@@@@@@@",
".       +@@@@@@@@@@@@",
". ++++ O+@@@@@@@@@@@@",
". +XX. O+@@@@@@@@@@@@",
". +XX. O+@@  @@@@@  @",
". +XX. O+@ @@ @@@ @@ ",
". +... O+@ @@ @@@ @@ ",
". +XX. O+@ @@ @@@ @@ ",
". +XX. O+@ @@ @@@ @@ ",
". +... O+@@  @@ @@  @",
".      O+@@@@@@@@@@@@",
". XXXXXO+@@@@@@@@@@@@",
". XXXXXO+@@@@@@@@@@@@",
". XXXXXO+@@@@@@@@@@@@",
". XXXXXO+@@@@@@@@@@@@",
". XXXXXO+@@@@@@@@@@@@",
". XXXXXO+@@@@@@@@@@@@",
". XXXXXO+@@@@@@@@@@@@",
". XXXXXO+@@@@@@@@@@@@",
". OOOOOO+@@@@@@@@@@@@",
".++++++++@@@@@@@@@@@@"
};
