/* XPM */
static char * radiobutton_xpm[] = {
"21 21 4 1",
" 	c None",
".	c #949594",
"+	c #000000",
"@	c #FFFFFF",
"                     ",
"                     ",
"                     ",
"                     ",
"        ....         ",
"      ..+++++.       ",
"     .++@@@@@+.      ",
"     .+@@@@@@@.      ",
"    .+@@@+++@@@.@    ",
"    .+@@+++++@@.@    ",
"    .+@@+++++@@.@    ",
"    .+@@+++++@@.@    ",
"     +@@@+++@@.@     ",
"     .+@@@@@@@.@     ",
"      ..@@@@..@      ",
"        ....@@       ",
"        @@@@         ",
"                     ",
"                     ",
"                     ",
"                     "};
