/* XPM */
static char *bld_open[] = {
/* width height num_colors chars_per_pixel */
"    21    21       24            1",
/* colors */
". c #000000",
"# c #cad0cc",
"a c #f0f0f0",
"b c #bdbdbd",
"c c #aaaaaa",
"d c #9b9b9b",
"e c #858585",
"f c #6e6f6f",
"g c #9b9d97",
"h c #afafaf",
"i c #cbcbcb",
"j c #e4e4e4",
"k c #d8d8d8",
"l c #f2f2f2",
"m c #e6e6e6",
"n c #dadada",
"o c #cecece",
"p c #c2c2c2",
"q c #b6b6b6",
"r c #929292",
"s c #9d979b",
"t c #9d989a",
"u c #cfcccc",
"v c #ffffff",
/* pixels */
"#####q.........tq####",
"#####q.........tq####",
"###qqt.kijjjuntutq###",
"##qstt.qiomluvnt.tq##",
"qqst...kijjjuvvn.tqq#",
"qqt.ba.qiomltttt.tttq",
"qqt.ab.kijjjjjjj....t",
"qqt.ac.qiomlvvvl.be.t",
"qqt.ac.jhjjjjjjj.be.t",
"rrt.ac.pfffffffffbe.t",
"tt..ffffaaaaaaaafbe.t",
"..aaaaacccccccccfef.t",
"..dccccccccccccceff.t",
"..fccccccccccccccff.t",
"tt.dcccccccccccccff.t",
"rr.fcccccccccccccef.t",
"qqt.eeeeeeeeeeeeeeg.t",
"qqr.................t",
"##qtttttttttttttttttq",
"###qqqqqqqqqqqqqqqqq#",
"#####################"
};
