/* XPM */
static char *bld_hbox_d[] = {
/* width height num_colors chars_per_pixel */
"    21    21        4            1",
/* colors */
". c #cecece",
"# c #999999",
"a c #d6d6d6",
"b c #989898",
/* pixels */
"......#......#......#",
".aaaab#.aaaab#.aaaab#",
".aaaab#.aaaab#.aaaab#",
".aaaab#.aaaab#.aaaab#",
".aaaab#.aaaab#.aaaab#",
".aaaab#.aaaab#.aaaab#",
".aaaab#.aaaab#.aaaab#",
".aaaab#.aaaab#.aaaab#",
".aaaab#.aaaab#.aaaab#",
".aaaab#.aaaab#.aaaab#",
".aaaab#.aaaab#.aaaab#",
".aaaab#.aaaab#.aaaab#",
".aaaab#.aaaab#.aaaab#",
".aaaab#.aaaab#.aaaab#",
".aaaab#.aaaab#.aaaab#",
".aaaab#.aaaab#.aaaab#",
".aaaab#.aaaab#.aaaab#",
".aaaab#.aaaab#.aaaab#",
".aaaab#.aaaab#.aaaab#",
".bbbbb#.bbbbb#.bbbbb#",
"#####################"
};
