/* XPM */
static char *bld_copy[] = {
/* width height num_colors chars_per_pixel */
"    21    21       13            1",
/* colors */
". c #000000",
"# c #cccccc",
"a c #cbcbcb",
"b c #e4e4e4",
"c c #d8d8d8",
"d c #f2f2f2",
"e c #e6e6e6",
"f c #dadada",
"g c #cecece",
"h c #b6b6b6",
"i c #9f9c98",
"j c #3e443e",
"k c #ffffff",
/* pixels */
"hhiiiiiiiiih#########",
"hhiiiiiiiiih#########",
"ii.........ih########",
"ii.cabbbjfijih#######",
"ii.hafdkjkfi.ih######",
"ii.cabbhiiiiiiiiih###",
"ii.hafdi.........ih##",
"ii.cabbi.cabbbjfijih#",
"ii.hafdi.hagedjkfi.ih",
"ii.cabbi.cabbbjkkf.ih",
"ii.hafdi.hagediiii.ih",
"ii.cabbi.cabbbbbbb.ih",
"ii.hafdi.hagedkkkd.ih",
"ii.cabbi.cabbbbbbb.ih",
"ii.....i.hagedkkkd.ih",
"hhiiiiii.cabbbbbbb.ih",
"##hhhhhi.hagedkkkd.ih",
"#######i.cabbbbbbb.ih",
"#######i...........ih",
"#######hiiiiiiiiiiihh",
"########hhhhhhhhhhhh#"
};
