/* XPM */
static char *statusbar[] = {
/* width height num_colors chars_per_pixel */
"    21    21        6            1",
/* colors */
". c #000000",
"# c #7b7b7b",
"a c #d6d6d6",
"b c #dedede",
"c c #ffffff",
"d c #bfbfbf",
/* pixels */
"ddddddddddddddddddddd",
"ddddddddddddddddddddd",
"ddddddddddddddddddddd",
"ddddddddddddddddddddd",
"dddcaa#dddddddddddddd",
"dddcaa#dddddddddddddd",
"dddcaa#dddddddddddddd",
"dddcaa#dddddddddddddd",
"dddcaaccccccccccccddd",
"dddcaaaaaaaaaaaaaaddd",
"dddcaaaaaaaaaaaaaaddd",
"dddcaa############ddd",
"dddcaa#bbbbbbbbbbbddd",
"dddcaa#bbbbbbbbbbbddd",
"dddcaa#bbbbbbbbbbbddd",
"dddcaaccccccccccccddd",
"dddcaaaaaaaaaaaaaaddd",
"dddcaaaaaaaaaaaaaaddd",
"ddd...............ddd",
"ddddddddddddddddddddd",
"ddddddddddddddddddddd"
};
