/* XPM */
static char * hpaned_xpm[] = {
"21 21 5 1",
" 	c None",
".	c #FFFFFF",
"+	c #000000",
"@	c #D6D6D6",
"#	c #7B7B7B",
"..........+.........+",
".@@@@@@@@#+.@@@@@@@#+",
".@@@@@@@@#+.@@@@@@@#+",
".@@@@@@@@#+.@@@@@@@#+",
".@@@@@@@@#+.@@@@@@@#+",
".@@@@@@@@#+.@@@@@@@#+",
".@@@@@@@@#+.@@@@@@@#+",
".@@@@@@@@#+.@@@@@@@#+",
".@@@@@@@@#+.@@@@@@@#+",
".@@@@@@@@#+.@@@@@@@#+",
".@@@@@@@@#+.@@@@@@@#+",
".@@@@@@@@#+.@@@@@@@#+",
".@@@@@@#####@@@@@@@#+",
".@@@@@@#...##@@@@@@#+",
".@@@@@@#...##@@@@@@#+",
".@@@@@@#...##@@@@@@#+",
".@@@@@@######@@@@@@#+",
".@@@@@@@#####@@@@@@#+",
".@@@@@@@@#+.@@@@@@@#+",
".#########+.########+",
"+++++++++++++++++++++"};
