/* XPM */
static char *bld_undo_d[] = {
/* width height num_colors chars_per_pixel */
"    21    21       16            1",
/* colors */
". c #9c9a99",
"# c #cccccc",
"a c #9c9a9b",
"b c #9d9c99",
"c c #cfcfcf",
"d c #a3a3a3",
"e c #98989a",
"f c #9a9a98",
"g c #999997",
"h c #999a9a",
"i c #b6b6b6",
"j c #9e9e9e",
"k c #9a9d9b",
"l c #9a9898",
"m c #c9c9cc",
"n c #cececc",
/* pixels */
"#####################",
"#####################",
"#####################",
"#####################",
"######imli###########",
"#####im..li##########",
"####im.d.liiiiiii####",
"###im.dc.llllllkjj###",
"##im.dcf.........kj##",
"iim.dnffeeeeeefgh.kj#",
"mm.dnffffffffffffh.ki",
"ll.hdfffffffffffffh.j",
"iil.hbfbhhhhhhffffg.k",
"##il.hbb......hffffa.",
"###il.hb.ljjjj.gfffa.",
"####il.h.l###j.gfffa.",
"#####il..l###j.gfffa.",
"######illi###j......l",
"#############jllllllj",
"#####################",
"#####################"
};
