/* XPM */
static char *hscrollbar_xpm[] = {
/* columns rows colors chars-per-pixel */
"21 21 6 1",
"  c Gray0",
". c Gray61",
"X c #d6d6d6",
"o c #b3cece",
"O c Gray100",
"+ c None",
/* pixels */
"+++++++++++++++++++++",
"+++++++++++++++++++++",
"+++++++++++++++++++++",
"+++++++++++++++++++++",
"+++++++++++++++++++++",
"+++++++++++++++++++++",
"                     ",
" ...O .OOOOOO .OO...O",
" ..OX .OXXXXX .OXO..O",
" .OXX .OXXXXX .OXXO.O",
" OXXX .OXXXXX .OXXX O",
" . XX .OXXXXX .OXX .O",
" .. X .OXXXXX .OX ..O",
" ...  .       .O ...O",
"OOOOOOOOOOOOOOOOOOOOO",
"+++++++++++++++++++++",
"+++++++++++++++++++++",
"+++++++++++++++++++++",
"+++++++++++++++++++++",
"+++++++++++++++++++++",
"+++++++++++++++++++++"
};
