/* XPM */
static char *bld_save_d[] = {
/* width height num_colors chars_per_pixel */
"    21    21       16            1",
/* colors */
". c #9d9d98",
"# c #cecccc",
"a c #dadada",
"b c #cecece",
"c c #c2c2c2",
"d c #b6b6b6",
"e c #aaaaaa",
"f c #9e9e9e",
"g c #929292",
"h c #787a7a",
"i c #ced0cc",
"j c #97979b",
"k c #9a9a98",
"l c #ccd0cc",
"m c #9b9a98",
"n c #caccce",
/* pixels */
"iilliiiiiiiiiiiiiilli",
"iilliiiiiiiiiiiiiilli",
"llll..............lll",
"lllhgiiiiiiiiiiiifhll",
"ll.hgiiiiiiiiiiiifh.l",
"ll.hgiiiiiiiiiiiifh.l",
"ll.hgiiiiiiiiiiiidh.l",
"ll.hgiiiiiiiiiiiich.l",
"ll.hgiiiiiiiiiiiich.l",
"ll.hgiiiiiiiiiiiidh.l",
"ll.hhgggggeedddcdhh.l",
"ll.hhhhhhhhhhhhhhhh.l",
"ll.hhkkkkkkkkjjjjhh.l",
"ll.hknnaaaaaacmkjfh.l",
"ll.hknjkmnbcbamkjfh.l",
"ll.hkajkmncbcamkjfh.l",
"ll.hkajkmnbcbamkjfh.l",
"ll.hkajkmncbcamkjfh.l",
"ll.lkaeeeccccamkjfh.l",
"eel.................l",
"##ellllllllllllllllli"
};
