/* XPM */
static char *colorseldialog_xpm[] = {
/* columns rows colors chars-per-pixel */
"21 21 12 1",
"  c Gray0",
". c #00007b",
"X c #7b7b7b",
"o c Blue",
"O c Green",
"+ c Cyan",
"@ c Red",
"# c Yellow",
"$ c #d6d6d6",
"% c #b3cece",
"& c Gray100",
"* c None",
/* pixels */
"*********************",
"*********************",
"*********************",
"*********************",
"**XXXXXXXXXXXXXXXX***",
"**X.@#...........X **",
"**X.+O.&&&....$ $X **",
"**XXXXXXXXXXXXXXXX **",
"**X&&&&&&&&&&&&&&X **",
"**X&&&&&&&&&&&&&&X **",
"**X&&@@@OOOooo&&&X **",
"**X&&@@@OOOooo&&&X **",
"**X&&@@@OOOooo&&&X **",
"**X&&@@@OOOooo&&&X **",
"**X&&&&&&&&&&&&&&X **",
"**X&&&&&&&&&&&&&&X **",
"**XXXXXXXXXXXXXXXX **",
"***                **",
"*********************",
"*********************",
"*********************"
};
