/* XPM */
static char *checked_dis_t_new[]={
"16 16 5 1",
". c None",
"b c #000000",
"# c #808080",
"c c #c0c0c0",
"a c #ffffff",
"................",
".############a..",
".#bbbbbbbbbbca..",
".#bcccccccccca..",
".#bccccccc#cca..",
".#bcccccc##cca..",
".#bc#ccc###cca..",
".#bc##c###ccca..",
".#bc#####cccca..",
".#bcc###ccccca..",
".#bccc#cccccca..",
".#bcccccccccca..",
".#ccccccccccca..",
".aaaaaaaaaaaaa..",
"................",
"................"};
