/* XPM */
static char *connect_xpm[] = {
/* width height num_colors chars_per_pixel */
"    16    16       64            2",
/* colors */
"`` c #000000",
"`. c #807d74",
"`# c #eae8e3",
"`a c #78756b",
"`b c #0f0f0d",
"`c c #a7a49e",
"`d c #cecac3",
"`e c #aaa7a0",
"`f c #a6a29b",
"`g c #726d63",
"`h c #8c8981",
"`i c #989389",
"`j c #e2e1dd",
"`k c #f0efec",
"`l c #f0eeeb",
"`m c #cfcfcf",
"`n c #7d786e",
"`o c #eeecea",
"`p c #8a857b",
"`q c #8b877d",
"`r c #ecebe8",
"`s c #797978",
"`t c #706c62",
"`u c #242424",
"`v c #34332d",
"`w c #f2f0ed",
"`x c #010101",
"`y c #646056",
"`z c #6c685e",
"`A c #3c3933",
"`B c #4b4b4a",
"`C c #b7b3aa",
"`D c #bebbb5",
"`E c #b1ada4",
"`F c #b3b1aa",
"`G c #c4c2bd",
"`H c #d1d0cc",
"`I c #b7b7b7",
"`J c #c6c2ba",
"`K c #a4a4a4",
"`L c #e0e0e0",
"`M c #97938a",
"`N c #8b877e",
"`O c #ebeae6",
"`P c #e1dfdb",
"`Q c #d2d2d2",
"`R c #949494",
"`S c #9b9b9a",
"`T c None",
"`U c #000000",
"`V c #000000",
"`W c #000000",
"`X c #000000",
"`Y c #000000",
"`Z c #000000",
"`0 c #000000",
"`1 c #000000",
"`2 c #000000",
"`3 c #000000",
"`4 c #000000",
"`5 c #000000",
"`6 c #000000",
"`7 c #000000",
"`8 c #000000",
/* pixels */
"`T`T`T`T`T`T`T`T`T`T`T`T`T`T`T`T",
"`T`T`T`T`T`T`T`T`T`T`T`T`T`T`T`T",
"`T`T`T`T`T`T`T`T`T`T`I`````L````",
"`T`T`T`T`T`T`T`T`R`u```i`.```J`.",
"`T`T`T`T`T`T`T`S`v`C`G`#`.```#`.",
"`T`T`T`T`T`T`T```j`k`e`#`.```l`.",
"```````````````.`j`k`e`#`.```l`.",
"`#`#`#`#`#`#`#`#`w`O`p`r`.```o`.",
"`.`.`.`.`.`.`a`a`D`F`n`P`a```H`.",
"`````````````x`a`h`f`g`d`a```c`.",
"`T`T`T`T`T`T`m`b`h`f`g`d`a```c`.",
"`T`T`T`T`T`T`T`s`A`N`t`E`z```M`.",
"`T`T`T`T`T`T`T`T`K`B`b`i`y```q`.",
"`T`T`T`T`T`T`T`T`T`T`m`b`b`Q`b``",
"`T`T`T`T`T`T`T`T`T`T`T`T`T`T`T`T",
"`T`T`T`T`T`T`T`T`T`T`T`T`T`T`T`T"
};
