/* XPM */
static char * deb_t_xpm[] = {
"16 16 30 1",
" 	c None",
".	c #808080",
"+	c #C0C0C0",
"@	c #A0A0A0",
"#	c #FFFFFF",
"$	c #707070",
"%	c #EFEFEF",
"&	c #E08080",
"*	c #C00000",
"=	c #D04040",
"-	c #EFBFBF",
";	c #DFDFDF",
">	c #303030",
",	c #B95959",
"'	c #C26262",
")	c #C13131",
"!	c #606060",
"~	c #B82828",
"{	c #C9C9C9",
"]	c #F0F0F0",
"^	c #E0B0B0",
"/	c #A97979",
"(	c #D07070",
"_	c #969696",
":	c #999999",
"<	c #A2A2A2",
"[	c #BA8A8A",
"}	c #E1E1E1",
"|	c #B15151",
"1	c #404040",
"   .++++++++@   ",
"   .########+$  ",
"   .########+%$ ",
"   .&**=-###;..>",
"   **,')*=#####!",
"  *~{]##^*^####!",
"  */#-~(#='####!",
" *~_#*{#-='####!",
" *':#~]##*{####!",
" *):#=(-=,]####!",
"  *<##('[}#####!",
"  *|###########!",
"   *^##########!",
"   <)&#########!",
"   .#^']#######!",
"   1!!!!!!!!!!!>"};
