/* XPM */
static char *ia_diamond[]={
"16 16 3 1",
". c None",
"# c #303030",
"a c #808080",
"................",
"................",
".......#........",
"......#.#.......",
".....#...#......",
"....#.....#.....",
"...#.......#....",
"..#.........#...",
"..a#.......#a...",
"...a#.....#a....",
"....a#...#a.....",
".....a#.#a......",
"......a#a.......",
".......a........",
"................",
"................"};
