/* XPM */
static char*draw_t[]={
"16 16 5 1",
"c c #00ff00",
". c #800080",
"# c #c0c0ff",
"a c #ffff00",
"b c #00c0c0",
".#.#a.........b.",
"..#.a........c..",
"..#.a......cc...",
"....a....c.c....",
"....a.c.c.c.....",
"....a.c.cb......",
"..c.ac.cc.......",
"..c.ac.b........",
".c.cacb.........",
".c.ccc..........",
"ccaacaaaaaaaaaaa",
"cc.ba.......#.#.",
"ccb.a........#..",
"cb..a.......#.#.",
"c...a...........",
"....a..........."};
