/* XPM */
static char * checked_new_t_xpm[] = {
"16 16 4 1",
" 	c None",
".	c #808080",
"+	c #000000",
"@	c #C0C0C0",
"                ",
"                ",
"  ............  ",
"  .++++++++++@  ",
"  .+@@@@@@@@@@  ",
"  .+@@@@@@@+@@  ",
"  .+@@@@@@++@@  ",
"  .+@+@@@+++@@  ",
"  .+@++@+++@@@  ",
"  .+@+++++@@@@  ",
"  .+@@+++@@@@@  ",
"  .+@@@+@@@@@@  ",
"  .+@@@@@@@@@@  ",
"  .@@@@@@@@@@@  ",
"                ",
"                "};
