/* XPM */
static char * eve_line_xpm[] = {
"16 16 14 1",
" 	c None",
".	c #FFFFFF",
"+	c #655D85",
"@	c #7D7698",
"#	c #D9D7E1",
"$	c #A8A3BA",
"%	c #70688E",
"&	c #EBEAEF",
"*	c #908AA7",
"=	c #BEBBCC",
"-	c #908AA8",
";	c #817A9B",
">	c #CECBD8",
",	c #6B638A",
".............+..",
"............@#..",
"...........$$...",
"..........$$....",
".........#@.....",
".........%&.....",
"........*=......",
".......$$.......",
"......=-........",
".....&%.........",
".....;>.........",
"....*=..........",
"...=-...........",
"..>;............",
".&@&............",
".,$............."};
