/* XPM */
static char * tes_xpm[] = {
"16 16 89 1",
" 	c #FFFFFF",
".	c #FCFCFC",
"+	c #CCCCCC",
"@	c #A0A0A0",
"#	c #8D8D8D",
"$	c #939393",
"%	c #B4B4B4",
"&	c #EEEEEE",
"*	c #E4E4E4",
"=	c #737373",
"-	c #161616",
";	c #000000",
">	c #0D0D0D",
",	c #2F2F2F",
"'	c #202020",
")	c #515151",
"!	c #FEFEFE",
"~	c #949494",
"{	c #0B0B0B",
"]	c #060606",
"^	c #5A5A5A",
"/	c #BBBBBB",
"(	c #F9F9F9",
"_	c #D3D3D3",
":	c #A2A2A2",
"<	c #606060",
"[	c #070707",
"}	c #6D6D6D",
"|	c #E2E2E2",
"1	c #8A8A8A",
"2	c #222222",
"3	c #F1F1F1",
"4	c #636363",
"5	c #555555",
"6	c #DFDFDF",
"7	c #4C4C4C",
"8	c #363636",
"9	c #A4A4A4",
"0	c #1D1D1D",
"a	c #B7B7B7",
"b	c #D8D8D8",
"c	c #3D3D3D",
"d	c #0F0F0F",
"e	c #4F4F4F",
"f	c #E9E9E9",
"g	c #F6F6F6",
"h	c #F7F7F7",
"i	c #1A1A1A",
"j	c #414141",
"k	c #ECECEC",
"l	c #EDEDED",
"m	c #2B2B2B",
"n	c #282828",
"o	c #808080",
"p	c #646464",
"q	c #C5C5C5",
"r	c #0A0A0A",
"s	c #565656",
"t	c #333333",
"u	c #525252",
"v	c #EFEFEF",
"w	c #959595",
"x	c #4E4E4E",
"y	c #DDDDDD",
"z	c #464646",
"A	c #CBCBCB",
"B	c #585858",
"C	c #BABABA",
"D	c #111111",
"E	c #2E2E2E",
"F	c #5E5E5E",
"G	c #050505",
"H	c #818181",
"I	c #3A3A3A",
"J	c #DCDCDC",
"K	c #505050",
"L	c #F5F5F5",
"M	c #1C1C1C",
"N	c #ACACAC",
"O	c #5F5F5F",
"P	c #626262",
"Q	c #DBDBDB",
"R	c #B3B3B3",
"S	c #FDFDFD",
"T	c #E6E6E6",
"U	c #F4F4F4",
"V	c #6F6F6F",
"W	c #747474",
"X	c #E0E0E0",
"                ",
"                ",
"       .+@#$%&  ",
"     *=-;;;>,')+",
"   !~{;;]^/(  _:",
"  .<;;[}| 123   ",
"  4;;56   78    ",
" 9;0a bcdefg.   ",
"hijk9lmno{pqrs. ",
"9tg uv;w x8yzA! ",
"BC !D&EiFGH.!   ",
"I. !d=JK,oLM^!  ",
"N   O;PAQRS4^T  ",
"    UVmtWX      ",
"                ",
"                "};
