/* XPM */
static char * eve_axes1_xpm[] = {
"16 16 9 1",
" 	c None",
".	c #3C3A3A",
"+	c #292727",
"@	c #CDC3C3",
"#	c #BCB8B8",
"$	c #524C4C",
"%	c #4E4949",
"&	c #5C5B5B",
"*	c #282626",
"                ",
"                ",
"  .+. @ @ @ #   ",
"   $    @       ",
"   $            ",
"   $    @   @   ",
"   $            ",
"  .+. @ @ @ @   ",
"   $            ",
"   $    @   @   ",
"   %            ",
"   $    .   .   ",
"   +$$$&*$$$+   ",
"        .   .   ",
"                ",
"                "};
