/* XPM */
static char * pointset_xpm[] = {
"16 16 6 1",
" 	c None",
".	c #FFFFFF",
"+	c #9F8989",
"@	c #70474A",
"#	c #443333",
"$	c #704747",
"................",
"................",
"................",
"................",
".....+..........",
"........@.......",
"..@..#..........",
"......+.+.......",
"....+..#..#.....",
"................",
"........+.......",
".....$..........",
"................",
"................",
"................",
"................"};
