/* XPM */
const char *tf1_32[] = {
/* columns rows colors chars-per-pixel */
"32 32 3 1",
"  c #800080",
". c Magenta",
"X c Yellow",
/* pixels */
"  .                             ",
"  .                             ",
"  .                             ",
"  .                             ",
"  .                             ",
"  .                             ",
"  .                             ",
"  .                             ",
"  .                             ",
"  .                             ",
"  .                             ",
"  .                             ",
"  .                             ",
"  .       XXX                   ",
"  .      XXXXX                  ",
"  .     XXXXXXX                 ",
"  .    XXX   XXX                ",
"  .   XXX     XXX               ",
"  .  XXX       XXX             X",
"  . XXX         XXX           XX",
"  .XXX           XXX         XXX",
"  XXX             XXX       XXX ",
" XXX               XXX     XXX  ",
"XXX.................XXX...XXX...",
"XX.                  XXXXXXX    ",
"X .                   XXXXX     ",
"  .                    XXX      ",
"  .                             ",
"  .                             ",
"  .                             ",
"  .                             ",
"  .                             "
};
