/* XPM */
const char *tf2_32[] = {
/* columns rows colors chars-per-pixel */
"32 32 3 1",
"  c #000080",
". c Green",
"X c Magenta",
/* pixels */
"            X                 .X",
"            X             .   . ",
"            X            . . .  ",
"            X            .  .   ",
"            X           .  X    ",
"            X           . X     ",
"            X           .X      ",
"            X           .       ",
"            X   ...    .        ",
"            X  ..  .. .         ",
"            X  ..    .          ",
"            X  .    X           ",
"            X  .   X            ",
"            X .. XX             ",
"            X ..XXX             ",
"     ..     X .XXX              ",
"    .....   X .XX               ",
"   ..  ...  X..X                ",
"XXX..XXX...X...XXXXXXXXXXXXXXXXX",
"   ..     ....                  ",
"  ..      X..                   ",
"  ..     XXXX                   ",
" ...    XXX X                   ",
" ...   XXX  X                   ",
" ..   XXX   X                   ",
" ..  XXX    X                   ",
"... XXX     X                   ",
"...XXX      X                   ",
"..XXX       X                   ",
"..XX        X                   ",
"..X         X                   ",
"..                              "
};
