/* XPM */
const char * fdisk_t_xpm[] = {
"16 16 6 1",
" 	c None s None",
".	c #808080",
"X	c #c0c0c0",
"o	c black",
"O	c #FF0000",
"#	c white",
"                ",
"                ",
"                ",
"                ",
"  ............. ",
" .XXXXXXXXXXXX.o",
".############..o",
".XXXXXXXXXXOX..o",
".XXXX....XXXX..o",
".X...oooo...X..o",
".XXXX####XXXX..o",
"..............o ",
" ooooooooooooo  ",
"                ",
"                ",
"                "};
