/* XPM */
static char *fileopen_xpm[] = {
/* width height num_colors chars_per_pixel */
"    16    16      128            2",
/* colors */
"`` c #000000",
"`. c #d6d7ca",
"`# c #8e927c",
"`a c #bcbeaa",
"`b c #c8cab5",
"`c c #d7d8cc",
"`d c #727563",
"`e c #a4a4a4",
"`f c #c3c5b1",
"`g c #c5c7b2",
"`h c #c1c3af",
"`i c #bbbda9",
"`j c #d0d1c4",
"`k c #676956",
"`l c #686a57",
"`m c #b9bba8",
"`n c #9fa18f",
"`o c #9ea08f",
"`p c #9fa18d",
"`q c #999b8a",
"`r c #999b88",
"`s c #9b9c8a",
"`t c #a1a48c",
"`u c #9c9e8b",
"`v c #a8ab97",
"`w c #a9aa97",
"`x c #a7a996",
"`y c #a2a39b",
"`z c #acae99",
"`A c #abac99",
"`B c #a5a695",
"`C c #a1a392",
"`D c #a3a491",
"`E c #a1a38f",
"`F c #a5a794",
"`G c #a4a594",
"`H c #a5a693",
"`I c #979987",
"`J c #737761",
"`K c #737660",
"`L c #747761",
"`M c #82846d",
"`N c #727262",
"`O c #727560",
"`P c #666958",
"`Q c #565848",
"`R c #666959",
"`S c #71735f",
"`T c #6f725d",
"`U c #919280",
"`V c #8f907f",
"`W c #939483",
"`X c #949684",
"`Y c #939484",
"`Z c #8e907f",
"`0 c #84866e",
"`1 c #83856d",
"`2 c #84876f",
"`3 c #8c8e7e",
"`4 c #8b8d7c",
"`5 c #acad9b",
"`6 c #bfc2ac",
"`7 c #bfc0ac",
"`8 c #bdc0ac",
".` c #aeaeae",
".. c #c0c1ad",
".# c #bfc1ad",
".a c #bbbeaa",
".b c #bcbea9",
".c c #babca9",
".d c #bdbfab",
".e c #bdbeab",
".f c #bcbfaa",
".g c #d1d3c6",
".h c #c1c2b8",
".i c #c9cbb6",
".j c #dbdccf",
".k c #d8d9cc",
".l c #d2d4c7",
".m c #c1c3b0",
".n c #babbaf",
".o c #c1c4ae",
".p c #c6c8b3",
".q c #b3b3b3",
".r c #c2c4b0",
".s c #babca7",
".t c #b3b4a1",
".u c #b2b4a0",
".v c #b2b49f",
".w c #b3b5a2",
".x c #b4b6a1",
".y c #b4b5a1",
".z c #afb09d",
".A c #aeaf9b",
".B c #adaf9b",
".C c #b1b29f",
".D c #b0b29d",
".E c #afb19d",
".F c #b8b9a6",
".G c #b8b9a5",
".H c #b7b9a5",
".I c #b9bba7",
".J c #b8b9a7",
".K c #b9baa6",
".L c #b6b8a3",
".M c #b5b7a3",
".N c #b5b6a3",
".O c #b6b8a5",
".P c #b5b6a4",
".Q c #b7b8a3",
".R c None",
".S c #000000",
".T c #000000",
".U c #000000",
".V c #000000",
".W c #000000",
".X c #000000",
".Y c #000000",
".Z c #000000",
".0 c #000000",
".1 c #000000",
".2 c #000000",
".3 c #000000",
".4 c #000000",
".5 c #000000",
".6 c #000000",
".7 c #000000",
".8 c #000000",
/* pixels */
".```````````.q.R.R.R.R.R.R.R.R.R",
"```#`#`#`#`P``.R.R.R.R.R.R.R.R.R",
"```t`2`0`1`M`````````````````e.R",
"```#`L`J`K`O`S`T`N`d`d`d`d`R``.R",
"```#`l`l`k`k`Q````````````````.R",
"```````````````y.k`..l.g`j.n``.R",
"```.`.`.`.`.`..j`f.m`8.a`m`B``.R",
"```j`b`b`b`b`a`a`a.#`a.c.J`G``.R",
"```c.i`b`g`f`h...d`a`m.F.P`C``.R",
"```c.p`g.r`h`7.e`i.I.O.N.t`o``.R",
"```c.o`6.f`i.K.G.M.w.C.z`5`q``.R",
"```c.b.s.H.Q.y.u.E.B`A`w`F`Y``.R",
"```c.L.x.v.D.A`z`v`x`H`D`n`Z``.R",
"``.h`E`p`u`s`r`I`X`W`U`V`3`4``.R",
"`e```````````````````````````e.R",
".R.R.R.R.R.R.R.R.R.R.R.R.R.R.R.R"
};
