/* XPM */
static char *filesaveas_xpm[] = {
/* width height num_colors chars_per_pixel */
"    16    16      128            2",
/* colors */
"`` c #000000",
"`. c #c2c3c4",
"`# c #8b8d8f",
"`a c #babcbe",
"`b c #808182",
"`c c #4e4f50",
"`d c #c5c5c5",
"`e c #6a6e73",
"`f c #d18f84",
"`g c #c77467",
"`h c #5c5d5e",
"`i c #d7d7d7",
"`j c #ababab",
"`k c #8e8e8e",
"`l c #5d6266",
"`m c #bbbbbb",
"`n c #cdcdcd",
"`o c #252627",
"`p c #efb44d",
"`q c #6d4f4d",
"`r c #644e4c",
"`s c #f7b544",
"`t c #f4b244",
"`u c #f7b545",
"`v c #404142",
"`w c #575c60",
"`x c #5a5b5c",
"`y c #656565",
"`z c #616263",
"`A c #52575b",
"`B c #e8e8e8",
"`C c #f2b64d",
"`D c #545454",
"`E c #525354",
"`F c #3f4040",
"`G c #2c2d2e",
"`H c #5c4f2b",
"`I c #655930",
"`J c #2e2e2e",
"`K c #222222",
"`L c #060606",
"`M c #ebebeb",
"`N c #1f1f1f",
"`O c #4f4115",
"`P c #625531",
"`Q c #3b3c3d",
"`R c #fce93b",
"`S c #665d3e",
"`T c #fceb3d",
"`U c #fbe73b",
"`V c #f6d236",
"`W c #6c5f34",
"`X c #f9df39",
"`Y c #363738",
"`Z c #b2b2b2",
"`0 c #b0b1b1",
"`1 c #b8b9b9",
"`2 c #b6b6b7",
"`3 c #afb0b0",
"`4 c #8a8c8e",
"`5 c #8a8b8c",
"`6 c #aeafaf",
"`7 c #dadadb",
"`8 c #b9b9b9",
".` c #cecece",
".. c #cbcbcb",
".# c #d2d3d4",
".a c #d0d0d0",
".b c #d4d4d4",
".c c #bfbfbf",
".d c #b8babc",
".e c #d6d6d6",
".f c #c2c2c2",
".g c #888a8c",
".h c #e6e6e6",
".i c #727272",
".j c #d7ae74",
".k c #737373",
".l c #6d6e6f",
".m c #c77568",
".n c #c77466",
".o c #62676b",
".p c #606569",
".q c #7b7c7e",
".r c #d19084",
".s c #dcdcdc",
".t c #86888a",
".u c #848586",
".v c #828384",
".w c #7e7f80",
".x c #7d7e7f",
".y c #dddddd",
".z c #7f8081",
".A c None",
".B c #000000",
".C c #000000",
".D c #000000",
".E c #000000",
".F c #000000",
".G c #000000",
".H c #000000",
".I c #000000",
".J c #000000",
".K c #000000",
".L c #000000",
".M c #000000",
".N c #000000",
".O c #000000",
".P c #000000",
".Q c #000000",
".R c #000000",
".S c #000000",
".T c #000000",
".U c #000000",
".V c #000000",
".W c #000000",
".X c #000000",
".Y c #000000",
".Z c #000000",
".0 c #000000",
".1 c #000000",
".2 c #000000",
".3 c #000000",
".4 c #000000",
".5 c #000000",
".6 c #000000",
".7 c #000000",
".8 c #000000",
/* pixels */
"`m`````````````````````````````j",
"``.#.d`q`f`f`f`f`f`f.r`f````.q``",
"```.`#`r.m`g`g`g`g.n`g```U`C````",
"```a`#`e`.`.`.`.`.`.```T`s`P````",
"```a`#`e`.`.`.`.`.```R`u`W```F``",
"```a`#`e`.`.`.`.```X`t`S``.l`c``",
"```a`#`e`.`.`.```V`p`H```e`b`c``",
"```a`#`e`.`.`.``.j`I```.`e`b`c``",
"```a`#`w.o.p```O`````l`l`A`b`c``",
"```a`#`#.g.z`````b`b.w.x`b`b`c``",
"```a`#`4`7`d`d.``M`i.s`1.i`b`c``",
"```a`#.u`d`d`o`Q.e`d`8`0`x`5`c``",
"```a.t`b`d`n`Y`h`d`d.c`6`h`k`c``",
"```y.v`b`n.h`G`z`d.f`Z`3`h`k`c``",
"`j```D`E.y`B`i`i.b...a`2`v.k`o``",
".A`j```J`L`````````````K`N`````m"
};
