/* XPM */
static char * first_t_xpm[] = {
"12 12 3 1",
" 	c None",
".	c #C0C0C0",
"+	c #000000",
"............",
"............",
"............",
"...++...+...",
"...++..++...",
"...++.+++...",
"...++++++...",
"...++.+++...",
"...++..++...",
"...++...+...",
"............",
"............"};
