/* XPM */
const char * folder_t_xpm[] = {
"16 16 6 1",
" 	c None s None",
".	c #808080",
"X	c #c0c0c0",
"o	c #ffff00",
"O	c black",
"#	c white",
"                ",
"   .....        ",
"  .XoXoX.       ",
" .XoXoXoX...... ",
" .############.O",
" .#oXoXoXoXoXo.O",
" .#XoXoXoXoXoX.O",
" .#oXoXoXoXoXo.O",
" .#XoXoXoXoXoX.O",
" .#oXoXoXoXoXo.O",
" .#XoXoXoXoXoX.O",
" .#oXoXoXoXoXo.O",
" ..............O",
"  OOOOOOOOOOOOOO",
"                ",
"                "};
