/* XPM */
static char *geoassembly[]={
"32 32 4 1",
". c None",
"b c #0000ff",
"# c #303030",
"a c #ff0000",
"................................",
"................................",
"..##...###..###.###.#...#.###...",
".#..#.#....#....#...##.##.#..#..",
".#..#..##...##..##..#.#.#.###...",
".####....#....#.#...#...#.#..#..",
".#..#.###..###..###.#...#.###...",
"................................",
"................................",
"................................",
"................................",
"................................",
"................................",
"................................",
"................................",
"...##..aaaaa........aaaaa..##...",
"...##..aaaaa........aaaaa..##...",
"...##......................##...",
"...##......................##...",
"...##......................##...",
"...##......bbbbbbbbbb......##...",
"...##......bbbbbbbbbb......##...",
"...##......................##...",
"...##......................##...",
"...##......................##...",
"...##..aaaaa........aaaaa..##...",
"...##..aaaaa........aaaaa..##...",
"................................",
"................................",
"................................",
"................................",
"................................"};
