/* XPM */
static char *box shape 16_xpm[] = {
/* width height num_colors chars_per_pixel */
"    16    16       32            1",
/* colors */
"` c None s None",
". c #a0a0a0",
"# c #787878",
"a c #989898",
"b c #6a6a6a",
"c c #919191",
"d c #bebebe",
"e c #f0f0f0",
"f c #828282",
"g c #707070",
"h c #888888",
"i c #c3c3c3",
"j c #e3e3e3",
"k c #a8a8a8",
"l c #c8c8c8",
"m c #dfdfdf",
"n c #d0d0d0",
"o c #e9e9e9",
"p c #b3b3b3",
"q c #000000",
"r c #000000",
"s c #000000",
"t c #000000",
"u c #000000",
"v c #000000",
"w c #000000",
"x c #000000",
"y c #000000",
"z c #000000",
"A c #000000",
"B c #000000",
"C c #000000",
/* pixels */
"```````e````````",
"```id.ac.n``````",
"```fb##f##hdo```",
"```cg##ffhhhk```",
"```.g##ca..ad```",
"```kb##a...ci```",
"```db##a...cl```",
"```ib##.a..am```",
"```mb##a...aj```",
"```jg#ga.a..e```",
"```e#g#a....````",
"````ib#a..ap````",
"`````.ba..cd````",
"`````efcaade````",
"``````nale``````",
"````````````````"
};
