/* XPM */
static char *geocomposite_s[]={
"32 32 71 2",
"Qt c None",
"#. c #414141",
".5 c #474747",
".7 c #4b4b4b",
".Z c #595959",
".Q c #5d5d5d",
".b c #646464",
".G c #656565",
".9 c #666666",
"#e c #686868",
"#b c #696969",
".J c #6a6a6a",
".a c #6d6d6d",
".U c #6e6e6e",
".# c #717171",
".H c #727272",
".I c #737373",
".1 c #757575",
"#d c #787878",
"#a c #7a7a7a",
".8 c #7b7b7b",
"## c #7c7c7c",
".C c #7e7e7e",
".3 c #7f7f7f",
".h c #808080",
".B c #818181",
".6 c #838383",
".Y c #848484",
".c c #858585",
".T c #878787",
".s c #898989",
".N c #8a8a8a",
".t c #8c8c8c",
".g c #8d8d8d",
".M c #909090",
".L c #919191",
"#c c #929292",
".i c #949494",
".d c #959595",
".X c #969696",
".2 c #979797",
".R c #999999",
".f c #9a9a9a",
".u c #9b9b9b",
".4 c #9d9d9d",
".e c #9e9e9e",
".j c #9f9f9f",
".0 c #a0a0a0",
".A c #a2a2a2",
".S c #a3a3a3",
".r c #a4a4a4",
".v c #a6a6a6",
".k c #a7a7a7",
".W c #a8a8a8",
".z c #aaaaaa",
".q c #ababab",
".l c #acacac",
".V c #adadad",
".p c #afafaf",
".m c #b0b0b0",
".n c #b1b1b1",
".o c #b3b3b3",
".y c #b4b4b4",
".w c #b5b5b5",
".x c #b6b6b6",
".F c #b8b8b8",
".D c #b9b9b9",
".E c #bababa",
".P c #bcbcbc",
".K c #bdbdbd",
".O c #bebebe",
"QtQtQtQtQtQtQtQtQtQtQtQtQtQtQtQtQtQtQtQtQtQtQtQtQtQtQtQtQtQtQtQt",
"QtQtQtQtQtQtQtQtQtQtQtQtQtQtQtQtQtQtQtQtQtQtQtQtQtQtQtQtQtQtQtQt",
"QtQtQtQtQtQtQtQtQtQtQtQtQtQtQtQtQtQtQtQtQtQtQtQtQtQtQtQtQtQtQtQt",
"QtQtQtQtQtQtQtQtQtQtQtQtQtQtQtQtQtQtQtQtQtQtQtQtQtQtQtQtQtQtQtQt",
"QtQtQtQtQtQtQtQtQtQtQtQtQtQtQtQtQtQtQtQtQtQtQtQtQtQtQtQtQtQtQtQt",
"QtQtQtQtQtQtQtQtQtQtQtQtQtQtQtQtQtQtQtQtQtQtQtQtQtQtQtQtQtQtQtQt",
"QtQtQtQtQtQtQtQtQtQtQtQtQtQt.#.#.#.#.#.#.#.#QtQtQtQtQtQtQtQtQtQt",
"QtQtQtQtQtQtQtQtQtQtQtQt.a.#.#.#.#.#.#.#.#.#.#.#QtQtQtQtQtQtQtQt",
"QtQtQtQtQtQtQtQtQtQtQt.b.c.d.e.#.#.#.#.#.#.#.f.g.#QtQtQtQtQtQtQt",
"QtQtQtQtQtQtQtQtQtQtQt.h.i.j.k.l.m.n.o.n.p.q.r.f.sQtQtQtQtQtQtQt",
"QtQtQtQtQtQtQtQtQtQt.a.t.u.v.l.n.w.x.x.x.y.m.z.A.d.BQtQtQtQtQtQt",
"QtQtQtQtQtQtQtQtQtQt.C.j.j.j.j.w.D.E.E.E.F.y.p.k.B.BQtQtQtQtQtQt",
"QtQtQtQtQtQtQtQtQt.G.H.I.J.j.j.j.E.K.K.K.E.x.n.B.B.BQtQtQtQtQtQt",
"QtQtQtQtQtQtQtQt.h.t.L.M.N.h.J.j.j.O.O.O.P.D.y.B.B.BQtQtQtQtQtQt",
"QtQtQtQtQtQt.Q.N.R.j.S.A.e.d.T.U.j.j.O.O.K.D.B.B.B.BQtQtQtQtQtQt",
"QtQtQtQtQtQt.T.u.v.q.V.l.W.A.X.Y.Z.j.O.O.P.D.B.B.B.BQtQtQtQtQtQt",
"QtQtQtQtQt.#.X.v.p.y.w.w.n.q.0.L.1.j.K.K.E.x.B.B.B.BQtQtQtQtQtQt",
"QtQtQtQtQt.Y.j.l.w.D.E.D.x.m.v.2.3.j.j.E.F.y.B.B.B.BQtQtQtQtQtQt",
"QtQtQtQtQt.t.S.m.F.K.O.K.D.o.z.4.c.5.j.x.y.m.B.B.B.BQtQtQtQtQtQt",
"QtQtQtQtQt.t.6.n.D.K.O.O.E.y.q.4.T.7.j.n.p.q.B.B.BQtQtQtQtQtQtQt",
"QtQtQtQtQt.T.8.9#..K.O.K.D.o.z.u.6.j.j.q.W.r.B.B.BQtQtQtQtQtQtQt",
"QtQtQtQtQt##.H.Z#..D.E.E.x.m.v.X#a.j.S.A.j.R.B.BQtQtQtQtQtQtQtQt",
"QtQtQtQtQtQt#b.9.a.y.w.y.m.z.e.g.9.j.R.X#c.N.BQtQtQtQtQtQtQtQtQt",
"QtQtQtQtQtQt#d.6.s.q.l.l.k.j#c.8.B.c.c.6###eQtQtQtQtQtQtQtQtQtQt",
"QtQtQtQtQtQtQt###c.4.j.j.f.M##QtQtQtQtQtQtQtQtQtQtQtQtQtQtQtQtQt",
"QtQtQtQtQtQtQtQtQt.3.T.T.C#eQtQtQtQtQtQtQtQtQtQtQtQtQtQtQtQtQtQt",
"QtQtQtQtQtQtQtQtQtQtQtQtQtQtQtQtQtQtQtQtQtQtQtQtQtQtQtQtQtQtQtQt",
"QtQtQtQtQtQtQtQtQtQtQtQtQtQtQtQtQtQtQtQtQtQtQtQtQtQtQtQtQtQtQtQt",
"QtQtQtQtQtQtQtQtQtQtQtQtQtQtQtQtQtQtQtQtQtQtQtQtQtQtQtQtQtQtQtQt",
"QtQtQtQtQtQtQtQtQtQtQtQtQtQtQtQtQtQtQtQtQtQtQtQtQtQtQtQtQtQtQtQt",
"QtQtQtQtQtQtQtQtQtQtQtQtQtQtQtQtQtQtQtQtQtQtQtQtQtQtQtQtQtQtQtQt",
"QtQtQtQtQtQtQtQtQtQtQtQtQtQtQtQtQtQtQtQtQtQtQtQtQtQtQtQtQtQtQtQt"};
