/* XPM */
static char *geocomposite_t[]={
"16 16 56 1",
". c None",
"0 c #7d7d7d",
"W c #818181",
"# c #6f6f6f",
"b c #717171",
"c c #727272",
"E c #7a7a7a",
"j c #7d7d7d",
"Q c #818181",
"J c #8c8c8c",
"s c #7b7b7b",
"P c #818181",
"1 c #8f8f8f",
"M c #676767",
"R c #6a6a6a",
"a c #717171",
"X c #727272",
"S c #7e7e7e",
"Z c #808080",
"t c #818181",
"x c #828282",
"A c #838383",
"u c #848484",
"k c #858585",
"r c #868686",
"I c #8c8c8c",
"B c #8d8d8d",
"V c #8e8e8e",
"h c #8f8f8f",
"f c #909090",
"g c #919191",
"d c #939393",
"Y c #959595",
"e c #989898",
"i c #999999",
"H c #9b9b9b",
"l c #9f9f9f",
"U c #a0a0a0",
"F c #a1a1a1",
"y c #a2a2a2",
"L c #a3a3a3",
"z c #a7a7a7",
"q c #a8a8a8",
"N c #a9a9a9",
"m c #acacac",
"O c #afafaf",
"G c #b0b0b0",
"p c #b4b4b4",
"K c #b6b6b6",
"n c #b7b7b7",
"o c #b8b8b8",
"w c #b9b9b9",
"D c #bababa",
"T c #bbbbbb",
"v c #bdbdbd",
"C c #bebebe",
"................",
"................",
"................",
"......#aaaab....",
".....cdefghij...",
".....klmnopqr...",
"....stugpvwit...",
"...xyzlABCDtt...",
"..EFpnGHIpntt...",
"..JFDvKLMNOtP...",
"..QRSTpUVLUtW...",
"...XYGzVxBZW....",
"...01du0........",
"................",
"................",
"................"};
