/* XPM */
static char *ctub shape 32_xpm[] = {
/* width height num_colors chars_per_pixel */
"    32    32       32            1",
/* colors */
"` c None s None",
". c #888888",
"# c #909090",
"a c #808080",
"b c #989898",
"c c #787878",
"d c #686868",
"e c #606060",
"f c #707070",
"g c #f0f0f0",
"h c #e1e1e1",
"i c #eaeaea",
"j c #d0d0d0",
"k c #a1a1a1",
"l c #a8a8a8",
"m c #c0c0c0",
"n c #b1b1b1",
"o c #d9d9d9",
"p c #bababa",
"q c #595959",
"r c #cccccc",
"s c #000000",
"t c #000000",
"u c #000000",
"v c #000000",
"w c #000000",
"x c #000000",
"y c #000000",
"z c #000000",
"A c #000000",
"B c #000000",
"C c #000000",
/* pixels */
"````````````````````````````````",
"`````````hhhohh`````````````````",
"`````gpb.cfcccc.#kmh````````````",
"````gafcffca##b##.cc.lh`````````",
"````mfaaeeca.#bbb##.cfcbh```````",
"````jfcadeca.#bb###acdfcco``````",
"````idccacca.#bb#b..ceqafai`````",
"`````cfaaccca.bbb#.acea.aci`````",
"`````.fa..aadcb#b#..fea##.g`````",
"`````kda..#befbbb##afea#.k``````",
"`````pdaa.#bdfbbb#.afd##.l``````",
"`````rda...bdebbb#.afe.#am``````",
"`````ifca.#bdebb##.add##.j``````",
"`````gcc...bdebbb#.adf##.h``````",
"``````.fa.#bceb#b#.add#.#g``````",
"``````kfa..bcebbb#.aec#.b```````",
"``````pda.##ce###.aaecb.l```````",
"``````jda..bcenjjjlcea#.m```````",
"``````ida..bfc`````oe.#aj```````",
"```````cc..bac``````na#.i```````",
"```````#f..#.qg`````h.##g```````",
"```````kd..#.eg`````h..k````````",
"```````md..#.ei`````ha.l````````",
"```````rda.#.eg`````il#j````````",
"```````ida.##eg`````````````````",
"````````cc.##dg`````````````````",
"````````kf.##di`````````````````",
"````````hca##dg`````````````````",
"`````````ja..a``````````````````",
"``````````in.n``````````````````",
"````````````g```````````````````",
"````````````````````````````````"
};
