/* XPM */
static char *ctub shape 16_xpm[] = {
/* width height num_colors chars_per_pixel */
"    16    16       32            1",
/* colors */
"` c None s None",
". c #888888",
"# c #909090",
"a c #707070",
"b c #989898",
"c c #808080",
"d c #787878",
"e c #e8e8e8",
"f c #686868",
"g c #c0c0c0",
"h c #a8a8a8",
"i c #f1f1f1",
"j c #c7c7c7",
"k c #b8b8b8",
"l c #e3e3e3",
"m c #b0b0b0",
"n c #a7a7a7",
"o c #dddddd",
"p c #000000",
"q c #000000",
"r c #000000",
"s c #000000",
"t c #000000",
"u c #000000",
"v c #000000",
"w c #000000",
"x c #000000",
"y c #000000",
"z c #000000",
"A c #000000",
"B c #000000",
"C c #000000",
/* pixels */
"````````````````",
"```m##bnhge`````",
"``gffa.##cabe```",
"``jadd#bb.ffb```",
"``la..ab#.a.b```",
"``id.#a#bcf.k```",
"```.c#f#bca.g```",
"```bdba.#ca.o```",
"```md#ahk.a#e```",
"```ja#c``i.#````",
"```ld#de``hb````",
"```ec.ce``kg````",
"````..ce````````",
"````gdci````````",
"`````jh`````````",
"````````````````"
};
