/* XPM */
static char *eltu shape 32_xpm[] = {
/* width height num_colors chars_per_pixel */
"    32    32       32            1",
/* colors */
"` c None s None",
". c #a8a8a8",
"# c #a0a0a0",
"a c #888888",
"b c #909090",
"c c #989898",
"d c #808080",
"e c #787878",
"f c #707070",
"g c #484848",
"h c #b0b0b0",
"i c #d8d8d8",
"j c #686868",
"k c #606060",
"l c #bdbdbd",
"m c #c8c8c8",
"n c #585858",
"o c #ebebeb",
"p c #525252",
"q c #d3d3d3",
"r c #f1f1f1",
"s c #e0e0e0",
"t c #c1c1c1",
"u c #414141",
"v c #000000",
"w c #000000",
"x c #000000",
"y c #000000",
"z c #000000",
"A c #000000",
"B c #000000",
"C c #000000",
/* pixels */
"````````````````````````````````",
"````````````````````simmm```````",
"```````````````sthcbdaddfh``````",
"```````````rm.bddddaaaadgl``````",
"`````````q#addaaaaaaadejul``````",
"```````ibddaadaaabbbadfjgs``````",
"``````raaabbb##.##ccadfjgs``````",
"```````bc#..h...##cbadfknr``````",
"```````cc##.....##cbadfnk```````",
"```````.b##.....##cbadfnj```````",
"```````hb##.....##cbadfpd```````",
"```````ma##.....##cbaefpd```````",
"```````qa##.....##cbadfg#```````",
"```````sa##.....##cbaefgh```````",
"```````obc#.....##cbaefgl```````",
"````````cc#.....##cbaejgi```````",
"````````cb#.....##cbdejgq```````",
"````````.b#.....#ccbaekpr```````",
"````````hb#.....##cbdekn````````",
"````````ta##....##cbaenk````````",
"````````qa#.....##cbdepe````````",
"````````ia##.....ccbdene````````",
"````````ob##....##cbdepb````````",
"````````rbc......ccbdegl````````",
"`````````#c#....##cbdkd`````````",
"`````````#c#....##cbec``````````",
"`````````lb#.....#bat```````````",
"`````````lb#....#c.o````````````",
"`````````qa#..#.hi``````````````",
"`````````iac#hmo````````````````",
"``````````oio```````````````````",
"````````````````````````````````"
};
