/* XPM */
static char *hype shape 32_xpm[] = {
/* width height num_colors chars_per_pixel */
"    32    32       32            1",
/* colors */
"` c None s None",
". c #b8b8b8",
"# c #b0b0b0",
"a c #a8a8a8",
"b c #c0c0c0",
"c c #989898",
"d c #707070",
"e c #686868",
"f c #888888",
"g c #909090",
"h c #a0a0a0",
"i c #808080",
"j c #787878",
"k c #606060",
"l c #f0f0f0",
"m c #d8d8d8",
"n c #e9e9e9",
"o c #e0e0e0",
"p c #585858",
"q c #d0d0d0",
"r c #525252",
"s c #4a4a4a",
"t c #c8c8c8",
"u c #000000",
"v c #000000",
"w c #000000",
"x c #000000",
"y c #000000",
"z c #000000",
"A c #000000",
"B c #000000",
"C c #000000",
/* pixels */
"````````````````````````````````",
"````````````llommnll````````````",
"```````lqb##a######a##bm````````",
"`````oagcha#...bb...#ahgg.l`````",
"````bjighha##..b...##ahcgiim````",
"```mejifcca##......#ahcgfidil```",
"```bekjifcha#..b...aahcfidkdo```",
"```lfrkdigcaa..b...ahcfieppa````",
"````lckedigha#....#acgjdek.`````",
"``````ckdjfga#bbb.#hgijde#``````",
"```````aseeddjffffdjeekrt```````",
"````````askkkekekekekprq````````",
"`````````apeeededeeeepq`````````",
"``````````gpddddddddp.``````````",
"``````````mkjjjjjjjddl``````````",
"``````````meifffffijj```````````",
"``````````.dgccchccfdo``````````",
"`````````ojfcaaa#aacif``````````",
"````````neica#....#hgdi`````````",
"```````oedgha#.b..#acgef````````",
"``````nedfca#..bb..#hcfki```````",
"``````iefgha#..bb..#acgik#``````",
"`````mefgcaa..bb.b.#ahcfidl`````",
"`````bjfcha#....b..##ahgfjn`````",
"`````qiccaa#...bb...#ahcgfn`````",
"`````lgcha##..b.b...#aahga``````",
"``````qgaa##..b.b...##ahgo``````",
"```````tha#...b.b...##aam```````",
"````````n.##..b.b...##bl````````",
"``````````oqbb.....bql``````````",
"``````````````lnnl``````````````",
"````````````````````````````````"
};
