/* XPM */
static char *geomixture_t[]={
"16 16 12 1",
". c None",
"g c #808080",
"d c #ffff01",
"a c #000000",
"j c #bfbf40",
"# c #000000",
"b c #2b2b2b",
"c c #555500",
"f c #808080",
"h c #aaaa55",
"e c #ffff00",
"i c #dfdf20",
"................",
"................",
"..#aabacabaac#..",
"..a.d..edfgdea..",
"..ade.gf.g.gfa..",
"..bf...g.fg.ga..",
"..ag.fg.d.g.da..",
"..ad.g..edfhia..",
"..aed.g....gga..",
"..a...fg.fgfga..",
"..agf..d.g...a..",
"..a.g.je.g.eda..",
"..bdg.fggf.d.a..",
"..#aaaaaaaaaa#..",
"................",
"................"};
