/* XPM */
static char *geomaterial_t[]={
"16 16 7 1",
". c None",
"c c #808080",
"a c #000000",
"e c #808080",
"# c #000000",
"b c #2b2b2b",
"d c #808080",
"................",
"................",
"..#aabaaabaab#..",
"..a.c....dc..a..",
"..acd.cd.c.cda..",
"..bd...c.dc.ca..",
"..ac.dc.c.c..a..",
"..ac.c..dcdeda..",
"..adc.c....cca..",
"..a...dc.dcdca..",
"..acd..c.c...a..",
"..a.c.ed.c.dca..",
"..b.c.dccd.c.a..",
"..#aaaaaaaaaa#..",
"................",
"................"};
