/* XPM */
static char *geomixture_s[]={
"32 32 4 1",
". c None",
"# c #000000",
"a c #808080",
"b c #ffff00",
"................................",
"................................",
"................................",
"................................",
"....########################....",
"....#......a...b...a....b..#....",
"....#.........bbb.aaa..bbb.#....",
"....#...b......b...a....b..#....",
"....#..bbb....a.........a..#....",
"....#...b....aaa...a...aaa.#....",
"....#.a.......a...aaa...a..#....",
"....#aaa...........a.......#....",
"....#.a....a...............#....",
"....#.....aaa....b...a..b..#....",
"....#......a....bbb.aaabbb.#....",
"....#..b.........b...a.aba.#....",
"....#.bbb...............a..#....",
"....#..b.....a.........a...#....",
"....#.......aaa....a..aaa..#....",
"....#........a....aaa..a...#....",
"....#...a..........a.......#....",
"....#..aaa....b............#....",
"....#...a....bbb.......b...#....",
"....#........ab...a...bbb..#....",
"....#..b....aaa..aaa...b...#....",
"....#a..a....a....a........#....",
"....#......................#....",
"....########################....",
"................................",
"................................",
"................................",
"................................"};
