/* XPM */
static char *geomaterial_s[]={
"32 32 3 1",
". c None",
"# c #000000",
"a c #808080",
"................................",
"................................",
"................................",
"................................",
"....########################....",
"....#......a.......a....a..#....",
"....#.............aaa......#....",
"....#...a..........a.......#....",
"....#..aaa....a.........a..#....",
"....#...a....aaa...a...aaa.#....",
"....#.a.......a...aaa...a..#....",
"....#aaa...........a.......#....",
"....#.a....a...............#....",
"....#.....aaa....a...a.....#....",
"....#......a....aaa.aaa.a..#....",
"....#..a.........a...a.aaa.#....",
"....#.aaa...............a..#....",
"....#..a.....a.........a...#....",
"....#.......aaa....a..aaa..#....",
"....#........a....aaa..a...#....",
"....#...a..........a.......#....",
"....#..aaa....a............#....",
"....#...a....aaa.......a...#....",
"....#........aa...a...aaa..#....",
"....#.......aaa..aaa...a...#....",
"....#a..a....a....a........#....",
"....#......................#....",
"....########################....",
"................................",
"................................",
"................................",
"................................"};
