/* XPM */
static char *pcon shape 32_xpm[] = {
/* width height num_colors chars_per_pixel */
"    32    32       32            1",
/* colors */
"` c None s None",
". c #989898",
"# c #b0b0b0",
"a c #a0a0a0",
"b c #909090",
"c c #888888",
"d c #b9b9b9",
"e c #a8a8a8",
"f c #c0c0c0",
"g c #787878",
"h c #808080",
"i c #707070",
"j c #dbdbdb",
"k c #f0f0f0",
"l c #e8e8e8",
"m c #626262",
"n c #e0e0e0",
"o c #686868",
"p c #d2d2d2",
"q c #5a5a5a",
"r c #000000",
"s c #000000",
"t c #000000",
"u c #000000",
"v c #000000",
"w c #000000",
"x c #000000",
"y c #000000",
"z c #000000",
"A c #000000",
"B c #000000",
"C c #000000",
/* pixels */
"````````````````````````````````",
"`````````````kjjjjk`````````````",
"```````nfa.baa..b.aabbafn```````",
"``````.omohaa#dddd#e.hmmo.``````",
"`````jmgoohbae##d#ea.chigmp`````",
"`````jg.bbbhbhadd##a.cb..gj`````",
"`````fg.ae#dfb.d###a.hb..gf`````",
"`````eg.aee#dbadd##a.cb..ge`````",
"`````dg.ae##fcadd##a.c...g#`````",
"`````.h.ae##fiad###abc...h.`````",
"`````cc.ae##fiadd##abc..bcc`````",
"`````cc.ae##fg.dd#eebc...cb`````",
"````lgc.a###ficd###a.c..bbil````",
"````lgb.ee##fihf###abc...bgl````",
"````ngb.ee##ficdd##abc.b.bgj````",
"````fibaa###fihf##eabc....if````",
"````pi.aae#dficdd##abb...bgf````",
"````agbae###ficdd#eabc...bha````",
"````eg.aee##fihf###abc..b.ge````",
"````lhbae###ficdd#eabc...bhk````",
"`````laaee#ddqcd###abc.bhen`````",
"``````kba##d#mbdd#e.cc.bg```````",
"```````ccae##c#``knfbcacb```````",
"```````cc.aed.d`````ka.cc```````",
"```````cc.ae#.d``````#bcc```````",
"```````hc.aed.d``````#bcc```````",
"```````eh.ae#.d``````#.ha```````",
"```````nbbee#.d``````dcbl```````",
"````````ka.ad.#```````jl````````",
"``````````pf#.j`````````````````",
"`````````````k``````````````````",
"````````````````````````````````"
};
