/* XPM */
static char *parab shape 16_xpm[] = {
/* width height num_colors chars_per_pixel */
"    16    16       32            1",
/* colors */
"` c None s None",
". c #989898",
"# c #808080",
"a c #787878",
"b c #909090",
"c c #a0a0a0",
"d c #888888",
"e c #b0b0b0",
"f c #cacaca",
"g c #e0e0e0",
"h c #737373",
"i c #dadada",
"j c #a9a9a9",
"k c #e9e9e9",
"l c #f2f2f2",
"m c #bbbbbb",
"n c #c5c5c5",
"o c #d1d1d1",
"p c #000000",
"q c #000000",
"r c #000000",
"s c #000000",
"t c #000000",
"u c #000000",
"v c #000000",
"w c #000000",
"x c #000000",
"y c #000000",
"z c #000000",
"A c #000000",
"B c #000000",
"C c #000000",
/* pixels */
"````````````````",
"```kfmecceno````",
"``e#aaaaaaha#f``",
"`gh#########ad``",
"``ba###a####aj``",
"``eab.....bbhi``",
"``gab..cc..d#```",
"```d#..c...aj```",
"```ma...c.bai```",
"```kab....#b````",
"````j#....af````",
"````gab..dd`````",
"`````c#..af`````",
"`````l#d#c``````",
"``````ibcl``````",
"````````````````"
};
