/* XPM */
static char *parab shape 32_xpm[] = {
/* width height num_colors chars_per_pixel */
"    32    32       32            1",
/* colors */
"` c None s None",
". c #808080",
"# c #989898",
"a c #909090",
"b c #888888",
"c c #787878",
"d c #a0a0a0",
"e c #686868",
"f c #717171",
"g c #b0b0b0",
"h c #e0e0e0",
"i c #d0d0d0",
"j c #c0c0c0",
"k c #d9d9d9",
"l c #e8e8e8",
"m c #a8a8a8",
"n c #f4f4f4",
"o c #cccccc",
"p c #bbbbbb",
"q c #000000",
"r c #000000",
"s c #000000",
"t c #000000",
"u c #000000",
"v c #000000",
"w c #000000",
"x c #000000",
"y c #000000",
"z c #000000",
"A c #000000",
"B c #000000",
"C c #000000",
/* pixels */
"````````````````````````````````",
"````````````````````````````````",
"````````lkjggaaa#adgpih`````````",
"`````hgaccccc.c.ccccfccbdi``````",
"````mccc...............cccbh````",
"```gf.....................c.n```",
"```a.......................ck```",
"```gf.c.........c...........````",
"```he....c.c.......c.c.c..ed````",
"````.c.bbb....c.c....bbbb.ei````",
"````ge.ba#############aa.cc`````",
"````he.baa###dddddd###ab.ed`````",
"`````.c.aaa##dd#d####aab.ei`````",
"`````mebba####d#ddd##abbcc``````",
"`````he.baa##dd#d####abbed``````",
"``````.fbaa###d#dd###ab.ek``````",
"``````jebba###d#d###aabc.```````",
"``````le.ba####dd###abbeg```````",
"```````#fbb#a#d#d###ab.fl```````",
"```````if.aa###d###aabf#````````",
"````````bcba#######abbek````````",
"````````jebaa######abcb`````````",
"`````````.caa#####aabei`````````",
"`````````jfbaa###aaacb``````````",
"``````````..ba#a#aabfo``````````",
"``````````jfba#a#aacb```````````",
"```````````bcaaaaabfi```````````",
"```````````hc.aaabfg````````````",
"````````````jf.abfa`````````````",
"`````````````j.ccd``````````````",
"```````````````hl```````````````",
"````````````````````````````````"
};
