/* XPM */
static char *pgon shape 32_xpm[] = {
/* width height num_colors chars_per_pixel */
"    32    32       32            1",
/* colors */
"` c None s None",
". c #888888",
"# c #c0c0c0",
"a c #b8b8b8",
"b c #909090",
"c c #a0a0a0",
"d c #a8a8a8",
"e c #808080",
"f c #999999",
"g c #f0f0f0",
"h c #d0d0d0",
"i c #787878",
"j c #b1b1b1",
"k c #e1e1e1",
"l c #727272",
"m c #525252",
"n c #606060",
"o c #eaeaea",
"p c #595959",
"q c #d8d8d8",
"r c #696969",
"s c #000000",
"t c #000000",
"u c #000000",
"v c #000000",
"w c #000000",
"x c #000000",
"y c #000000",
"z c #000000",
"A c #000000",
"B c #000000",
"C c #000000",
/* pixels */
"````````````````````````````````",
"````````````````````````````````",
"````````````````````````````````",
"````````````````````````````````",
"````````````````````````````````",
"````````oca##########jdg````````",
"```````#.ec#aa#aaaaa#fi.h```````",
"`````gce..ba#a####a#a...ej``````",
"````h.eb...d#a#a#aa#c....ebh````",
"``gji.b....f#a#a###ab......edg``",
"``al.b...b..j#a##a#d.........a``",
"```h.i.b....f##a#a#b......bck```",
"````gdieb....aaa##je.....f#g````",
"``````h.l.b..c##a#f.....jo``````",
"````````dli..bddddb..efh````````",
"`````````qelebdccceebag`````````",
"```````````lppcccdinc```````````",
"``````````kb.nlccdime```````````",
"``````````hbffifcdemio``````````",
"``````````#bbfbkggknrk``````````",
"``````````abfbbg```#mh``````````",
"``````````cbbfbg````ca``````````",
"``````````j.fbd``````q``````````",
"```````````#bbj`````````````````",
"````````````kfc`````````````````",
"`````````````gh`````````````````",
"````````````````````````````````",
"````````````````````````````````",
"````````````````````````````````",
"````````````````````````````````",
"````````````````````````````````",
"````````````````````````````````"
};
