/* XPM */
static char *para shape 32_xpm[] = {
/* width height num_colors chars_per_pixel */
"    32    32       32            1",
/* colors */
"` c None s None",
". c #989898",
"# c #a1a1a1",
"a c #808080",
"b c #787878",
"c c #909090",
"d c #585858",
"e c #707070",
"f c #616161",
"g c #e8e8e8",
"h c #c9c9c9",
"i c #888888",
"j c #686868",
"k c #c0c0c0",
"l c #e0e0e0",
"m c #f0f0f0",
"n c #b2b2b2",
"o c #a8a8a8",
"p c #d8d8d8",
"q c #bbbbbb",
"r c #d2d2d2",
"s c #000000",
"t c #000000",
"u c #000000",
"v c #000000",
"w c #000000",
"x c #000000",
"y c #000000",
"z c #000000",
"A c #000000",
"B c #000000",
"C c #000000",
/* pixels */
"````````````````````````````````",
"````````````````````````````````",
"``````````````mrq#g`````````````",
"```````````lo.aebei`````````````",
"```````````qjbaaaab.````````````",
"```````````njaabaaaen```````````",
"```````````.faaaaabaeh``````````",
"```````````cdababaacck``````````",
"```````````.deaacc.#ch``````````",
"```````````ide..##...p``````````",
"```````````bde#....#.l``````````",
"```````````bda#......m``````````",
"```````````eda#..#..o```````````",
"``````````gffa#..#..o```````````",
"``````````gffi..#.#cq```````````",
"``````````lffi##.#..k```````````",
"``````````rdfc..#.#cr```````````",
"``````````hdj...#.#cp```````````",
"``````````hdfc#...#.l```````````",
"``````````qde..#.#..m```````````",
"``````````kde..#...#````````````",
"``````````pdj#..#..o````````````",
"``````````gfb#..#..n````````````",
"```````````je#..#.ck````````````",
"```````````ab#...#ch````````````",
"```````````.b#.#...l````````````",
"```````````nb#...og`````````````",
"```````````ka#..h```````````````",
"```````````pi.ng````````````````",
"```````````m.r``````````````````",
"````````````m```````````````````",
"````````````````````````````````"
};
