/* XPM */
static char *Sphere shape 32_xpm[] = {
/* width height num_colors chars_per_pixel */
"    32    32       32            1",
/* colors */
"` c None s None",
". c #b0b0b0",
"# c #a8a8a8",
"a c #a0a0a0",
"b c #808080",
"c c #989898",
"d c #909090",
"e c #888888",
"f c #b8b8b8",
"g c #c0c0c0",
"h c #787878",
"i c #f0f0f0",
"j c #686868",
"k c #c8c8c8",
"l c #d4d4d4",
"m c #e8e8e8",
"n c #717171",
"o c #e0e0e0",
"p c #595959",
"q c #515151",
"r c #dfdfdf",
"s c #606060",
"t c #000000",
"u c #000000",
"v c #000000",
"w c #000000",
"x c #000000",
"y c #000000",
"z c #000000",
"A c #000000",
"B c #000000",
"C c #000000",
/* pixels */
"````````````````````````````````",
"````````````````````````````````",
"````````````````````````````````",
"`````````````mrlgggkggggrm``````",
"``````````og##aa#.....###aa`````",
"````````o#cca#..#aaaa###.abi````",
"```````ledcaadebbbbebbbbebbi````",
"``````obeecejjhbeddccdeehhbi````",
"``````chbehpjbedcaaaaacddbbi````",
"`````ojhhhqjbecca#####aadebi````",
"`````fjjnjphbdc##.....#aaebi````",
"`````dbjsjjbdca#..fff..##ec`````",
"````ibecjqsecc#.fffgfff.#b#`````",
"````mhdcabppba...fffff..#hl`````",
"````ibeca.#ejne#lmimimlkahi`````",
"````mbecaa.ff.cd#al`````ii``````",
"````iheca##..fgggcg`````````````",
"`````dbcaa#...ffkdk`````````````",
"`````abdca#...ffgdk`````````````",
"`````khdca##...fgdk`````````````",
"``````bedaa##...gdk`````````````",
"``````fhdcaa#...fdk`````````````",
"```````bbdca###.fek`````````````",
"```````lnddcaa##fek`````````````",
"````````.hddcaa#.bg`````````````",
"`````````.nedcca#bg`````````````",
"``````````ghbdccahk`````````````",
"```````````o#bhbdnl`````````````",
"`````````````mg#dei`````````````",
"`````````````````i``````````````",
"````````````````````````````````",
"````````````````````````````````"
};
