/* XPM */
static char *tubeseg shape 16_xpm[] = {
/* width height num_colors chars_per_pixel */
"    16    16       32            1",
/* colors */
"` c None s None",
". c #a8a8a8",
"# c #989898",
"a c #a0a0a0",
"b c #808080",
"c c #b0b0b0",
"d c #909090",
"e c #888888",
"f c #b8b8b8",
"g c #717171",
"h c #e1e1e1",
"i c #e8e8e8",
"j c #d2d2d2",
"k c #f1f1f1",
"l c #c0c0c0",
"m c #c9c9c9",
"n c #dadada",
"o c #7b7b7b",
"p c #000000",
"q c #000000",
"r c #000000",
"s c #000000",
"t c #000000",
"u c #000000",
"v c #000000",
"w c #000000",
"x c #000000",
"y c #000000",
"z c #000000",
"A c #000000",
"B c #000000",
"C c #000000",
/* pixels */
"````````````````",
"````hfccccfi````",
"```fgg#..dggl```",
"```#ob#a.#bd.```",
"```.e#dd.#b#f```",
"```cea.c.db#m```",
"```lba...db#j```",
"```jba...db#h```",
"```hbaa..de#i```",
"```iba..aeea````",
"````e#..m#b.````",
"````d#.c``a.````",
"````#d.c``cc````",
"````jeac``kk````",
"`````nff````````",
"````````````````"
};
