/* XPM */
static char *tubeseg shape 32_xpm[] = {
/* width height num_colors chars_per_pixel */
"    32    32       32            1",
/* colors */
"` c None s None",
". c #a8a8a8",
"# c #a0a0a0",
"a c #989898",
"b c #909090",
"c c #888888",
"d c #787878",
"e c #b0b0b0",
"f c #808080",
"g c #707070",
"h c #f0f0f0",
"i c #d9d9d9",
"j c #d0d0d0",
"k c #e8e8e8",
"l c #c0c0c0",
"m c #c8c8c8",
"n c #e0e0e0",
"o c #6a6a6a",
"p c #bababa",
"q c #000000",
"r c #000000",
"s c #000000",
"t c #000000",
"u c #000000",
"v c #000000",
"w c #000000",
"x c #000000",
"y c #000000",
"z c #000000",
"A c #000000",
"B c #000000",
"C c #000000",
/* pixels */
"````````````````````````````````",
"````````````````````````````````",
"`````````kle#bbbbba#emh`````````",
"```````jafdfb#...#abddc#n```````",
"``````ldfdgca#.e..#acgdffi``````",
"`````hcfcooca#...##bfogcd#``````",
"``````bfcfdca#....#bfgabc.``````",
"``````bdccfffbbb..#bdg##be``````",
"``````#dbbbbbcfc..#bfd##cl``````",
"``````.dba##.....##bdf##cj``````",
"``````pgba##....e.abdd##ci``````",
"``````jgbaa#...e..#bdd##bk``````",
"``````igcaa#....e##bgc##ch``````",
"``````kdcaa#...e..abdc#aa```````",
"``````hdcb##...e..abgc#aa```````",
"```````cfaa##.e...abgb#be```````",
"```````cfba#...e..abgb#be```````",
"```````.daa#......abgb.cm```````",
"```````.daa##..e..acga#bm```````",
"```````ldba#...e..acda#bn```````",
"```````mgba##....#acga#cn```````",
"```````ndba##..eiiefga#a````````",
"```````kgba##..e```jfa#b````````",
"```````hfca#...e````maa.````````",
"````````cca##..e````kaa#````````",
"````````bfa##..e````jbbp````````",
"````````pdaa#..e````hlai````````",
"````````hbb##..e````````````````",
"`````````h#b#..e````````````````",
"```````````je.#e````````````````",
"`````````````hni````````````````",
"````````````````````````````````"
};
