/* XPM */
static char * geotranslation_t_xpm[] = {
"16 16 10 1",
" 	c None",
".	c #303030",
"+	c #686868",
"@	c #848484",
"#	c #A0A0A0",
"$	c #7A7A7A",
"%	c #8D8D8D",
"&	c #7B7B7B",
"*	c #555555",
"=	c #868686",
" .   .          ",
" .... ...       ",
" ........       ",
"       +@####   ",
"       ######   ",
"      $$$$%##   ",
"      $$$$%#&.. ",
"      $$$$%+*.  ",
"      $$$$%##   ",
"      $$$$%##   ",
"     .$$$$%##   ",
"   .  $$$$%##   ",
"      $$$$%#    ",
"      $$$$=     ",
"                ",
"                "};
