/* XPM */
static char * geovolume_t_xpm[] = {
"16 16 9 1",
" 	c None",
".	c #303030",
"+	c #FFFFC0",
"@	c #CBCB9C",
"#	c #FFBF90",
"$	c #FF8060",
"%	c #989878",
"&	c #8080E0",
"*	c #0000FF",
"                ",
". . . . ... ... ",
"  .. .. ... ..  ",
"    . .       . ",
"                ",
"                ",
" ++++++++++++++ ",
" @@#$$++++$$#@@ ",
" %%#$$++++$$#%% ",
" %%++++++++++%% ",
" %%++&****&++%% ",
" %%++++++++++%% ",
" %%#$$++++$$#%% ",
" @@#$$++++$$#@@ ",
" ++++++++++++++ ",
"                "};
