/* XPM */
static char *geoxtru_s[]={
"32 32 9 1",
". c None",
"d c #606060",
"e c #6f6f6f",
"# c #717171",
"c c #767676",
"g c #979797",
"b c #afafaf",
"a c #b5b5b5",
"f c #b6b6b6",
"................................",
"................................",
"................................",
"................................",
".............####aaabccccaa.....",
".............####aaabccccaa.....",
".............####aaabccccaa.....",
"..............###aaabccccaa.....",
"..............###aaabcccaaa.....",
"..............###aaabcccaa......",
"..............###aaadcccaa......",
"..............cc#aaaeeecaa......",
".............cccccfeeeef........",
"............cccccffeeeeff.......",
"..........ccccccffgeeeeff.......",
".........cccccccffeeeeeff.......",
"........cccccccfffeeeeefff......",
".......cccccccfffgeeeeefff......",
".....cccccccccfffeeeeeefff......",
".....ccccccccfff..eeeeeffff.....",
".....ccccccccfff...eeeeffff.....",
"......ccccccffff....eeeffff.....",
"......cccccffff......eeffff.....",
"......cccccffff.......efffff....",
"......ccccffff.........f........",
".......ccfffff..................",
".......ccfffff..................",
".......cffff....................",
"................................",
"................................",
"................................",
"................................"};
