/* XPM */
const char *magick[] = {
/* columns rows colors chars-per-pixel */
"32 32 5 1",
"  c Gray0",
". c Blue",
"X c #800000",
"o c #c0c0c0",
"O c None",
/* pixels */
"OOOOOOOOOOOOOOOOOOOOOOOOOOOOOOOO",
"O OOOOOOOOOOOOOOOOOOOOOOOOOOOOOO",
"O OOOOOOoOOOOOOoOOOOOOOoOOOOOOOO",
"O OOOOOOoOOOOOOoOOOOOOOoOOOOOOOO",
"O OOOOOOoOOOOOOoOOOOOOOoOOOOOOOO",
"O OOOOOOoOOOOOOoOOOOOOOoOOOOOOOO",
"O OOOOOOoOOOOOOoOOOOOOOoOOOOOOOO",
"O OOOOOOoOOOOOOoOOOOOOOoOOOOOOOO",
"O oooooooooo oooooooooooooooooOO",
"O OOOOOOoOO . OoOOOOOOOoOOOOOOOO",
"O OOOOOOoOO .. oOOOOOOOoOOOOOOOO",
"O OOOOOOoOO .. oOOOOOOOoOOOOOOOO",
"O OOOOOOoO .... OOOOOOOoOOOOOOOO",
"O OOOOOOoO .... OOOOOOOoOOOOOOOO",
"O OOOOOOoO .... OOOOOO  OOOOOOOO",
"O oooooooo oooo ooooo oo oooooOO",
"O OOOOOOoO .... OOOO ..o OOOOOOO",
"O OOOOOOoO .... OOOO ..o OOOOOOO",
"O OOOOOOo .....o OO ...o OOOOOOO",
"O OOOOOO  .....o O ....o OOOOOOO",
"O OOOOOO ......o O ....o OOOOOOO",
"O OOOOOO ......o. .....o OOOOOOO",
"O oooooo oooooooooooooooo ooooOO",
"O OOOOO o......o.......o. OOOOOO",
"O OOOO .o......o.......o. OOOOOO",
"O OOOO .o......o.......o. OOOOOO",
"O OOO ..o..............o.. OOOOO",
"O OO ...o......o.......o... OOOO",
"O O ....o......o.......o.... OOO",
"O                             OO",
"OOOOOOOOOOOOOOOOOOOOOOOOOOOOOOOO",
"OOOOOOOOOOOOOOOOOOOOOOOOOOOOOOOO"
};
