/* XPM */
const char *magick[] = {
/* columns rows colors chars-per-pixel */
"16 16 9 1",
"  c Gray0",
". c #000080",
"X c Blue",
"o c Cyan",
"O c #800000",
"+ c #800080",
"@ c Magenta",
"# c #808080",
"$ c None",
/* pixels */
"$$$$$$$$$$$$$$$$",
"$$$$############",
"$$$####oooo#####",
"$$#####ooo.#ooo#",
"$#####@@@X.ooo.#",
"###oo@@@+X.XXX.#",
"##oo.+++ X.@@@.#",
"##XX.+++ X@@@+.#",
"##@@@+++ X+++ .#",
"#@@@++++ X+++ .#",
"#+++ +++ X+++ .#",
"#+++ +++ #+++ #$",
"#+++ +++ #+++ $$",
"#############$$$",
"$$$$$$$$$$$$$$$$",
"$$$$$$$$$$$$$$$$"
};
