/* XPM */
static char * leaf_method_t_xpm[] = {
"16 16 13 1",
" 	c None",
".	c #008000",
"+	c #F31313",
"@	c #008080",
"#	c #000000",
"$	c #C0C0C0",
"%	c #808000",
"&	c #F11919",
"*	c #EE1712",
"=	c #E71E11",
"-	c #EE2323",
";	c #CA250F",
">	c #EB2E2E",
"                ",
"  ..   ++       ",
"  @..#@++       ",
"   @$..++@      ",
"  ..$.@++@      ",
"   @.$.++.@@    ",
"  @@@%$++.@@    ",
"   %...&*..#..  ",
"  @.@.@=-.%@@@  ",
"    .%.;>..@@@  ",
" .@.@.@.%$@@@.# ",
"   %.@.%.@$%%@  ",
"    ..%++.%$@   ",
"   ..%.++.%$.   ",
"    %%..%%  ..  ",
"      ###    .# "};
