/* XPM */
static char * leaf_method_s_xpm[] = {
"32 32 17 1",
" 	c None",
".	c #808000",
"+	c #008000",
"@	c #008080",
"#	c #000000",
"$	c #F31313",
"%	c #808080",
"&	c #EE1717",
"*	c #E81712",
"=	c #DC1D1D",
"-	c #DB1D1D",
";	c #E12310",
">	c #E02424",
",	c #C0290F",
"'	c #DA2A2A",
")	c #B2300D",
"!	c #D43030",
"                                ",
"                                ",
"     .+                         ",
"     +++                        ",
"     ++@.###  $$$               ",
"     @@+@+@#+@$$$               ",
"       @+@+@+@$$$               ",
"       @@%@.@+$$$  @            ",
"     +.+.@+@+@$$$+@#            ",
"     ++++%@+@@$$$@.@#           ",
"       ++@%@.@$$$@++#           ",
"       @@+@%@+$$$+++#@ @        ",
"    ++.+++.@%%$$$@++.+@#        ",
"     @@++@+..%$$$.@++@.@        ",
"     ..++.++.@&$*@+@+..# @.@    ",
"       ..+..@.=$-.@.@+## +@+#   ",
"     ++++...++;$>@+@++@ @@@@#   ",
"     @@+.@.+.@,$'%@+@.@@.@+@#   ",
"       ++.+.+.)$!%%@+@@+@@@+#   ",
"        @+...+...%%+@+@@.@.@    ",
"  +++++++...+...++%@+@@@@+@@.   ",
"   ++@@++@.+.@.+...%@+@@@@.+.#  ",
"    +++++.+.+.$$$.+.%@+@+@.+##  ",
"       ..+.@.+$$$++.@%@.@...#   ",
"       @.++.+.$$$..@+@%@.+###   ",
"        .+.+..$$$@@++.@%@.#     ",
"           ++.+.+.++..+.###     ",
"       ......+@..++....%.+      ",
"        ..+@+++@+++..##.%.+     ",
"        .....+.+....#    %.+.   ",
"           .@.@@@..#       .+## ",
"            #######         ##  "};
