/* XPM */
const char *magick[] = {
/* columns rows colors chars-per-pixel */
"16 16 5 1",
"  c #000080",
". c Blue",
"X c #808080",
"o c #c0c0c0",
"O c Gray100",
/* pixels */
"ooooXXXXXooooooo",
"oooX     Xoooooo",
"oo        Xooooo",
"oX  OOOO   ooooo",
"X  OoooOOOOooooo",
"X  Ooooo.ooo.ooo",
"X  Ooooo.ooo.ooo",
"X  Ooo.........o",
"X  Ooooo.ooo.ooo",
"X  Ooooo.ooo.ooo",
"X  Ooooooooooooo",
"oX  XXXX   Ooooo",
"oo        OOoooo",
"ooXX     OOooooo",
"ooooXXOOOOoooooo",
"oooooooooooooooo"
};
