/* XPM */
static char *marker30[]={
"16 16 5 1",
"c c #000000",
"b c #3d3c3d",
"# c #7b797b",
"a c #b8b5b8",
". c #f6f2f6",
"................",
"................",
"....#a.....b....",
"....#c#..acc....",
"....accb#cc#....",
".....cccccc#....",
".....cccccca....",
"....bccccccb....",
"...bccccccccb...",
"..a###cccc###a..",
"......#ccb......",
".......cca......",
".......#b.......",
"........a.......",
"................",
"................"};
