/* XPM */
static char *marker23[]={
"16 16 2 1",
"# c #000000",
". c #ffffff",
"................",
"................",
"................",
"...##########...",
"...##########...",
"....########....",
"....########....",
".....######.....",
".....######.....",
"......####......",
"......####......",
".......##.......",
".......##.......",
"................",
"................",
"................"};
