/* XPM */
static char *marker7[]={
"16 16 2 1",
"# c #000000",
". c #ffffff",
"................",
"................",
"................",
"................",
"................",
"................",
"................",
".......###......",
".......###......",
".......###......",
"................",
"................",
"................",
"................",
"................",
"................"};
