/* XPM */
static char *marker20[]={
"16 16 2 1",
"# c #000000",
". c #ffffff",
"................",
"................",
".....#####......",
"....########....",
"...##########...",
"...###########..",
"..############..",
"..############..",
"..############..",
"..############..",
"..###########...",
"...##########...",
"....########....",
"......#####.....",
"................",
"................"};
