/* XPM */
const char * mb_question_s_xpm[] = {
/* w95mbx02 pixmap
 * width height ncolors chars_per_pixel */
"32 32 6 1",
/* colors */
" 	s none	m white	c none",
".	s s_darkgray	m black	c #808080",
"X	s s_gray	m white	c #c0c0c0",
"o	s s_white	m white	c white",
"O	s s_blue	m white	c #0000FF",
"+	s s_black	m black	c black",
/**/
"           ........             ",
"        ...XooooooX...          ",
"      ..XooooooooooooX..        ",
"     .XooooooooooooooooX.       ",
"    .oooooooo.OO.Xooooooo+      ",
"   .oooooooXOOOOOOXooooooo+     ",
"  .oooooooXOXooOOOOXooooooo+    ",
" .XoooooooOOooooOOOOoooooooX+   ",
" .ooooooooOOOOooOOOOoooooooo+.  ",
".XooooooooOOOOoXOOOOooooooooX+. ",
".oooooooooXOOXoOOOOoooooooooo+. ",
".oooooooooooooXOOOooooooooooo+..",
".oooooooooooooOOOoooooooooooo+..",
".oooooooooooooOOXoooooooooooo+..",
".oooooooooooooOOooooooooooooo+..",
".XooooooooooooooooooooooooooX+..",
" .oooooooooooXOOXooooooooooo+...",
" .XooooooooooOOOOooooooooooX+...",
"  .ooooooooooOOOOoooooooooo+... ",
"   +oooooooooXOOXooooooooo+.... ",
"    +oooooooooooooooooooo+....  ",
"     +XooooooooooooooooX+....   ",
"      ++XooooooooooooX++....    ",
"       .+++XooooooX+++.....     ",
"        ...+++Xooo+.......      ",
"          ....+ooo+.....        ",
"             .+ooo+..           ",
"               +oo+..           ",
"                +o+..           ",
"                 ++..           ",
"                  ...           ",
"                   ..           "};
