/* XPM */
static char *01netdisk16_xpm[] = {
/* width height num_colors chars_per_pixel */
"    16    16       16            1",
/* colors */
"` c None s None",
". c #c0c0ff",
"# c #000000",
"a c #808080",
"b c #606040",
"c c #a0a080",
"d c #808000",
"e c #008000",
"f c #ffff00",
"g c #00ff00",
"h c #0040ff",
"i c #006000",
"j c #006040",
"k c #004080",
"l c #0060ff",
"m c #004040",
/* pixels */
"````````````````",
"````````````````",
"``aaaaaaaaaaaaa`",
"`b.....cccccccb#",
"a````````````ab#",
"a.........ge.ab#",
"a............ab#",
"a.bbbbbbbbbb.ab#",
"a.``````````.a#`",
"`#############``",
"```````##```````",
"```````.#```````",
"......ddd#......",
"######f`d#######",
"``````####``````",
"````````````````"
};
