/* XPM */
static char *01netdisk_xpm[] = {
/* width height num_colors chars_per_pixel */
"    32    32       16            1",
/* colors */
"` c None s None",
". c #808080",
"# c #a0a080",
"a c #606040",
"b c #000000",
"c c #c0c0ff",
"d c #808000",
"e c #008000",
"f c #c08000",
"g c #ffc040",
"h c #ffff00",
"i c #00ff00",
"j c #ffff80",
"k c #206000",
"l c #0060ff",
"m c #006000",
/* pixels */
"````````````````````````````````",
"````````````````````````````````",
"````````````````````````````````",
"````````````````````````````````",
"````````````````````````````````",
"````````````````````````````````",
"````aaaaaaaaaaaaaaaaaaaaaaaaaa``",
"```a.........................ab`",
"``.#########################.ab`",
"`.`````````````````````````#.ab`",
"`.``cccccccccc########iie.##.ab`",
"`.`cccccccccccc#######eek.##.ab`",
"`.`ccccccccccc#########...##.ab`",
"`.`caaaaaaaaaaaaaaaaaaaaa.##.ab`",
"`.`c`````````````````````.##.ab`",
"`.`caaaaaaaaaaaaaaaaaaaaa.##.ab`",
"`.`c`````````````````````.##.ab`",
"`.`#########################ab``",
"`..........................ab```",
"``bbbbbbbbbbbbbbbbbbbbbbbbbb````",
"``````````````b.b```````````````",
"``````````````.cb```````````````",
"``````````````.cb```````````````",
".`..........dddddb............`.",
"c`ccccccccccdjhgfbcccccccccccc`c",
"b`bbbbbbbbbbdhgffbbbbbbbbbbbbb`b",
"````````````bbbbbb``````````````",
"````````````````````````````````",
"````````````````````````````````",
"````````````````````````````````",
"````````````````````````````````",
"````````````````````````````````"
};
