/* XPM */
static char *ia_open[]={
"16 16 6 1",
". c None",
"d c #303030",
"# c #808080",
"b c #a0a0a0",
"c c #c0c0c0",
"a c #ffffff",
"................",
"...#####........",
"..#aaaaa#.......",
".bac.c.ca######.",
".ba.c.c.caaaaa#d",
".bac.c.c.c.c.c#d",
"#############.#d",
"#aaaaaaaaaa#dc#d",
"#ac.c.c.c.c.d##d",
".#ac.c.c.c.c#d#d",
".#a.c.c.c.c.cd#d",
"..#a.c.c.c.c.#dd",
"..############dd",
"...ddddddddddddd",
"................",
"................"};
