/* XPM */
static char *package_delete_xpm[] = {
/* width height num_colors chars_per_pixel */
"    16    16      128            2",
/* colors */
"`` c #fdf8e2",
"`. c #d8b152",
"`# c #eac342",
"`a c #fff0c9",
"`b c #f0d08b",
"`c c #f8f0dd",
"`d c #ffe8aa",
"`e c #fcfaf1",
"`f c #bb4104",
"`g c #e2c57b",
"`h c #e8d292",
"`i c #f9ebcd",
"`j c #fff3d4",
"`k c #ffeec0",
"`l c #e1bf71",
"`m c #f9f3e3",
"`n c #ffe19a",
"`o c #be500a",
"`p c #c8933a",
"`q c #fed97b",
"`r c #fbda8c",
"`s c #ddb879",
"`t c #ffeab8",
"`u c #f9e1a9",
"`v c #ffeab2",
"`w c #ebcc83",
"`x c #c25d24",
"`y c #f5d07e",
"`z c #cb6b2d",
"`A c #e9b43c",
"`B c #f0bc3a",
"`C c #eddbbd",
"`D c #f1e3ba",
"`E c #c99134",
"`F c #eddab3",
"`G c #d7af58",
"`H c #f5ebd2",
"`I c #dea889",
"`J c #f0e1c3",
"`K c #e9b34b",
"`L c #f2d694",
"`M c #e8d19a",
"`N c #ffe4a3",
"`O c #dbb161",
"`P c #ecd9a4",
"`Q c #fee093",
"`R c #d78d31",
"`S c #f6b48c",
"`T c #f7e4b1",
"`U c #f9c147",
"`V c #fbdb91",
"`W c #bc5110",
"`X c #c88e33",
"`Y c #e6b441",
"`Z c #e7b940",
"`0 c #cf9c40",
"`1 c #d17437",
"`2 c #eb893f",
"`3 c #ea7805",
"`4 c #ff7611",
"`5 c #c35813",
"`6 c #e16703",
"`7 c #ee7500",
"`8 c #f87500",
".` c #dd6301",
".. c #ef7e17",
".# c #ff8520",
".a c #c4712c",
".b c #c98f2e",
".c c #e67620",
".d c #ff7e17",
".e c #c16b1a",
".f c #c0591f",
".g c #e9bc44",
".h c #e5ca84",
".i c #fbdc83",
".j c #dbc288",
".k c #f1cf85",
".l c #dfbd73",
".m c #f5a771",
".n c #e5c381",
".o c #ffd576",
".p c #fecdad",
".q c #f8db9c",
".r c #fed6b7",
".s c #f2ddae",
".t c #dec994",
".u c #ebcd8e",
".v c #e5c995",
".w c #e3b095",
".x c #e8ba4e",
".y c #d8b04e",
".z c #d5a550",
".A c #daac4f",
".B c #d5aa47",
".C c #d48846",
".D c #ff914c",
".E c #e4b04b",
".F c #ddb868",
".G c #debf66",
".H c #e2b66e",
".I c #f5c968",
".J c #d3a45a",
".K c #f1c055",
".L c #f49c62",
".M c #d4a760",
".N c None",
".O c #ffffff",
".P c #000000",
".Q c #000000",
".R c #000000",
".S c #000000",
".T c #000000",
".U c #000000",
".V c #000000",
".W c #000000",
".X c #000000",
".Y c #000000",
".Z c #000000",
".0 c #000000",
".1 c #000000",
".2 c #000000",
".3 c #000000",
".4 c #000000",
".5 c #000000",
".6 c #000000",
".7 c #000000",
".8 c #000000",
/* pixels */
".N.N.N.N.N.N`m.h`g`c.N.N.N.N.N.N",
".N.N.N.N`e`P`.`M.u`.`M`e.N.N.N.N",
".N.N.N`D.G`h```m.s`T`l`G`F.N.N.N",
".N`H`g`g`j`e`e`i.A`r`u`L`O`O`J.N",
"`h`.`P`H`C.t.j.l.F`b`y.q`u`w.z`s",
"`.```i`h`w`l`.`p`i`c`t`V`q`N.i`E",
"`.```j`u`b`y.o.E`T`v`n`q`B`A`L`p",
"`.```c`j`t`b.I`K`r`r`U`A`#.x`b`p",
"`.```c`a`a`t`V.K`U`B`#.g`Y`K.k`E",
".y```j`a`k`v`d`q`#`#`R`5`f`o.C`X",
".B`````k`v`d`N`n`#`R`1`S.r.m`z.e",
"`l`s`D`c`k`d`n`Q`#`o`S.D`4.#`2`W",
".N`F`G`g`i`a`d`Q`Z`f.p.O.O.O..`f",
".N.N``.v`0.n`a`k`b`W.L.d`8`7`6.f",
".N.N.N.N`m`s.b`h.H.a`z.c`3.``o`I",
".N.N.N.N.N.N`J.M.J`C.w`x`f`x`I.N"
};
