/* XPM */
static char *package_xpm[] = {
/* width height num_colors chars_per_pixel */
"    16    16      128            2",
/* colors */
"`` c #fdf8e2",
"`. c #f8f0dd",
"`# c #d8b152",
"`a c #fff0c9",
"`b c #eac342",
"`c c #fee093",
"`d c #f9e1a9",
"`e c #f0d08b",
"`f c #e3aa39",
"`g c #c8933a",
"`h c #ebc081",
"`i c #e2c57b",
"`j c #fcfaf1",
"`k c #ffefc0",
"`l c #fbda8c",
"`m c #f0e1c3",
"`n c #ebcd8e",
"`o c #ddb879",
"`p c #e8d292",
"`q c #e1bf71",
"`r c #ffeab2",
"`s c #fff3d4",
"`t c #ffeab8",
"`u c #f5ebd2",
"`v c #f9ebcd",
"`w c #d2a259",
"`x c #d7af58",
"`y c #e5ca84",
"`z c #ebcc83",
"`A c #f5d07e",
"`B c #debf66",
"`C c #f9c147",
"`D c #e8ba4e",
"`E c #e9b34b",
"`F c #e4b044",
"`G c #fed677",
"`H c #fed97b",
"`I c #f9f3e3",
"`J c #e8bd42",
"`K c #ffe4a3",
"`L c #ecd9a4",
"`M c #c99134",
"`N c #c88e33",
"`O c #eddab3",
"`P c #eddbbd",
"`Q c #ffe8a7",
"`R c #ffe8aa",
"`S c #f0bc3a",
"`T c #f9f3e9",
"`U c #e9b43c",
"`V c #e6b33c",
"`W c #f2d694",
"`X c #f1cf85",
"`Y c #e8d19a",
"`Z c #c98f2e",
"`0 c #daac4f",
"`1 c #c5882a",
"`2 c #d8b04e",
"`3 c #c88d3f",
"`4 c #e7b940",
"`5 c #cf9c40",
"`6 c #ecb537",
"`7 c #d5aa47",
"`8 c #e4b04b",
".` c #ca8f49",
".. c #de9e31",
".# c #f0ce89",
".a c #dec994",
".b c #e5c995",
".c c #fbdc83",
".d c #debb86",
".e c #dbc288",
".f c #f6e5be",
".g c #f2ddae",
".h c #f7e4b1",
".i c #ffe19a",
".j c #f8db9c",
".k c #e5cba2",
".l c #dfbd73",
".m c #f1c055",
".n c #d4a760",
".o c #dbb161",
".p c #d5a550",
".q c #d09652",
".r c #e5ae55",
".s c #e2b66e",
".t c #e5be6e",
".u c #e4b273",
".v c #ddb868",
".w c #f5c968",
".x c #d7ad6c",
".y c None",
".z c #000000",
".A c #000000",
".B c #000000",
".C c #000000",
".D c #000000",
".E c #000000",
".F c #000000",
".G c #000000",
".H c #000000",
".I c #000000",
".J c #000000",
".K c #000000",
".L c #000000",
".M c #000000",
".N c #000000",
".O c #000000",
".P c #000000",
".Q c #000000",
".R c #000000",
".S c #000000",
".T c #000000",
".U c #000000",
".V c #000000",
".W c #000000",
".X c #000000",
".Y c #000000",
".Z c #000000",
".0 c #000000",
".1 c #000000",
".2 c #000000",
".3 c #000000",
".4 c #000000",
".5 c #000000",
".6 c #000000",
".7 c #000000",
".8 c #000000",
/* pixels */
".y.y.y.y.y.y`I`y`i`..y.y.y.y.y.y",
".y.y.y.y`j`L`#`Y`n`#`Y`j.y.y.y.y",
".y.y.y`m`B`p````.g.h`q`x`O.y.y.y",
".y`u`i`i`s`j`j`v`0`l`d`W.o.v`m.y",
"`p`#`L`u`P.a.e.l`B`e`A.j`d`z.p`o",
"`#```v`p`z.t`x`g`a`.`t`c`G`K.c`M",
"`#```s`d`X`G`A`8`d`r.i`H`S`U`W`g",
"`#```.`.`t`e.w`E`l`l`C`6`D`D`e`g",
"`#```.`a`a`t`c.m`C`S`b`b`F`E`X`M",
"`2```s`a`k`r`d`H`b`b`J`U`f`f`h`N",
"`7```.`k`r`R`Q`c`b`J`V`f...s`h`1",
"`q`o.f`.`k`Q`K`c`b`V`f.r`h.u.``w",
".y`O`x`i`v`a`R`c`4`F`n`h.q`g.k.y",
".y.y`T.b`5`y`a`k`e.#`w`N.d`T.y.y",
".y.y.y.y`I`o`Z`n`q`3.x`u.y.y.y.y",
".y.y.y.y.y.y`m.n`w`P.y.y.y.y.y.y"
};
