/* XPM */
static char *pad[]={
"16 16 3 1",
"a c #808080",
". c #c3c3c3",
"# c #ffffff",
"................",
"###############a",
"##############aa",
"##............aa",
"##............aa",
"##............aa",
"##............aa",
"##............aa",
"##............aa",
"##............aa",
"##............aa",
"##............aa",
"##............aa",
"##............aa",
"##aaaaaaaaaaaaaa",
"#aaaaaaaaaaaaaaa"};
