/* XPM */
static char *ia_pavetext[]={
"16 16 4 1",
". c None",
"# c #303030",
"b c #a0a0a0",
"a c #c3c3c3",
"................",
"................",
"................",
"................",
"..############a.",
"..#..........#b.",
"..#..######..#b.",
"..#....##....#b.",
"..#....##....#b.",
"..#....##....#b.",
"..#....##....#b.",
"..#..........#b.",
"..############b.",
"..abbbbbbbbbbbb.",
"................",
"................"};
