/* XPM */
static char *ia_pavestext[]={
"16 16 4 1",
". c None",
"# c #303030",
"a c #a0a0a0",
"b c #c3c3c3",
"................",
"................",
".############...",
".#..........#a..",
".#..######..#b#.",
".#....##....#b#.",
".#....##....#b#.",
".#....##....#b#.",
".#....##....#b#.",
".#....##....#b#.",
".#..........#b#.",
".############b#.",
"..aaaaaaaaaaab#.",
"...############.",
"................",
"................"};
