/* XPM */
const char *printerIconData[] = {
/* width height num_colors chars_per_pixel */
"    32    32        8            1",
/* colors */
". c #000000",
"# c #ff0000",
"a c #5a5a5a",
"b c #848484",
"c c #00ff00",
"d c #c6c6c6",
"e c None s None",
"f c #ffffff",
/* pixels */
"eeeeeeeeeeeeeeeeeeeebbbeeeeeeeee",
"eeeeeeeeeeeeeeeeeeebfffbbeeeeeee",
"eeeeeeeeeeeeeeeeeebffffffbbeeeee",
"eeeeeeeeeeeeeeeeebffaafffffbbeee",
"eeeeeeeeeeeeeeeebfffffaaffd..eee",
"eeeeeeeeeeeeeeebffaafffffd.eeeee",
"eeeeeeeeeeeeebbbffffaaffd.eeeeee",
"eeeeeeeeeeebbfbffaaffffd.eeeeeee",
"eeeeeeeeebbfddbffffaafd.eeeeeeee",
"eeeeeeebbfddbbffaaffff.bbbeeeeee",
"eeeeebbfddbbb..fffaafd.bddbbeeee",
"eeebbfddbbbbddd..ffff.ddbbddb.ee",
"ebbeddbbddbbddddd..fd.bbddbbb.ee",
"ebeebbddccddbbddddd.bbddbbbbb.ee",
"ebedbffddd##ddbbddbbddbbbbbbb.ee",
"ebedbddffdddddddbbddbbbbbbbbb.ee",
"ebedbddddffdddbbddbbbbbbbbbbb.ee",
"ebedbddddddfbbddbbbbbbbbbbbbb.ee",
"ebedbdddddddbfbbbbbbbbbbbbbb..ee",
"ebbdbdddddddbdbbbbbbbbbbbb...eee",
"eeebbdddddddbdbbbbbbbbbb..eeeeee",
"eeeeebbdddddbdbbbbbbbb..b...eeee",
"eeeeeeebbdddbdbbbbbb..ebfbbb..ee",
"eeeeeeeeebbdbdbbbb..ebbfffffbb.e",
"eeeeeeeeeeebbdbb..ebbfffaaffffbd",
"eeeeeeeeeeeeeb..eebbfaafffaafd.d",
"eeeeeeeeeeeeeeeeebbffffaaffdd.d.",
"eeeeeeeeeeeeeeeebbfaafffffd..d.e",
"eeeeeeeeeeeeeeebbffffaaffd.dd.ee",
"eeeeeeeeeeeeeeeddbbfffffd.d..eee",
"eeeeeeeeeeeeeeebbddbbffd.d.eeeee",
"eeeeeeeeeeeeeeeeebbddbd.d.eeeeee"
};
