/* XPM */
const char *profile16[] = {
/* columns rows colors chars-per-pixel */
"16 16 4 1",
"  c Gray0",
". c #800000",
"X c Red",
"o c None",
/* pixels */
" ooooooooooooooo",
" ooooooooooXoooo",
" ooooooooooXoooo",
" oooooooXoX Xooo",
" oooooooXooXoooo",
" ooooXoX XoXooXo",
" ooooXooXoooooXo",
" oooX XoXooooX X",
" ooooXooooooooXo",
" oXooXooooooooXo",
" oXooooooooooooo",
" X Xoooooooooooo",
" oXooooooooooooo",
" oXooooooooooooo",
" ooooooooooooooo",
"                "
};
