/* XPM */
static char *proof_disconnected_xpm[] = {
/* width height num_colors chars_per_pixel */
"    16    16      256            2",
/* colors */
"`` c #ca1718",
"`. c #ca1719",
"`# c #c71c1e",
"`a c #d12425",
"`b c #d32629",
"`c c #ef2d30",
"`d c #e33132",
"`e c #fb3839",
"`f c #ff4142",
"`g c #db4f51",
"`h c #f96f70",
"`i c #ff8889",
"`j c #f83339",
"`k c None s None",
"`l c #6060c6",
"`m c #5c5c9c",
"`n c #7878cb",
"`o c #37375d",
"`p c #7a7acc",
"`q c #8484cd",
"`r c #8989d4",
"`s c #8a8abf",
"`t c #9797d0",
"`u c #9292c0",
"`v c #6e6e8f",
"`w c #a0a0cc",
"`x c #9797c0",
"`y c #c0c0e0",
"`z c #a0a0b7",
"`A c #c0c0db",
"`B c #adadc5",
"`C c #c7c7db",
"`D c #c5c5d9",
"`E c #babacb",
"`F c #cdcddd",
"`G c #d2d2db",
"`H c #d9d9dd",
"`I c #e0e0e1",
"`J c #dededf",
"`K c #89a6cf",
"`L c #93b6c6",
"`M c #73392a",
"`N c #74392b",
"`O c #723b2d",
"`P c #7c4537",
"`Q c #7b3629",
"`R c #8a4a3f",
"`S c #9a4236",
"`T c #92544a",
"`U c #943a30",
"`V c #9e534b",
"`W c #8c2e26",
"`X c #992720",
"`Y c #952820",
"`Z c #962921",
"`0 c #9d2d26",
"`1 c #ba2d29",
"`2 c #972f2a",
"`3 c #c9504d",
"`4 c #d06f6b",
"`5 c #b01715",
"`6 c #d11f1f",
"`7 c #c51d1d",
"`8 c #d22121",
".` c #dc2525",
".. c #de2828",
".# c #f32f2d",
".a c #e82c2b",
".b c #ca2626",
".c c #df312f",
".d c #ff3636",
".e c #d83232",
".f c #fa4040",
".g c #d23636",
".h c #e93d3d",
".i c #fc4544",
".j c #da3e3d",
".k c #cf403d",
".l c #e74746",
".m c #ff4e4e",
".n c #db4b4a",
".o c #fe5a5a",
".p c #ff5b5b",
".q c #fe625f",
".r c #f75d5d",
".s c #eb5f5f",
".t c #ff6a6a",
".u c #ff6c6c",
".v c #ff6e6e",
".w c #e26262",
".x c #d85f5f",
".y c #f0716f",
".z c #ff7878",
".A c #fe7a7a",
".B c #f97878",
".C c #e57574",
".D c #f39999",
".E c #f3f3f3",
".F c #f2f2f2",
".G c #000000",
".H c #000000",
".I c #000000",
".J c #000000",
".K c #000000",
".L c #000000",
".M c #000000",
".N c #000000",
".O c #000000",
".P c #000000",
".Q c #000000",
".R c #000000",
".S c #000000",
".T c #000000",
".U c #000000",
".V c #000000",
".W c #000000",
".X c #000000",
".Y c #000000",
".Z c #000000",
".0 c #000000",
".1 c #000000",
".2 c #000000",
".3 c #000000",
".4 c #000000",
".5 c #000000",
".6 c #000000",
".7 c #000000",
".8 c #000000",
"#` c #000000",
"#. c #000000",
"## c #000000",
"#a c #000000",
"#b c #000000",
"#c c #000000",
"#d c #000000",
"#e c #000000",
"#f c #000000",
"#g c #000000",
"#h c #000000",
"#i c #000000",
"#j c #000000",
"#k c #000000",
"#l c #000000",
"#m c #000000",
"#n c #000000",
"#o c #000000",
"#p c #000000",
"#q c #000000",
"#r c #000000",
"#s c #000000",
"#t c #000000",
"#u c #000000",
"#v c #000000",
"#w c #000000",
"#x c #000000",
"#y c #000000",
"#z c #000000",
"#A c #000000",
"#B c #000000",
"#C c #000000",
"#D c #000000",
"#E c #000000",
"#F c #000000",
"#G c #000000",
"#H c #000000",
"#I c #000000",
"#J c #000000",
"#K c #000000",
"#L c #000000",
"#M c #000000",
"#N c #000000",
"#O c #000000",
"#P c #000000",
"#Q c #000000",
"#R c #000000",
"#S c #000000",
"#T c #000000",
"#U c #000000",
"#V c #000000",
"#W c #000000",
"#X c #000000",
"#Y c #000000",
"#Z c #000000",
"#0 c #000000",
"#1 c #000000",
"#2 c #000000",
"#3 c #000000",
"#4 c #000000",
"#5 c #000000",
"#6 c #000000",
"#7 c #000000",
"#8 c #000000",
"a` c #000000",
"a. c #000000",
"a# c #000000",
"aa c #000000",
"ab c #000000",
"ac c #000000",
"ad c #000000",
"ae c #000000",
"af c #000000",
"ag c #000000",
"ah c #000000",
"ai c #000000",
"aj c #000000",
"ak c #000000",
"al c #000000",
"am c #000000",
"an c #000000",
"ao c #000000",
"ap c #000000",
"aq c #000000",
"ar c #000000",
"as c #000000",
"at c #000000",
"au c #000000",
"av c #000000",
"aw c #000000",
"ax c #000000",
"ay c #000000",
"az c #000000",
"aA c #000000",
"aB c #000000",
"aC c #000000",
"aD c #000000",
"aE c #000000",
"aF c #000000",
"aG c #000000",
"aH c #000000",
"aI c #000000",
"aJ c #000000",
"aK c #000000",
"aL c #000000",
"aM c #000000",
"aN c #000000",
"aO c #000000",
"aP c #000000",
"aQ c #000000",
"aR c #000000",
"aS c #000000",
"aT c #000000",
"aU c #000000",
"aV c #000000",
"aW c #000000",
"aX c #000000",
"aY c #000000",
"aZ c #000000",
"a0 c #000000",
"a1 c #000000",
"a2 c #000000",
"a3 c #000000",
"a4 c #000000",
"a5 c #000000",
"a6 c #000000",
"a7 c #000000",
"a8 c #000000",
/* pixels */
"`k`k`k`k`k`E`E`E`E`K`K`K`n`k`k`k",
"`k`k`k`k`k`L`o`o`o`o`o`o`n`k`k`k",
"`k`k`k`k`k`L`o`o`o`o`o`o`n`k`k`k",
"`E`E`E`E`K`K`K`n`o`o`o`o`n`k`k`k",
"`L`o`o`o`o`o`o`n`o`o`o`o`n`k`k`k",
"`L`o`o`o`o`o`o`n`o`o`o`o`n`k`k`k",
"`L`o`o`o`o.A.t.z`m`m`m`m.u.v`i`T",
"`L`o`o`o`o.D.r.t.s`q`n.t.p`h`4`P",
"`L`o`o`o`o`o.w.f.o.C.B.m`f`3`O`k",
"`L`m`m`m`m`m`m.h`e.q.i.d.k`N`k`k",
"`k`v`r`r`r`l`C`I.y.#`j.g`M`k`k`k",
"`z`x`y`D`t`p`s`x.l.a`c.e`U`k`k`k",
"`t.E.F`J`A`w`u.c.``b`1..`d`S`k`k",
"`t`H`I`G`F`B.n`6`a`2`k.b`8.j`V`k",
"`k`x`x`x`x.x`.`#`0`k`k`k`7```g`R",
"`k`k`k`k`k`5`Z`W`k`k`k`k`k`X`Y`Q"
};
