/* XPM */
static char *ia_properties[]={
"16 16 2 1",
". c None",
"# c #303030",
"................",
".#####..........",
"................",
".##############.",
"................",
".######...#####.",
"................",
".######...#####.",
"................",
".######...#####.",
"................",
"................",
".##############.",
"................",
".####.####.####.",
"................"};
