/* XPM */
static char *query_new_xpm[] = {
/* width height num_colors chars_per_pixel */
"    16    16       64            2",
/* colors */
"`` c #e7e7e7",
"`. c #000000",
"`# c #cacaca",
"`a c #bbbbbb",
"`b c #c9c9c9",
"`c c #bdbdbd",
"`d c #c4c4c4",
"`e c #c2c2c2",
"`f c #cccccc",
"`g c #c0c0c0",
"`h c #bcbcbc",
"`i c #dedede",
"`j c #e6e6e6",
"`k c #fce93b",
"`l c #fbe73b",
"`m c #fceb3d",
"`n c #f7b544",
"`o c #f7b545",
"`p c #f4b244",
"`q c #665d3e",
"`r c #404040",
"`s c #2c2c2c",
"`t c #655930",
"`u c #4f4115",
"`v c #5c4f2b",
"`w c #685b37",
"`x c #f9df39",
"`y c #6c5f34",
"`z c #f6d236",
"`A c #4b4b49",
"`B c #bfbfbf",
"`C c #c1c1c1",
"`D c #b3b3b3",
"`E c #bebebe",
"`F c #d2d2d2",
"`G c #dcdcdc",
"`H c #c3c3c3",
"`I c #c7c7c7",
"`J c #adadad",
"`K c #5d5d5d",
"`L c #d7ae74",
"`M c #efb44d",
"`N c #f2b64d",
"`O c #a0a0a0",
"`P c #a8a8a8",
"`Q c #767676",
"`R c #858585",
"`S c None",
"`T c #000000",
"`U c #000000",
"`V c #000000",
"`W c #000000",
"`X c #000000",
"`Y c #000000",
"`Z c #000000",
"`0 c #000000",
"`1 c #000000",
"`2 c #000000",
"`3 c #000000",
"`4 c #000000",
"`5 c #000000",
"`6 c #000000",
"`7 c #000000",
"`8 c #000000",
/* pixels */
"`S`i`.`.`.`.`.`.`.`.`.`j`S`S`S`S",
"`S`.`````````````````C`.`i`S`S`S",
"`S`.```````````````H```P`.`j`S`S",
"`S`.`````f`f`f`````J`Q`K`r`.`.`D",
"`S`.`````````````````R`A`.`l`N`.",
"`S`.`````#`#`#`#```#`b`.`m`n`w`.",
"`S`.`````````````````.`k`o`y`.`F",
"`S`.`````b`b```b`b`.`x`p`q`.`G`S",
"`S`.`````````````.`z`M`v`.`.`S`S",
"`S`.`````d`d`d```.`L`t`.`g`.`S`S",
"`S`.```````````.`u`.`.```B`.`S`S",
"`S`.`````e```e`.`.```````E`.`S`S",
"`S`.`````````````````````c`.`S`S",
"`S`.`````````````````````a`.`S`S",
"`S`.`e`c`c`c`h`h`a`a`a`a`O`s`S`S",
"`S`g`.`.`.`.`.`.`.`.`.`.`.`I`S`S"
};
