/* XPM */
static char *exit[] = {
/* width height num_colors chars_per_pixel */
"    16    16       16            1",
/* colors */
"` c #000000",
". c #313131",
"# c #737373",
"a c #a5a5a5",
"b c None s None",
"c c #ffffff",
"d c #ffffff",
"e c #ffffff",
"f c #ffffff",
"g c #ffffff",
"h c #ffffff",
"i c #ffffff",
"j c #ffffff",
"k c #ffffff",
"l c #ffffff",
"m c #ffffff",
/* pixels */
"bbbbbbbbbbbbbbbb",
"bbbbbbb``bbbbbbb",
"bbbbbbb``abbbbbb",
"bbbb`bb``ab`bbbb",
"bbb.``b``a``.bbb",
"bb#``aa``ab``#bb",
"bb.`#ab``ab#`.ab",
"bb``abb``abb``ab",
"bb``abb``abb``ab",
"bb.`#bb``ab#`.ab",
"bb#``abbaab``#ab",
"bbb.``#bb#``.aab",
"bbbb.``````.aabb",
"bbbbb#.``.#aabbb",
"bbbbbbaaaaabbbbb",
"bbbbbbbbbbbbbbbb"
};
