/* XPM */
static char *rbutton_dis_off_new[]={
"12 12 5 1",
". c None",
"a c #303030",
"# c #808080",
"b c #c0c0c0",
"c c #ffffff",
"....####....",
"..##aaaa##..",
".#aabbbbaac.",
".#abbbbbbbc.",
"#abbbbbbbbbc",
"#abbbbbbbbbc",
"#abbbbbbbbbc",
"#abbbbbbbbbc",
".#abbbbbbbc.",
".#bbbbbbbbc.",
"..ccbbbbcc..",
"....cccc...."};
