/* XPM */
static char *refresh1[]={
"16 16 28 1",
"y c #084208",
"w c #085210",
"t c #085a10",
"v c #086310",
"k c #106b10",
"l c #107310",
"j c #107b18",
"i c #108418",
"f c #108c18",
"b c #189421",
"g c #219c29",
"p c #299c31",
"c c #31a539",
"d c #39a542",
"s c #42ad4a",
"e c #4aad52",
"z c #52ad52",
"h c #63b56b",
"q c #6bbd6b",
"m c #73bd7b",
"x c #efefe7",
"a c #efefef",
"u c #eff7f7",
"o c #f7efe7",
"r c #f7efef",
"n c #f7f7ef",
". c #f7f7f7",
"# c #ffffff",
"..#a#..bcde.#a#.",
"#..#..fbggdh.#..",
".....fifijidh...",
"a.a.fi....klema.",
".n.jb.n.oa.kpqa.",
".o.jroa..jjkgsde",
"o.o.o..oaatkbgga",
"uoacaaa.o.ovfgra",
"aajdmo.oao.aiaoa",
".ikbhhououoaaaa.",
"kkwfsddoaoaodoao",
"oawjexoaoaofsoao",
"aoyldzaoaxbboaxa",
"oaawjpccggfoaxao",
"xxxowlfbfbxxoxxx",
"xaoxxvjjixxoaxxx"};
