/* XPM */
const char *rootdblnk_s_xpm[] = {
/* columns rows colors chars-per-pixel */
"32 32 10 1",
"  c Gray0",
". c #800000",
"a c #808080",
"B c black",
"w c white",
"X c Red",
"o c Yellow",
"O c #c0c0c0",
"+ c Gray100",
"@ c None",
/* pixels */
"@@@@@@@@@@@@@@@@@@@@@@@@@@@@@@@@",
"@@@@@@@@@@@@@@@@@@@@@@@@@@@@@@@@",
"@@@@@++++++++++++++++++++@@@@@@@",
"@@@@@+OOOOOOOOOOOOOOOOO+O @@@@@@",
"@@@    OOOOOOOOOOOOOOOO+OO @@@@@",
"@@ o@o@      OOOOOOOOOO+OOO @@@@",
"@@     o@o@o@ OOOOOOOOO+    @@@@",
"@@ @o@o@o@o@o OOOOOOOOOOOOO @@@@",
"@@ o@o@o@o@o@ XXXOOOOOOOOOO @@@@",
"@@ @o@o@o@o@o OOXOOOOOOOOOO @@@@",
"@@ o@o@o@o@o@ OOXOOO    OOO @@@@",
"@@ @o@o@o@o@o OOXOO o@o@      @@",
"@@@          OOOXOO     o@o@o@ @",
"@@@@@+OOOOOOOOOOXOO @o@o@o@o@o @",
"@@@@@+OOOOOOOOOOXXX o@o@o@o@o@ @",
"@@@@@+OOOOOOOOOOXOO @o@o@o@o@o @",
"@@@@@+OOOOOOOOOOXOO o@o@o@o@o@ @",
"@@@@@+OOOOOOOOOOXOO @o@o@o@o@o @",
"@@@@@+OOOOOOOOOOXOOO          @@",
"@@@@@+OOOOOOOOOOXOOOOOOOOOO @@@@",
"@@@@@+OOOOOOOOOOXOOO    OOO @@@@",
"aaaaaaaaaaBOOOOOXOO o@o@      @@",
"awwwwwwwwwBOOOOOXOO     o@o@o@ @",
"awwwBBBBwwBOOOOOXOO @o@o@o@o@o @",
"awwwwBBBwwBOOOOOXXX o@o@o@o@o@ @",
"awwwBBBBwwBOOOOOOOO @o@o@o@o@o @",
"awwBBBwBwwBOOOOOOOO o@o@o@o@o@ @",
"awwBBwwwwwBOOOOOOOO @o@o@o@o@o @",
"awwBOwwwwwBOOOOOOOOO          @@",
"awwwBwwwwwBOOOOOOOOOOOOOOOO @@@@",
"awwwwwwwwwB                 @@@@",
"BBBBBBBBBBB@@@@@@@@@@@@@@@@@@@@@"
};
