/* XPM */
const char * root_t_xpm[] = {
/* width height ncolors cpp [x_hot y_hot] */
"16 16 3 1 0 0",
/* colors */
"       s none  m none  c none",
".      s iconColor4    m white c #008b00",
"X      s iconColor1    m black c black",
/* pixels */
"                ",
"    .. X        ",
"    ...X ...    ",
"     ..X...     ",
"       X..      ",
"       X        ",
"       X        ",
"     XXXXXXXX   ",
"  XXXX XX    XX ",
" X  X   XXXXX X ",
" XXXXXX  X  XX  ",
"  X  X X XX  XX ",
"  X X X   XX X  ",
"  X X XX   X  X ",
" X X X XX X  X  ",
"                "};
