/* XPM */
const char *magick[] = {
/* columns rows colors chars-per-pixel */
"16 16 7 1",
"  c Gray0",
". c #800000",
"X c #808000",
"o c Yellow",
"O c #c0c0c0",
"+ c Gray100",
"@ c None",
/* pixels */
"@@++++++++++@@@@",
"@    OOOOOO+O@@@",
" oOoO OOOOO+  @@",
" OoOo OOOOOOO @@",
" oOoO XXOOOOO @@",
"@    OOXOO     @",
"@@+OOOOXX OoOoO ",
"@@+OOOOXO oOoOo ",
"@@+OOOOXO OoOoO ",
"@@+OOOOXOO     @",
"@@+OOOOXOOOOO @@",
"@@+OOOOXOO     @",
"@@+OOOOXX OoOoO ",
"@@+OOOOOO oOoOo ",
"@@        OoOoO ",
"@@@@@@@@@@     @"
};
