/* XPM */
static char * rpm_s_xpm[] = {
"35 32 14 1",
" 	c None",
".	c #808080",
"+	c #FFFFFF",
"@	c #000000",
"#	c #C0C0C0",
"$	c #303030",
"%	c #585858",
"&	c #FFC0C0",
"*	c #404000",
"=	c #C05800",
"-	c #A0A0A0",
";	c #C00000",
">	c #DCDCDC",
",	c #C3C3C3",
"        ..................         ",
"        .++++++++++++++++.@        ",
"        .++++++++++++++++..@       ",
"        .++++++++++++++++.#.@      ",
"        .++++++++++++++++.+#.@     ",
"        .++++++++++++++++.++#.@    ",
"        .++++++++++++++++.@@@@@@   ",
"        .+++++++++++++++++++++#@   ",
"        .+$@@@@@$%&+++++++++++#@   ",
"      @*@$.+++++.$%===++++++++#@   ",
"    $$$ .++++++++++-===&++++++#@   ",
"  .@@$  .++++++++++++=;;-+++++#@   ",
" .$@$   .+++++++++++++=;=&++++#@   ",
" $@@$   .+++@@++++++++-;;;&+++#@   ",
".@@@@   .++++.*@@@.++++;;;;+++#@   ",
"$@@@    .+++++>>>,,@@@$$$;;+++#@   ",
"        .+++++++++++>>,,,,,+++#@   ",
"@@$@@  @@*$.+++%@@%*@@$$@+++++#@   ",
"@@* @  @@-.@$.+%@*-,$@-,@$>+++#@   ",
"@@     @@,>*@*>%@$,+$@,+@$,+++#@   ",
"@@     @$,>$@$>%@$,+$@,+@$,+++#@   ",
"@@     @@%%$*,>%@$,+$@,+@$,+++#@   ",
"       @@-,,>>+>,,>+>,>+>,>+++#@   ",
"       @$,++++++++++++++++++++#@   ",
"        .+++++++++++++++++++++#@   ",
"        .+++++++++++++++++++++#@   ",
"        .+++++++++++++++++++++#@   ",
"        .+++++++++++++++++++++#@   ",
"        .+++++++++++++++++++++#@   ",
"        .+++++++++++++++++++++#@   ",
"        .######################@   ",
"        @@@@@@@@@@@@@@@@@@@@@@@@   "};
