/* XPM */
static char *save[]={
"16 16 7 1",
". c None",
"# c #303030",
"d c #5b5b5b",
"a c #6e6e6e",
"e c #868686",
"b c #eded6e",
"c c #ffff00",
"................",
".##############.",
".#............#.",
".#aaaaaaaaaaa.#.",
".##.bbbbbbb.a.#.",
".#a.bbbbbbb.a.#.",
".#a.ccccccc.a.#.",
".#a.........a.#.",
".#aaaaaaaaaaa.#.",
".#............#.",
".#..#######...#.",
".##.#.de..#...#.",
"..#############.",
"................",
"................",
"................"};
