/* XPM */
static char * selection_t_xpm[] = {
"16 16 4 1",
" 	c #FFFFFFFF0000",
".	c #00000000FFFF",
"X	c #0000FFFF0000",
"o	c #FFFF0000FFFF",
"  ..   XXX      ",
"  ..   XXX      ",
"  ..   XXX  oooo",
"  ..   XXXoooooo",
"  ..   XXoooo   ",
"  ..   Xooo     ",
"  ..   ooo      ",
"  ..   ooX      ",
"......oo........",
".....oo.........",
"  ..oooXXX      ",
"  .ooo XXX      ",
"  ooo  XXX      ",
" ooo   XXX      ",
"ooo.   XXX      ",
"oo..   XXX      "};
