/* XPM */
static char *cursorh_xpm[] = {
/* width height num_colors chars_per_pixel */
"    11    14      5            2",
/* colors */
"`` c None s None",
"`. c #000000",
"`# c #ffffff",
"`a c #c0c0c0",
"`b c #808080",
/* pixels */
"`#`#`#`#`#`#`#`#`#`#`.",
"`#`a`#`a`a`a`#`a`a`b`.",
"`#`a`a`.`a`a`a`.`a`b`.",
"`#`a`a`a`#`a`a`a`a`b`.",
"`#`a`a`a`a`.`a`a`a`b`.",
"`#`a`#`a`a`a`#`a`a`b`.",
"`#`a`a`.`a`a`a`.`a`b`.",
"`#`a`a`a`a`a`a`a`a`b`.",
"`#`a`a`a`a`a`a`a`a`b`.",
"```#`a`a`a`a`a`a`b`.``",
"`````#`a`a`a`a`b`.````",
"```````#`a`a`b`.``````",
"`````````#`a`.````````",
"```````````.``````````"
};
