/* XPM */
const char *slider1h_xpm[] = {
"14 11 5 1",
"       c white",
".      c None s None",
"X      c #c0c0c0",
"o      c #808080",
"O      c black",
"        ......",
" XXXXXXX .....",
" XXXXXXXX ....",
" XXXXXXXXX ...",
" XXXXXXXXXX ..",
" XXXXXXXXXXoO.",
" XXXXXXXXXoO..",
" XXXXXXXXoO...",
" XXXXXXXoO....",
" oooooooO.....",
"OOOOOOOO......"};
