/* XPM */
static char *hslider_xpm[] = {
/* width height num_colors chars_per_pixel */
"     6    10       16            1",
/* colors */
"` c None",
". c #000000",
"# c #ffffff",
"a c #000000",
"b c #000000",
"c c #000000",
"d c #000000",
"e c #000000",
"f c #000000",
"g c #000000",
"h c #000000",
"i c #000000",
"j c #000000",
"k c #000000",
"l c #000000",
"m c #000000",
/* pixels */
"``````",
"```.``",
"``#```",
"`.```.",
"#```#`",
"```.``",
"``#```",
"`.```.",
"#```#`",
"``````"
};
