/* XPM */
const char *slider2h_xpm[] = {
"14 11 4 1",
"       c white",
".      c #c0c0c0",
"X      c #808080",
"o      c black",
"              ",
" ...........Xo",
" ...........Xo",
" ...........Xo",
" ...........Xo",
" ...........Xo",
" ...........Xo",
" ...........Xo",
" ...........Xo",
" XXXXXXXXXXXXo",
"oooooooooooooo"};
