/* XPM */
static char *sm_import_canvas[]={
"16 16 23 1",
"a c None",
"d c #000000",
"b c #000080",
"t c #085a10",
"u c #086310",
"m c #106b10",
"n c #107310",
"l c #107b18",
"k c #108418",
"g c #108c18",
"h c #189421",
"i c #219c29",
"q c #299c31",
"e c #31a539",
"f c #39a542",
"s c #42ad4a",
"o c #4aad52",
"j c #63b56b",
"r c #6bbd6b",
"p c #73bd7b",
"# c #808080",
". c #c0c0c0",
"c c #ffffff",
".............#aa",
".bbbbbbbbbbbb#aa",
".bbbbbbcdcdcd#aa",
".#############aa",
".cccccccccccc#aa",
".ccccccaefacc#aa",
".cccccghiifjc#aa",
".ccccgkgklkfj#aa",
".cccgkccccmnopaa",
".cclhccccccmqraa",
".ccacccccllmisfo",
"##########tmhiia",
"aaaaaaaaaaaugiaa",
"aaaaaaaaaaaakaaa",
"aaaaaaaaaaaaaaaa",
"aaaaaaaaaaaaaaaa"};
