/* XPM */
static char*stop_t[]={
"16 16 5 1",
"# c #c3c3c3",
"a c #000000",
". c None",
"c c #ffffff",
"b c #ff0000",
"................",
"...##########...",
".#aaaaaaaaaaaa##",
"#abbbbbbbbbbbba#",
"abbcccccbcbbccba",
"abcbbbcbcbcbcbca",
"abcbbbcbcbcbcbca",
"abbcbbcbcbcbccba",
"abbbcbcbcbcbcbba",
"abbbcbcbcbcbcbba",
"abccbbcbbcbbcbba",
"abbbbbbbbbbbbbba",
"#abbbbbbbbbbbba#",
"..aaaaaaaaaaaa##",
"....###aa######.",
"......#aa......."};
