/* XPM */
static char *tb_back[]={
"16 16 6 1",
"# c #222222",
"c c #444444",
"d c #888888",
". c None",
"a c #dddddd",
"b c #eeeeee",
".........#......",
"........##......",
".......#a#......",
"......#aba####..",
".....#ab.baab#..",
"....#ab..bbb.#..",
"...#ab.......#..",
"..#ab........#..",
"...#cd.......#..",
"....#cd..ddd.#..",
".....#cd.dccd#..",
"......#cdc####..",
".......#c#......",
"........##......",
".........#......",
"................"};
