/* XPM */
static char *asxpm[] = {
/* columns rows colors chars-per-pixel */
"16 16 44 1",
"  c #010101",
". c #002020",
"X c #232323",
"o c #303031",
"O c #21205F",
"+ c #003F7F",
"@ c #303070",
"# c #004040",
"$ c #204040",
"% c #236161",
"& c #434343",
"* c #505050",
"= c #666666",
"- c #000386",
"; c #0007C2",
": c #003FDF",
"> c #50508F",
", c #407F80",
"< c #7F7F80",
"1 c #0342E6",
"2 c #018080",
"3 c #7F8280",
"4 c #41A0A0",
"5 c #70AFAF",
"6 c #7FBFBF",
"7 c #508FD6",
"8 c #01C0FF",
"9 c #61E2E2",
"0 c #72F2F2",
"q c #9F9F9F",
"w c #A6A6A6",
"e c #BFBFBF",
"r c #83C2C2",
"t c #9FE6E6",
"y c #86FFFF",
"u c #A6E6E6",
"i c #C6C6C6",
"p c #C6C6E6",
"a c #C6C6FF",
"s c #E2DFE6",
"d c #E0E0DF",
"f c #E2E6E6",
"g c #F6F6F6",
"h c None",
"hhhhhhhhhhhhhhhh",
"hhhhhhhhhhhhhhhh",
"hhhhhqiiiei&hhhh",
"hhhh&qgggggwXhhh",
"hhh6u02eggg== hh",
"hh<yf99$ifggg=hh",
"hh6yf99#wfffg=hh",
"hh,0ur4.wfffg=hh",
"hhh5tr%O<ffdg=hh",
"hhhh &>7;3dsg=hh",
"hhhhhea18;<gg=hh",
"hhhhhegp18;<g=hh",
"hhhhh*==@:8-=ohh",
"hhhhhhhhhh+ohhhh",
"hhhhhhhhhhhhhhhh",
"hhhhhhhhhhhhhhhh"
};
