/* XPM */
const char * tb_newfolder_xpm[] = {
/* width height num_colors chars_per_pixel */
"16 16 4 1",
/* colors */
" 	s None	c None",
".	c black",
"X	c #ffff00",
"o	c white",
/* pixels */
"                ",
"          .     ",
"                ",
"          .     ",
"       .     .  ",
"  ....  . . .   ",
" .XoXo.  . .    ",
"..........  . . ",
".oXoXoXoXo..    ",
".XoXoXoXoX. .   ",
".oXoXoXoXo.  .  ",
".XoXoXoXoX.     ",
".oXoXoXoXo.     ",
".XoXoXoXoX.     ",
"...........     ",
"                "};
