/* XPM */
static char *tb_refresh[]={
"16 16 21 1",
". c None",
"r c #1b1b1b",
"q c #232323",
"o c #262626",
"p c #292929",
"i c #2e2e2e",
"j c #313131",
"h c #363636",
"g c #393939",
"d c #3c3c3c",
"# c #444444",
"e c #4c4c4c",
"l c #525252",
"a c #5a5a5a",
"b c #606060",
"n c #686868",
"c c #6d6d6d",
"s c #707070",
"f c #818181",
"m c #868686",
"k c #8e8e8e",
".......#abc.....",
"......d#eebf....",
".....dgdghgbf...",
"....dg....ijck..",
"...h#......ilm..",
"...h.....hhienbc",
"..........oi#ee.",
"...a.......pde..",
"..hbk.......g...",
".gi#ff..........",
"iiqdnbb.....b...",
"..qhc......dn...",
"..rjbs....##....",
"...qhlaaeed.....",
"....qjd#d#......",
".....phhg......."};
