/* XPM */
static char *source_php_t_xpm[] = {
/* width height num_colors chars_per_pixel */
"    30    32      256            2",
/* colors */
"`` c #040204",
"`. c #848284",
"`# c #b4c2cc",
"`a c #e4e2dc",
"`b c #9ca6b4",
"`c c #444244",
"`d c #a4b2bc",
"`e c #d4d2cc",
"`f c #64625c",
"`g c #f4f2ec",
"`h c #c4c2bc",
"`i c #b4b2ac",
"`j c #94928c",
"`k c #747274",
"`l c #9caab4",
"`m c #c4cacc",
"`n c #545254",
"`o c #b4babc",
"`p c #e4eaec",
"`q c #dcdad4",
"`r c #242624",
"`s c #fcfaf4",
"`t c #9c9a94",
"`u c #acaaa4",
"`v c #6c6a6c",
"`w c #7c7a74",
"`x c #cccac4",
"`y c #bcbab4",
"`z c #3c3a3c",
"`A c #8c8a8c",
"`B c #4c4a4c",
"`C c #d4d6dc",
"`D c #c4c6cc",
"`E c #5c5a5c",
"`F c #eceae4",
"`G c #acaeb4",
"`H c #ccced4",
"`I c #bcc2cc",
"`J c #e4e6e4",
"`K c #a4a2a4",
"`L c #acb2b4",
"`M c #d4d6d4",
"`N c #646664",
"`O c #f4f6f4",
"`P c #c4c6c4",
"`Q c #b4b6b4",
"`R c #949694",
"`S c #dcdedc",
"`T c #2c2e2c",
"`U c #fcfefc",
"`V c #9c9e9c",
"`W c #acaeac",
"`X c #7c7e7c",
"`Y c #cccecc",
"`Z c #bcbebc",
"`0 c #eceeec",
"`1 c #848684",
"`2 c #e4e2e4",
"`3 c #444644",
"`4 c #d4d2d4",
"`5 c #646264",
"`6 c #f4f2f4",
"`7 c #c4c2c4",
"`8 c #b4b2b4",
".` c #949294",
".. c #747674",
".# c #9caebc",
".a c #545654",
".b c #b4bac4",
".c c #dcdadc",
".d c #2c2a2c",
".e c #fcfafc",
".f c #9c9a9c",
".g c #acaaac",
".h c #6c6e6c",
".i c #7c7a7c",
".j c #cccacc",
".k c #bcbabc",
".l c #3c3e3c",
".m c #8c8e8c",
".n c #4c4e4c",
".o c #5c5e5c",
".p c #eceaec",
".q c #bcc6cc",
".r c #a4a6a4",
".s c #acb6bc",
".t c #000000",
".u c #000000",
".v c #000000",
".w c #000000",
".x c #000000",
".y c #000000",
".z c #000000",
".A c #000000",
".B c #000000",
".C c #000000",
".D c #000000",
".E c #000000",
".F c #000000",
".G c #000000",
".H c #000000",
".I c #000000",
".J c #000000",
".K c #000000",
".L c #000000",
".M c #000000",
".N c #000000",
".O c #000000",
".P c #000000",
".Q c #000000",
".R c #000000",
".S c #000000",
".T c #000000",
".U c #000000",
".V c #000000",
".W c #000000",
".X c #000000",
".Y c #000000",
".Z c #000000",
".0 c #000000",
".1 c #000000",
".2 c #000000",
".3 c #000000",
".4 c #000000",
".5 c #000000",
".6 c #000000",
".7 c #000000",
".8 c #000000",
"#` c #000000",
"#. c #000000",
"## c #000000",
"#a c #000000",
"#b c #000000",
"#c c #000000",
"#d c #000000",
"#e c #000000",
"#f c #000000",
"#g c #000000",
"#h c #000000",
"#i c #000000",
"#j c #000000",
"#k c #000000",
"#l c #000000",
"#m c #000000",
"#n c #000000",
"#o c #000000",
"#p c #000000",
"#q c #000000",
"#r c #000000",
"#s c #000000",
"#t c #000000",
"#u c #000000",
"#v c #000000",
"#w c #000000",
"#x c #000000",
"#y c #000000",
"#z c #000000",
"#A c #000000",
"#B c #000000",
"#C c #000000",
"#D c #000000",
"#E c #000000",
"#F c #000000",
"#G c #000000",
"#H c #000000",
"#I c #000000",
"#J c #000000",
"#K c #000000",
"#L c #000000",
"#M c #000000",
"#N c #000000",
"#O c #000000",
"#P c #000000",
"#Q c #000000",
"#R c #000000",
"#S c #000000",
"#T c #000000",
"#U c #000000",
"#V c #000000",
"#W c #000000",
"#X c #000000",
"#Y c #000000",
"#Z c #000000",
"#0 c #000000",
"#1 c #000000",
"#2 c #000000",
"#3 c #000000",
"#4 c #000000",
"#5 c #000000",
"#6 c #000000",
"#7 c #000000",
"#8 c #000000",
"a` c #000000",
"a. c #000000",
"a# c #000000",
"aa c #000000",
"ab c #000000",
"ac c #000000",
"ad c #000000",
"ae c #000000",
"af c #000000",
"ag c #000000",
"ah c #000000",
"ai c #000000",
"aj c #000000",
"ak c #000000",
"al c #000000",
"am c #000000",
"an c #000000",
"ao c #000000",
"ap c #000000",
"aq c #000000",
"ar c #000000",
"as c #000000",
"at c #000000",
"au c #000000",
"av c #000000",
"aw c #000000",
"ax c #000000",
"ay c #000000",
"az c #000000",
"aA c #000000",
"aB c #000000",
"aC c #000000",
"aD c #000000",
"aE c #000000",
"aF c #000000",
"aG c #000000",
"aH c #000000",
"aI c #000000",
"aJ c #000000",
"aK c #000000",
"aL c #000000",
"aM c #000000",
"aN c #000000",
"aO c #000000",
"aP c #000000",
"aQ c #000000",
"aR c #000000",
"aS c #000000",
"aT c #000000",
"aU c #000000",
"aV c #000000",
"aW c #000000",
"aX c #000000",
"aY c #000000",
"aZ c #000000",
"a0 c #000000",
"a1 c #000000",
"a2 c #000000",
"a3 c #000000",
"a4 c #000000",
"a5 c #000000",
"a6 c #000000",
"a7 c #000000",
"a8 c #000000",
/* pixels */
".d`v.h.h.h.h.h.h.h.h.h.h.h.h.h.h.h.h.h.h.h`k`k`T````````````",
"`v.e`0`U`U`U`U`U`U`U`U`U`U`U`U`U`U`U`U`U`U`U`6`P`B``````````",
".h.e`6`U`U.e.e`U.e`U.e`U.e`U`U.e`O`U`U`U`U`U`2`O`M`B````````",
".h.e.p`U.p.g.f`Q.m`M`R`0`K.g.k`W`K.c`4`U`U`U.c`6`U.j`B``````",
".h.e`6`U.p..`E.``X`Q`X`M`V.``1.`.f.i.m`2`O`U`Y`P`7.k.r.l````",
".h`O.p`U`U`6.p.e.c`K`Q`U`6.e.e`6`0`J`6`6`6`O`S`R`w`v`k.l````",
".h.e`6`U`U.c`X`V`A`..h`V.h.g`U.c.k`V`Y.k.``8`O`0`S`7`8.l````",
".h`O.p`U`U.k`..g.g`P`V`1`v`X.e.p`S.#`I.q.q`#`d`p`s`2`2`E````",
".h.e`6`U`U.c`1`2.k`N..`8`k.r.e`O`6`p`0`0.p`p`2`6`O.p`J.o````",
".h`O.p`U`0`X`8`Y.h.r.i.m`A.n`Q.e`6.p`e`J`6`6`O`6`6`2`2.o````",
".h.e`0`U.p`k.g`8`N.c.f`R.f`z`V`7.m`.`5..`X`Q`6`6`6`J`J.o````",
".h`O.p.e.e`7.h`8`1`k`.`K.h.``J`K`1.r.``X.a.``6`0`0`2`2.o````",
".h`O.p.e`U.j`5.m`V`W`R.i`n.m.p`R`Q`A`5..`k.h`S`0`0`a`2.o````",
".h`O.p.e.e`Z.n`v`5.h.o`N`B`.`a`k`K`5`R`k..`c`Y`0`0`2`J.o````",
".h`O`J.e`O`O`M`J`Q.o`j.p`e`J`0.`....`5`X.o.m`F.p.p.c`2.o````",
".h`O.p`O`J`W.k`J`J`J`y`Z`7`O`0`t`3`E`5`E`z`j.p.p.p`2`J.o````",
".h`6`2`O`S`k`k`A`E..`f`k..`J`0`4`Q`V.o`V`Q`Y.p`F.p`M`a.o````",
".h`O.p`6`0.c`M`4`Z`7`M`7`7`J`0`0`0.p`S`F`0.p`F`J`J`2`2.o````",
".h`0`S`6.p`7`S`y`Z`7`4`h`Y`h.j`Y.k.g.c`Q.k`Y`J`J`J`M`2.o````",
".h`6`J`g`F`8`Q`x`Q`Y`Z.g`8.j.k`Z.j`K`P`y.k`S`J`J`J`2`J.o````",
".h`0`S`g`J`W`W`h`Z`D`L`Q`G`Y`W.k`P`W`Q`o`7`C`J`J`J`M`2.o````",
".h`0`2`0`2.g.j.f`Y`l`l`H.b`P`W`Z`K`m`b`d`m.s`2`J`J`S`J.o````",
".h`0`S`0`2`7.g`R`Y.f.r`V`K`P`P.f.r`x`R`W`R`i`2`J`J`q`2.o````",
".h`0`S.p`a`K`P`V`V`Q`Y.k.j`7.r`P`t`K`Z`P`7`P`a`2`J.c`2.o````",
".h.p`S.p`a.f.r`t`y.r`Y.g`x`Y`R.r`V`Q`W`P.g`4`2`2`2.c`2.o````",
".h.p.c.p`S`V`W`K.k`Q`Z`u`Z.j`V`W.r`Z.k.k`u`x`a`a`2`M`2.o````",
".h.p`S`F`S.r`P`i`W`4`Q.g`Q`P.r`P.g`Q`4`W`W.k`S`a`a`S`2.o````",
".h`F`M`F`a`W`Q`Z`K`Y`e.r`x`M`u`Z`8.r.c`h.r`M`2`a`2`4`a.o````",
"`5`2`S`2`a`a`a`a`a`a`a`S`S`S`S`S`S`S`S`S`S`S`S`S`S`S.c.a````",
"`T`N`N`N`N`N`N`N`N`N`5`5`5`5`5`5`5`5`5`5`5`5`5`5`5`N`E`r````",
"````````````````````````````````````````````````````````````",
"````````````````````````````````````````````````````````````"
};
