/* XPM */
const char *magick[] = {
/* columns rows colors chars-per-pixel */
"32 32 11 1",
"  c Gray0",
". c #000080",
"X c #008000",
"o c Green",
"O c #800000",
"+ c Red",
"@ c #808000",
"# c Yellow",
"$ c #808080",
"% c #c0c0c0",
"& c None",
/* pixels */
"&&&&$$$$$$$$$&&&&&&&&&&&&&&&&&&&",
"&&&$&&&&&&&&&$&&&&&&&&&&&&&&&&&&",
"&&$&#%#%#%#%#%$&&&&&&&&&&&&&&&&&",
"&$&#%#%#%#%#%#%$&&&&&&&&&&&&&&&&",
"$%%%%%%%%%%%%%%%$$$$$$$$$$$$$$ &",
"$&&&&&&&&&&&&&&&&&&&&&&&&&&&&&  ",
"$&#%#%#%#%#%#%#%#%#%#%#%#%#%#%@ ",
"$&%#%#%#%#% o  X %  %#%#%#%#%#@ ",
"$&#%#%#%#  ooXXoooXoo%#%#%#%#%@ ",
"$&%#%#%#%ooXoooXXXoXX %#%#%#%#@ ",
"$&#%#%#%oooXXooXXooXXoo%#%#%#%@ ",
"$&%#%#%#oXXX XoXoXXXooX#%#%#%#@ ",
"$&#%#%#%oXX oXXooXXooXX%#%#%#%@ ",
"$&%#%#%# X X ## #  XX o#%#%#%#@ ",
"$&#%#%#%  oO### O#  X  %#%#%#%@ ",
"$&%#%#%#%#  +#OO+  # #%#%#%#%#@ ",
"$&#%#%#%#%#%#O@+#%#%#%#%#%#%#%@ ",
"$&%#%#%#%#%#%#+ %#%#%#%#%#%#%#@ ",
"$&#%#%#%#%#%##+ #%#%#%#%#%#%#%@ ",
"$&%#%#%#%#%#%#O %#%#%#%#%#%#%#@ ",
"$&#%#%#%#%#% @@ #%#%#%#%#%#%#%@ ",
"$&%#%#%#%#%##@# %#%#%#%#%#%#%#@ ",
"$&#%#%#%#%#@ ++  %#%#%#%#%#%#%@ ",
"$&%#%#%#%#%#%#%#%#%#%#%#%#%#%#@ ",
"$&#%#%#%#%#%#%#%#%#%#%#%#%#%#%@ ",
"$@@@@@@@@@@@@@@@@@@@@@@@@@@@@@@ ",
"&                              &",
"&&&&&&&&&&&&&&&&&&&&&&&&&&&&&&&&",
"&&&&&&&&&&&&&&&&&&&&&&&&&&&&&&&&",
"&&&&&&&&&&&&&&&&&&&&&&&&&&&&&&&&",
"&&&&&&&&&&&&&&&&&&&&&&&&&&&&&&&&",
"&&&&&&&&&&&&&&&&&&&&&&&&&&&&&&&&"
};
