/* XPM */
static char*y_pic[]={
"16 16 2 1",
"# c #0000c0",
". c #ffffff",
"................",
"................",
"................",
"................",
".##...###.......",
"..##.###........",
"...####.....##..",
"....##......##..",
"....##..........",
"....##......##..",
"....##......##..",
"..####..........",
"..###...........",
"................",
"................",
"................"};
