/* XPM */
static char * qtbuttonsclear_xmp[] = {
"52 27 161 2",
"  	c None",
". 	c #0F0400",
"+ 	c #160500",
"@ 	c #1D0700",
"# 	c #220800",
"$ 	c #240900",
"% 	c #2D0B00",
"& 	c #320C00",
"* 	c #360D00",
"= 	c #390E00",
"- 	c #3B0F00",
"; 	c #3E1000",
"> 	c #401000",
", 	c #421000",
"' 	c #431100",
") 	c #491200",
"! 	c #4C1300",
"~ 	c #4E1400",
"{ 	c #501400",
"] 	c #511400",
"^ 	c #571600",
"/ 	c #5E1800",
"( 	c #611800",
"_ 	c #661A00",
": 	c #681A00",
"< 	c #6A1B00",
"[ 	c #6C1B00",
"} 	c #721D00",
"| 	c #761E00",
"1 	c #781E00",
"2 	c #7D2000",
"3 	c #842100",
"4 	c #892300",
"5 	c #8D2400",
"6 	c #922500",
"7 	c #5C3C31",
"8 	c #992700",
"9 	c #A02800",
"0 	c #A32900",
"a 	c #544946",
"b 	c #4D4D4D",
"c 	c #863A1F",
"d 	c #AF2C00",
"e 	c #9E3A18",
"f 	c #BD3000",
"g 	c #7B4E3F",
"h 	c #AF401A",
"i 	c #B73D14",
"j 	c #BA4016",
"k 	c #A3492A",
"l 	c #BB4117",
"m 	c #CC3B09",
"n 	c #D43903",
"o 	c #DF3900",
"p 	c #D83D07",
"q 	c #D2410F",
"r 	c #995740",
"s 	c #DF430E",
"t 	c #B05637",
"u 	c #E0450F",
"v 	c #E14510",
"w 	c #CA5127",
"x 	c #B35A3B",
"y 	c #B45A3C",
"z 	c #BD5937",
"A 	c #CE542A",
"B 	c #A5634C",
"C 	c #976A5B",
"D 	c #E2501D",
"E 	c #B95F40",
"F 	c #BA6041",
"G 	c #E35120",
"H 	c #797979",
"I 	c #857A76",
"J 	c #BF6547",
"K 	c #E35C2E",
"L 	c #E45C2D",
"M 	c #E55E30",
"N 	c #CC6846",
"O 	c #947E77",
"P 	c #CF6A48",
"Q 	c #D76842",
"R 	c #E56235",
"S 	c #E66539",
"T 	c #E6683D",
"U 	c #B37B68",
"V 	c #CD7354",
"W 	c #E76C41",
"X 	c #BD7B64",
"Y 	c #E76D43",
"Z 	c #E76D44",
"` 	c #A6867B",
" .	c #D17758",
"..	c #E8734B",
"+.	c #DE7957",
"@.	c #E67751",
"#.	c #E9764F",
"$.	c #BD8673",
"%.	c #D87E5F",
"&.	c #D2856A",
"*.	c #DF8566",
"=.	c #EB8461",
"-.	c #EB8765",
";.	c #B59F98",
">.	c #EC8E6D",
",.	c #C99C8C",
"'.	c #ED8F6F",
").	c #ED9171",
"!.	c #A9A9A9",
"~.	c #D39B88",
"{.	c #ED9375",
"].	c #EE9577",
"^.	c #EE9779",
"/.	c #D1A495",
"(.	c #EE9A7D",
"_.	c #EF9C7F",
":.	c #EFA085",
"<.	c #F0A287",
"[.	c #F0A389",
"}.	c #F0A58B",
"|.	c #B9B9B9",
"1.	c #F0A68D",
"2.	c #F1A88F",
"3.	c #BBBBBB",
"4.	c #CBB6AE",
"5.	c #DDB0A1",
"6.	c #F1A991",
"7.	c #F1AB93",
"8.	c #F2AF99",
"9.	c #F2B099",
"0.	c #F2B19B",
"a.	c #C3C3C3",
"b.	c #C5C5C5",
"c.	c #F3B6A1",
"d.	c #F3B7A3",
"e.	c #F3B9A5",
"f.	c #F4BAA7",
"g.	c #F4BCA9",
"h.	c #CBCBCB",
"i.	c #F4BDAA",
"j.	c #F0C3B4",
"k.	c #F5C1AF",
"l.	c #CFCFCF",
"m.	c #F5C4B3",
"n.	c #D1D1D1",
"o.	c #F5C5B5",
"p.	c #F6C9BA",
"q.	c #F8D3C7",
"r.	c #F0DAD3",
"s.	c #F8D8CE",
"t.	c #F2DCD5",
"u.	c #F9DBD1",
"v.	c #F9DCD3",
"w.	c #FAE3DB",
"x.	c #FAE5DE",
"y.	c #EBEBEB",
"z.	c #EFEFEF",
"A.	c #FCECE7",
"B.	c #F1F1F1",
"C.	c #FCF1EE",
"D.	c #FFFFFF",
"1.g.f.9.}.<.<.<.<.<.<.<.<.<.<.<.<.<.<.<.<.<.<.<.<.<.<.<.<.<.<.<.<.<.<.<.<.<.<.<.<.<.<.<.<.<.:._.'...D o ",
"g.v.w.q.m.f.e.e.e.e.e.e.e.e.e.e.e.e.e.e.e.e.e.e.e.e.e.e.e.e.e.e.e.e.e.e.e.e.e.e.e.e.e.e.e.e.c.6.'.R o d ",
"f.w.A.u.k.c.0.0.0.0.0.0.0.0.0.0.0.0.0.0.0.0.0.0.0.0.0.0.0.0.0.0.0.0.0.0.0.0.0.0.0.0.0.0.0.0.7.(.W o 9 4 ",
"9.q.u.o.(.).>.>.>.>.>.>.>.>.>.>.>.>.>.>.>.>.>.>.>.>.>.>.>.>.>.>.>.>.>.>.>.>.>.>.>.>.>.>.>.>.-.#.o 8 < < ",
"1.o.o.2.o o o o o o o o o o o o o o o o o o o o o o o o o o o o o o o o o o o o o o o o o o o o 0 _ ) ^ ",
"[.g.c.].o o o o o o o o o o o o o o o o o o o o o o o o o o o o o o o o o o o o o o o o o o o o 3 ~ = ] ",
"<.e.0.>.o o o o o o o o o o o o o o o o o o o o o o o o o o o o o o o o o o o o o o o o o o o o 1 ' * { ",
"<.e.0.>.o o o o o o o o o o o o o o o o o o o o o o o o o o o o o o o o o o o o o o o o o o o o 1 ' * { ",
"<.e.0.>.o o o o o o o o o o m j q o o o o o o o o o o o o o o o o o o o o o o o o o o o o o o o 1 ' * { ",
"<.e.0.>.o o o o o o o o n C 3.b.l.j.s o k a.o o o o o o o o o o o o o o o o o o o o o o o o o o 1 ' * { ",
"<.e.0.>.o o o o o o o o r C.G o {.D.8.o x z.o o o o o o o o o o o o o o o o o o o o o o o o o o 1 ' * { ",
"<.e.0.>.o o o o o o o o !.{.o o o -.G o J D.o o c a I  .o o h 7 b O P o e g ,.D.G o o o o o o o 1 ' * { ",
"<.e.0.>.o o o o o o o i l.Z o o o o o o E B.o z H N +.D.-.o C B w ~.C.o y n.p.[.o o o o o o o o 1 ' * { ",
"<.e.0.>.o o o o o o o l h.Z o o o o o o t y.o $.4.{.{.x.i.o o A V t.D.o %.D.v o o o o o o o o o 1 ' * { ",
"<.e.0.>.o o o o o o o p |.{.o o o U Q o F D.o 5.r.{.{.{.-.o ` ;.&.i.D.o {.D.o o o o o o o o o o 1 ' * { ",
"<.e.0.>.o o o o o o o o /.C.K o X D.{.o *.D.o {.C.M v p.-.Z n.@.o 8.D.o {.D.o o o o o o o o o o 1 ' * { ",
"<.e.0.>.o o o o o o o o u p.D.D.D.[.o o {.D.o v s.D.D.s.G v s.C.s.s.D.G {.D.o o o o o o o o o o 1 ' * { ",
"<.e.0.>.o o o o o o o o o o M Z v o o o o o o o o M M o o o o Z G o o o o o o o o o o o o o o o 1 ' * { ",
"<.e.0.>.o o o o o o o o o o o o o o o o o o o o o o o o o o o o o o o o o o o o o o o o o o o o 1 ' * { ",
"<.e.0.>.o o o o o o o o o o o o o o o o o o o o o o o o o o o o o o o o o o o o o o o o o o o o 1 ' * { ",
"<.e.0.>.o o o o o o o o o o o o o o o o o o o o o o o o o o o o o o o o o o o o o o o o o o o o 1 ' * { ",
"<.d.7.=.o o o o o o o o o o o o o o o o o o o o o o o o o o o o o o o o o o o o o o o o o o o o } > * { ",
"_.7.^.T o o o o o o o o o o o o o o o o o o o o o o o o o o o o o o o o o o o o o o o o o o o o / * % ~ ",
"'.).Y o 6 2 1 1 1 1 1 1 1 1 1 1 1 1 1 1 1 1 1 1 1 1 1 1 1 1 1 1 1 1 1 1 1 1 1 1 1 1 1 1 1 1 | [ ; # $ ) ",
"#.S o 8 ( ! ' ' ' ' ' ' ' ' ' ' ' ' ' ' ' ' ' ' ' ' ' ' ' ' ' ' ' ' ' ' ' ' ' ' ' ' ' ' ' ' , - # . + ; ",
"L o 0 < ) = * * * * * * * * * * * * * * * * * * * * * * * * * * * * * * * * * * * * * * * * & % $ + @ , ",
"o f 5 : ^ ] { { { { { { { { { { { { { { { { { { { { { { { { { { { { { { { { { { { { { { { { { ~ ) ; , / "};
