/* XPM */
static char *ptable_l[] = {
/* width height num_colors chars_per_pixel */
"   106    60        8            1",
/* colors */
". c #f8fcf8",
"# c #98ccf8",
"a c #f8fc30",
"b c #e80000",
"c c #00ec00",
"d c #b8b8b8",
"e c #888888",
"f c #300098",
/* pixels */
"bbbbbbbbbbbbbbbbbbbbbbbbbbbbbbbbbbbbbbbbbbbbbbbbbbbbbbbbbbbbbbbbbbbbbbbbbbbbbbbbbbbbbbbbbbbbbbbbbbbbbbbbbb",
"bbbbbbbbbbbbbbbbbbbbbbbbbbbbbbbbbbbbbbbbbbbbbbbbbbbbbbbbbbbbbbbbbbbbbbbbbbbbbbbbbbbbbbbbbbbbbbbbbbbbbbbbbb",
"bbeeeeeeeeeeeeeeeeeeeeeeeeeeeeeeeeeeeeeeeeeeeeeeeeeeeeeeeeeeeeeeeeeeeeeeeeeeeeeeeeeeeeeeeeeeeeeeeeeeeeeebb",
"bbe....................................................................................................ebb",
"bbe....................................................................................................ebb",
"bbe...####.............................................................................................ebb",
"bbe...####.....................................................................................aaaa....ebb",
"bbe...####.....................................................................................aaaa....ebb",
"bbe...####.....................................................................................aaaa....ebb",
"bbe............................................................................................aaaa....ebb",
"bbe...####.####.......................................................aaaa.aaaa.aaaa.aaaa.aaaa.aaaa....ebb",
"bbe...####.####.......................................................aaaa.aaaa.aaaa.aaaa.aaaa.aaaa....ebb",
"bbe...####.####.......................................................aaaa.aaaa.aaaa.aaaa.aaaa.aaaa....ebb",
"bbe...####.####.......................................................aaaa.aaaa.aaaa.aaaa.aaaa.aaaa....ebb",
"bbe....................................................................................................ebb",
"bbe...####.####.......................................................aaaa.aaaa.aaaa.aaaa.aaaa.aaaa....ebb",
"bbe...####.####.......................................................aaaa.aaaa.aaaa.aaaa.aaaa.aaaa....ebb",
"bbe...####.####.......................................................aaaa.aaaa.aaaa.aaaa.aaaa.aaaa....ebb",
"bbe...####.####.......................................................aaaa.aaaa.aaaa.aaaa.aaaa.aaaa....ebb",
"bbe....................................................................................................ebb",
"bbe...####.####.....bbbb.bbbb.bbbb.bbbb.bbbb.bbbb.bbbb.bbbb.bbbb.bbbb.aaaa.aaaa.aaaa.aaaa.aaaa.aaaa....ebb",
"bbe...####.####.....bbbb.bbbb.bbbb.bbbb.bbbb.bbbb.bbbb.bbbb.bbbb.bbbb.aaaa.aaaa.aaaa.aaaa.aaaa.aaaa....ebb",
"bbe...####.####.....bbbb.bbbb.bbbb.bbbb.bbbb.bbbb.bbbb.bbbb.bbbb.bbbb.aaaa.aaaa.aaaa.aaaa.aaaa.aaaa....ebb",
"bbe...####.####.....bbbb.bbbb.bbbb.bbbb.bbbb.bbbb.bbbb.bbbb.bbbb.bbbb.aaaa.aaaa.aaaa.aaaa.aaaa.aaaa....ebb",
"bbe....................................................................................................ebb",
"bbe...####.####.....bbbb.ffff.bbbb.bbbb.bbbb.bbbb.bbbb.bbbb.bbbb.bbbb.aaaa.aaaa.aaaa.aaaa.aaaa.aaaa....ebb",
"bbe...####.####.....bbbb.ffff.bbbb.bbbb.bbbb.bbbb.bbbb.bbbb.bbbb.bbbb.aaaa.aaaa.aaaa.aaaa.aaaa.aaaa....ebb",
"bbe...####.####.....bbbb.ffff.bbbb.bbbb.bbbb.bbbb.bbbb.bbbb.bbbb.bbbb.aaaa.aaaa.aaaa.aaaa.aaaa.aaaa....ebb",
"bbe...####.####.....bbbb.ffff.bbbb.bbbb.bbbb.bbbb.bbbb.bbbb.bbbb.bbbb.aaaa.aaaa.aaaa.aaaa.aaaa.aaaa....ebb",
"bbe....................................................................................................ebb",
"bbe...####.####.....bbbb.bbbb.bbbb.bbbb.bbbb.bbbb.bbbb.bbbb.bbbb.bbbb.aaaa.aaaa.aaaa.aaaa.aaaa.aaaa....ebb",
"bbe...####.####...e.bbbb.bbbb.bbbb.bbbb.bbbb.bbbb.bbbb.bbbb.bbbb.bbbb.aaaa.aaaa.aaaa.aaaa.aaaa.aaaa....ebb",
"bbe...####.####...e.bbbb.bbbb.bbbb.bbbb.bbbb.bbbb.bbbb.bbbb.bbbb.bbbb.aaaa.aaaa.aaaa.aaaa.aaaa.aaaa....ebb",
"bbe...####.####...e.bbbb.bbbb.bbbb.bbbb.bbbb.bbbb.bbbb.bbbb.bbbb.bbbb.aaaa.aaaa.aaaa.aaaa.aaaa.aaaa....ebb",
"bbe...............e....................................................................................ebb",
"bbe...####.####...e.bbbb.bbbb.bbbb.bbbb.bbbb.bbbb.bbbb.bbbb.bbbb.bbbb.dddd.aaaa.dddd.aaaa.dddd.aaaa....ebb",
"bbe...####.####.e.e.bbbb.bbbb.bbbb.bbbb.bbbb.bbbb.bbbb.bbbb.bbbb.bbbb.dddd.aaaa.dddd.aaaa.dddd.aaaa....ebb",
"bbe...####.####.e.e.bbbb.bbbb.bbbb.bbbb.bbbb.bbbb.bbbb.bbbb.bbbb.bbbb.dddd.aaaa.dddd.aaaa.dddd.aaaa....ebb",
"bbe...####.####.e.e.bbbb.bbbb.bbbb.bbbb.bbbb.bbbb.bbbb.bbbb.bbbb.bbbb.dddd.aaaa.dddd.aaaa.dddd.aaaa....ebb",
"bbe.............e.e....................................................................................ebb",
"bbe.............e.e....................................................................................ebb",
"bbe.............e.e....................................................................................ebb",
"bbe.............e.e....................................................................................ebb",
"bbe.............e.e....................................................................................ebb",
"bbe.............e.e....................................................................................ebb",
"bbe.............e.e....................................................................................ebb",
"bbe.............e.e.cccc.cccc.cccc.cccc.cccc.cccc.cccc.cccc.cccc.cccc.cccc.cccc.cccc.cccc..............ebb",
"bbe.............e.e.cccc.cccc.cccc.cccc.cccc.cccc.cccc.cccc.cccc.cccc.cccc.cccc.cccc.cccc..............ebb",
"bbe.............e...cccc.cccc.cccc.cccc.cccc.cccc.cccc.cccc.cccc.cccc.cccc.cccc.cccc.cccc..............ebb",
"bbe.............e...cccc.cccc.cccc.cccc.cccc.cccc.cccc.cccc.cccc.cccc.cccc.cccc.cccc.cccc..............ebb",
"bbe.............e......................................................................................ebb",
"bbe.............e...cccc.cccc.cccc.cccc.cccc.cccc.cccc.cccc.cccc.cccc.cccc.cccc.cccc.cccc..............ebb",
"bbe.............e...cccc.cccc.cccc.cccc.cccc.cccc.cccc.cccc.cccc.cccc.cccc.cccc.cccc.cccc..............ebb",
"bbe.................cccc.cccc.cccc.cccc.cccc.cccc.cccc.cccc.cccc.cccc.cccc.cccc.cccc.cccc..............ebb",
"bbe.................cccc.cccc.cccc.cccc.cccc.cccc.cccc.cccc.cccc.cccc.cccc.cccc.cccc.cccc..............ebb",
"bbe....................................................................................................ebb",
"bbe....................................................................................................ebb",
"bbeeeeeeeeeeeeeeeeeeeeeeeeeeeeeeeeeeeeeeeeeeeeeeeeeeeeeeeeeeeeeeeeeeeeeeeeeeeeeeeeeeeeeeeeeeeeeeeeeeeeeebb",
"bbbbbbbbbbbbbbbbbbbbbbbbbbbbbbbbbbbbbbbbbbbbbbbbbbbbbbbbbbbbbbbbbbbbbbbbbbbbbbbbbbbbbbbbbbbbbbbbbbbbbbbbbb",
"bbbbbbbbbbbbbbbbbbbbbbbbbbbbbbbbbbbbbbbbbbbbbbbbbbbbbbbbbbbbbbbbbbbbbbbbbbbbbbbbbbbbbbbbbbbbbbbbbbbbbbbbbb"
};
