/* XPM */
static char *ptable_s[] = {
/* width height num_colors chars_per_pixel */
"    37    24      146            2",
/* colors */
".. c #f8fcf8",
".# c #f8fc00",
".a c #f8ece8",
".b c #f8cc30",
".c c #f0dcd8",
".d c #e8ecf0",
".e c #e8dcd8",
".f c #e0ccc8",
".g c #d8bcb8",
".h c #d8aca8",
".i c #d0d4d0",
".j c #d09c98",
".k c #c8cce8",
".l c #c89490",
".m c #c88c88",
".n c #c87858",
".o c #c86850",
".p c #c86048",
".q c #c85840",
".r c #c84838",
".s c #c83030",
".t c #c80000",
".u c #c0c4e0",
".v c #c07878",
".w c #c02830",
".x c #b8bcd8",
".y c #b89c78",
".z c #b88c68",
".A c #b87070",
".B c #b87050",
".C c #b86868",
".D c #b85040",
".E c #b85038",
".F c #b84838",
".G c #b83838",
".H c #b82830",
".I c #b0b498",
".J c #b0ac88",
".K c #b05858",
".L c #b02828",
".M c #a8acd8",
".N c #a8ac90",
".O c #a89470",
".P c #a88c68",
".Q c #a86850",
".R c #a85050",
".S c #a85038",
".T c #a84848",
".U c #a84038",
".V c #a83838",
".W c #a83028",
".X c #a82028",
".Y c #a0a480",
".Z c #989cd0",
".0 c #989cc8",
".1 c #989470",
".2 c #988440",
".3 c #985040",
".4 c #984838",
".5 c #983830",
".6 c #906850",
".7 c #903028",
".8 c #902828",
".9 c #902030",
"#. c #901828",
"## c #901818",
"#a c #900808",
"#b c #888cc8",
"#c c #887060",
"#d c #887058",
"#e c #884838",
"#f c #883830",
"#g c #883028",
"#h c #882838",
"#i c #882828",
"#j c #881820",
"#k c #881010",
"#l c #880808",
"#m c #803040",
"#n c #787058",
"#o c #785040",
"#p c #784838",
"#q c #783848",
"#r c #783038",
"#s c #782830",
"#t c #782028",
"#u c #781820",
"#v c #7070b8",
"#w c #703850",
"#x c #703028",
"#y c #685040",
"#z c #684838",
"#A c #684050",
"#B c #683848",
"#C c #683028",
"#D c #682838",
"#E c #682028",
"#F c #681828",
"#G c #681818",
"#H c #6060f8",
"#I c #6060b8",
"#J c #603830",
"#K c #5858b0",
"#L c #584050",
"#M c #583848",
"#N c #583038",
"#O c #582838",
"#P c #582820",
"#Q c #582018",
"#R c #581818",
"#S c #5050a8",
"#T c #505068",
"#U c #504860",
"#V c #484058",
"#W c #483848",
"#X c #482018",
"#Y c #481818",
"#Z c #4040a8",
"#0 c #403850",
"#1 c #403830",
"#2 c #402028",
"#3 c #401820",
"#4 c #400810",
"#5 c #3838a8",
"#6 c #381828",
"#7 c #302838",
"#8 c #302820",
"#9 c #301818",
"a. c #300810",
"a# c #282898",
"aa c #282028",
"ab c #202030",
"ac c #201010",
"ad c #200810",
"ae c #200808",
"af c #181898",
"ag c #181820",
"ah c #181018",
"ai c #100810",
"aj c #100808",
"ak c #080890",
"al c #080888",
"am c #080810",
"an c #006000",
"ao c #0000c8",
"ap c #000000",
/* pixels */
"aoaoaoaoaoaoaoaoaoaoaoaoaoaoaoaoaoaoaoaoaoaoaoaoaoaoaoaoaoaoaoaoaoaoaoao..",
"aoaoaoaoaoaoaoaoaoaoaoaoaoaoaoaoaoaoaoaoaoaoaoaoaoaoaoaoaoaoaoaoaoaoaoao..",
"..........................................................................",
"..........................................................................",
"#H#H.................................................................#.#..",
"#H#H.................................................................#.#..",
"#H#H#H#H.........................................#.#.#.#.#.#.#.#.#.#.#.#..",
"#H#H#H#H.........................................#.#.#.#.#.#.#.#.#.#.#.#..",
"#H#H#H#H.........................................#.#.#.#.#.#.#.#.#.#.#.#..",
"#H#H#H#H.........................................#.#.#.#.#.#.#.#.#.#.#.#..",
"#H#H#H#H.t.t.t.t.t.t.t.t.t.t.t.t.t.t.t.t.t.t.t.t.#.#.#.#.#.#.#.#.#.#.#.#..",
"#H#H#H#H.t.t.t.t.t.t.t.t.t.t.t.t.t.t.t.t.t.t.t.t.#.#.#.#.#.#.#.#.#.#.#.#..",
"#H#H#H#H.t.t.t.t.t.t.t.t.t.t.t.t.t.t.t.t.t.t.t.t.#.#.#.#.#.#.#.#.#.#.#.#..",
"#H#H#H#H.t.t.t.t.t.t.t.t.t.t.t.t.t.t.t.t.t.t.t.t.#.#.#.#.#.#.#.#.#.#.#.#..",
"#H#H#H#H.t.t.t.t.t.t.t.t.t.t.t.t.t.t.t.t.t.t.t.t.#.#.#.#.#.#.#.#.#.#.#.#..",
"#H#H#H#H.t.t.t.t.t.t.t.t.t.t.t.t.t.t.t.t.t.t.t.t.#.#.#.#.#.#.#.#.#.#.#.#..",
"#H#H#H#H.t.t.t.t.t.t.t.t.t.t.t.t.t.t.t.t.t.t.t.t.u.u.#.#.u.u.#.#.u.u.#.#..",
"#H#H#H#H.t.t.t.t.t.t.t.t.t.t.t.t.t.t.t.t.t.t.t.t.u.u.#.#.u.u.#.#.u.u.#.#..",
"..........................................................................",
"..........................................................................",
"........anananananananananananananananananananananananananananan..........",
"........anananananananananananananananananananananananananananan..........",
"........anananananananananananananananananananananananananananan..........",
"........anananananananananananananananananananananananananananan.........."
};
