/* XPM */
static char *about[] = {
/* width height num_colors chars_per_pixel */
"    16    16       64            2",
/* colors */
"`` c None s None",
"`. c #043e6c",
"`# c #043a64",
"`a c #04426c",
"`b c #0c426c",
"`c c #245e7c",
"`d c #2c6e94",
"`e c #246a8c",
"`f c #1c5684",
"`g c #0c4674",
"`h c #0c2e4c",
"`i c #24628c",
"`j c #3c7ea4",
"`k c #fcfefc",
"`l c #1c4a64",
"`m c #14527c",
"`n c #0c4274",
"`o c #042a4c",
"`p c #04466c",
"`q c #448eb4",
"`r c #4c92b4",
"`s c #24526c",
"`t c #1c628c",
"`u c #0c4e7c",
"`v c #043664",
"`w c #4486ac",
"`x c #549abc",
"`y c #549ac4",
"`z c #3c7a9c",
"`A c #347294",
"`B c #2c6e9c",
"`C c #043e74",
"`D c #04365c",
"`E c #549ec4",
"`F c #2c5674",
"`G c #1c5a84",
"`H c #044674",
"`I c #04325c",
"`J c #042a54",
"`K c #1c5e94",
"`L c #044a74",
"`M c #042e54",
"`N c #145684",
"`O c #347aa4",
"`P c #244e64",
"`Q c #2c6284",
"`R c #1c5e8c",
"`S c #246694",
"`T c #3c82ac",
"`U c #fcfafc",
"`V c #143e64",
"`W c #04264c",
"`X c #0c4e84",
"`Y c #043254",
"`Z c #042644",
"`0 c #043a6c",
"`1 c #000000",
"`2 c #000000",
"`3 c #000000",
"`4 c #000000",
"`5 c #000000",
"`6 c #000000",
"`7 c #000000",
"`8 c #000000",
/* pixels */
"````````````````````````````````",
"```````````.`#`.`a`.````````````",
"```````b`b`c`d`e`f`g`h`b````````",
"`````b`i`j`j`k`k`l`m`n`o`n``````",
"`````p`j`q`r`k`k`s`t`u`v`h``````",
"```.`i`w`x`y`r`z`A`B`u`C`D`h````",
"```.`t`q`E`k`k`k`F`d`G`H`I`J````",
"```.`K`w`y`y`k`k`s`d`G`L`D`M````",
"```D`N`O`q`r`k`k`P`Q`R`L`I`o````",
"```v`b`S`j`T`k`k`l`G`N`.`M`o````",
"`````J`L`S`U`k`k`k`V`.`M`W``````",
"`````g`o`C`u`X`m`m`#`Y`Z`g``````",
"```````g`o`#`0`D`J`o`Z`g````````",
"```````````h`M`J`J`Z````````````",
"````````````````````````````````",
"````````````````````````````````"
};
