/* XPM */
static char *Find[] = {
/* width height num_colors chars_per_pixel */
"    16    16      256            2",
/* colors */
"`` c None s None",
"`. c #979797",
"`# c #858585",
"`a c #3d3d3a",
"`b c #a6a6a6",
"`c c #5b5b5b",
"`d c #4f4f4b",
"`e c #616157",
"`f c #9d9d8d",
"`g c #575757",
"`h c #3a3a38",
"`i c #838375",
"`j c #b2b2a0",
"`k c #d7d7c0",
"`l c #d2d2bd",
"`m c #75756b",
"`n c #757575",
"`o c #1e1e1e",
"`p c #78786c",
"`q c #c9c9b3",
"`r c #d5d5bf",
"`s c #d8d8c2",
"`t c #dbdbc4",
"`u c #e0e0c8",
"`v c #ceceb8",
"`w c #484841",
"`x c #9d9d9d",
"`y c #262626",
"`z c #828282",
"`A c #a1a193",
"`B c #d3d3bc",
"`C c #dadac3",
"`D c #dedec6",
"`E c #e4e4cc",
"`F c #e8e8d0",
"`G c #a6a697",
"`H c #70706e",
"`I c #343434",
"`J c #d1d1d0",
"`K c #7f7f78",
"`L c #c5c5af",
"`M c #d7d7c1",
"`N c #ddddc5",
"`O c #e3e3cb",
"`P c #ebebd3",
"`Q c #efefd6",
"`R c #77776b",
"`S c #616161",
"`T c #353533",
"`U c #e4e4dc",
"`V c #787874",
"`W c #9a9a8a",
"`X c #bfbfaa",
"`Y c #7f7f71",
"`Z c #43433c",
"`0 c #42423b",
"`1 c #868678",
"`2 c #494946",
"`3 c #a4a4a4",
"`4 c #212120",
"`5 c #81817c",
"`6 c #959587",
"`7 c #c7c7b1",
"`8 c #8e8e81",
".` c #d3d3c2",
".. c #babaa6",
".# c #7a7a6e",
".a c #7f7f72",
".b c #eaead2",
".c c #bbbba8",
".d c #5c5c59",
".e c #9f9f9f",
".f c #111110",
".g c #7e7e73",
".h c #cfcfb9",
".i c #c7c7b2",
".j c #55554c",
".k c #dbdbce",
".l c #dadacc",
".m c #b6b6a3",
".n c #9e9e8d",
".o c #46463f",
".p c #dedec7",
".q c #eeeed6",
".r c #aeae9c",
".s c #51514e",
".t c #2a2a28",
".u c #abab9d",
".v c #dcdcc5",
".w c #c7c7b3",
".x c #4b4b44",
".y c #d3d3c4",
".z c #c0c0af",
".A c #a7a796",
".B c #949485",
".C c #383833",
".D c #dbdbc5",
".E c #ededd5",
".F c #aaaa99",
".G c #292926",
".H c #878787",
".I c #5e5e55",
".J c #ddddc6",
".K c #d6d6bf",
".L c #6f6f63",
".M c #919182",
".N c #a9a997",
".O c #969686",
".P c #6c6c61",
".Q c #3b3b35",
".R c #cfcfba",
".S c #808075",
".T c #3a3a3a",
".U c #949494",
".V c #9e9e9e",
".W c #6f6f6c",
".X c #c4c4b2",
".Y c #e5e5cd",
".Z c #babaa7",
".0 c #727266",
".1 c #505047",
".2 c #4c4c49",
".3 c #151515",
".4 c #54544b",
".5 c #7c7c7c",
".6 c #6b6b6b",
".7 c #9c9c8d",
".8 c #dadac4",
"#` c #c8c8b3",
"#. c #bebeab",
"## c #707066",
"#a c #0e0e0e",
"#b c #040404",
"#c c #4d4d4d",
"#d c #ababab",
"#e c #c9c9b4",
"#f c #f1f1d8",
"#g c #ececd4",
"#h c #c6c6b2",
"#i c #66665d",
"#j c #696969",
"#k c #000000",
"#l c #454545",
"#m c #777777",
"#n c #6a6a60",
"#o c #e5e5ce",
"#p c #909082",
"#q c #797974",
"#r c #6e6e6e",
"#s c #3d3d3d",
"#t c #818180",
"#u c #34342f",
"#v c #5b5b5a",
"#w c #a1a1a1",
"#x c #000000",
"#y c #000000",
"#z c #000000",
"#A c #000000",
"#B c #000000",
"#C c #000000",
"#D c #000000",
"#E c #000000",
"#F c #000000",
"#G c #000000",
"#H c #000000",
"#I c #000000",
"#J c #000000",
"#K c #000000",
"#L c #000000",
"#M c #000000",
"#N c #000000",
"#O c #000000",
"#P c #000000",
"#Q c #000000",
"#R c #000000",
"#S c #000000",
"#T c #000000",
"#U c #000000",
"#V c #000000",
"#W c #000000",
"#X c #000000",
"#Y c #000000",
"#Z c #000000",
"#0 c #000000",
"#1 c #000000",
"#2 c #000000",
"#3 c #000000",
"#4 c #000000",
"#5 c #000000",
"#6 c #000000",
"#7 c #000000",
"#8 c #000000",
"a` c #000000",
"a. c #000000",
"a# c #000000",
"aa c #000000",
"ab c #000000",
"ac c #000000",
"ad c #000000",
"ae c #000000",
"af c #000000",
"ag c #000000",
"ah c #000000",
"ai c #000000",
"aj c #000000",
"ak c #000000",
"al c #000000",
"am c #000000",
"an c #000000",
"ao c #000000",
"ap c #000000",
"aq c #000000",
"ar c #000000",
"as c #000000",
"at c #000000",
"au c #000000",
"av c #000000",
"aw c #000000",
"ax c #000000",
"ay c #000000",
"az c #000000",
"aA c #000000",
"aB c #000000",
"aC c #000000",
"aD c #000000",
"aE c #000000",
"aF c #000000",
"aG c #000000",
"aH c #000000",
"aI c #000000",
"aJ c #000000",
"aK c #000000",
"aL c #000000",
"aM c #000000",
"aN c #000000",
"aO c #000000",
"aP c #000000",
"aQ c #000000",
"aR c #000000",
"aS c #000000",
"aT c #000000",
"aU c #000000",
"aV c #000000",
"aW c #000000",
"aX c #000000",
"aY c #000000",
"aZ c #000000",
"a0 c #000000",
"a1 c #000000",
"a2 c #000000",
"a3 c #000000",
"a4 c #000000",
"a5 c #000000",
"a6 c #000000",
"a7 c #000000",
"a8 c #000000",
/* pixels */
"`````````````.`#`a`.````````````",
"`````````b`c`d`e`f`g````````````",
"```````c`h`i`j`k`l`m`#``````````",
"```n`o`p`q`r`s`t`u`v`w`x````````",
"```y`z`A`B`k`C`D`E`F`G`H````````",
"```I`J`K`L`M`N`O`F`P`Q`R`S``````",
"```T`U`V`W`X`Y`Z`0`1`s`r`2`3````",
"```4`5`6`7`p`8.`...#.a.b.c.d.e``",
"``.f.g.h.i.j.k.l.m.n.o.p.q.r.s``",
"``.t.u.v.w.x.y.z.A.B.C.D.E.F.G``",
"``.H.I.J.K.L.M.N.O.P.Q.R.S.T.U``",
"``.V.W.X.Y.Z.0.1`w.2.3.4.5``````",
"````.6.7.b.b.8#`#.###a#b#c#d````",
"``````.T#e#f#g#h#i#j``.T#k#l`3``",
"``````#m#n#o#p#q#r`````b#s#k.H``",
"````````#t#u#v`b````````#w`#`b``"
};
