/* XPM */
static char *about[] = {
/* width height num_colors chars_per_pixel */
"    16    16       16            1",
/* colors */
"` c #000000",
". c #800000",
"# c #008000",
"a c #808000",
"b c #000080",
"c c #800080",
"d c #008080",
"e c #808080",
"f c None s None",
"g c #ff0000",
"h c #00ff00",
"i c #ffff00",
"j c #0000ff",
"k c #ff00ff",
"l c #00ffff",
"m c #ffffff",
/* pixels */
"ffffeeeeeeefffff",
"ffeemmmmmmm``fff",
"femmmmjjjmmmf`ff",
"femmmmejjmmmm`ef",
"emmmmmmmmmmmmf`f",
"emmmmejjjmmmmm`e",
"emmmmmejjmmmmm`e",
"emmmmmejjmmmmm`e",
"efmmmmejjmmmmf`e",
"femmmjjjjjmmf`ef",
"ff`fmmmmmmmf`eef",
"fff``fmmmf``eeff",
"fffff``fm`eeffff",
"fffffff`m`efffff",
"ffffffff``efffff",
"fffffffffeefffff"
};
