/* XPM */
static char *license[] = {
/* width height num_colors chars_per_pixel */
"    16    16      256            2",
/* colors */
"`` c None s None",
"`. c #e9ffff",
"`# c #deeafc",
"`a c #d7e5f8",
"`b c #d4e1f3",
"`c c #d6e0f0",
"`d c #d1dded",
"`e c #cbd6e8",
"`f c #ccdaec",
"`g c #b6badb",
"`h c #636b8b",
"`i c #ffffff",
"`j c #fffffc",
"`k c #fafbfb",
"`l c #f8fafe",
"`m c #f4f9fe",
"`n c #eff7fe",
"`o c #edf5ff",
"`p c #effaff",
"`q c #c4bed7",
"`r c #72e2ff",
"`s c #4a668b",
"`t c #f7ffff",
"`u c #f9f9fc",
"`v c #f3f8fd",
"`w c #eff5fd",
"`x c #ebf4fd",
"`y c #e8f1fc",
"`z c #e4f1fc",
"`A c #e8f3fe",
"`B c #c0bcd5",
"`C c #2a82d5",
"`D c #368fec",
"`E c #485270",
"`F c #f5ffff",
"`G c #f4f8fc",
"`H c #eef5fd",
"`I c #f8fbfe",
"`J c #fffffd",
"`K c #fffdfc",
"`L c #fffefc",
"`M c #f9fbfb",
"`N c #e6f6ff",
"`O c #dee8fd",
"`P c #eafaff",
"`Q c #9292d7",
"`R c #eeffff",
"`S c #eef6fd",
"`T c #80b0ed",
"`U c #007aed",
"`V c #4abbfe",
"`W c #168ff5",
"`X c #1b73e2",
"`Y c #d5e5f5",
"`Z c #dff2ff",
"`0 c #def5ff",
"`1 c #8185bf",
"`2 c #e8fcff",
"`3 c #4c8cdb",
"`4 c #1782f2",
"`5 c #d1cbdd",
"`6 c #eef1f9",
"`7 c #bbecff",
"`8 c #0018ba",
".` c #c0d5ef",
".. c #e0f9ff",
".# c #8285c0",
".a c #edf9ff",
".b c #cfe4f7",
".c c #002db6",
".d c #02298d",
".e c #143d9d",
".f c #000c81",
".g c #ccd7e9",
".h c #bbcbe7",
".i c #001c98",
".j c #fbffff",
".k c #8184bf",
".l c #f1fdff",
".m c #537ac1",
".n c #6f98dc",
".o c #87a8d7",
".p c #6787ca",
".q c #557ac2",
".r c #000776",
".s c #bbe1ff",
".t c #8a8bc0",
".u c #f0fdff",
".v c #3951a1",
".w c #a9bad5",
".x c #8b96c4",
".y c #001a7e",
".z c #15318b",
".A c #a1cff6",
".B c #898ac1",
".C c #e3f1ff",
".D c #5071b6",
".E c #6884c2",
".F c #2f5098",
".G c #dae9f7",
".H c #00006d",
".I c #bae0fe",
".J c #8889bd",
".K c #d7dfff",
".L c #d4edff",
".M c #000042",
".N c #4d507b",
".O c #cddaef",
".P c #8598c6",
".Q c #000570",
".R c #e6ffff",
".S c #8384bc",
".T c #c7cff2",
".U c #ecfeff",
".V c #577dba",
".W c #000044",
".X c #b0c4e0",
".Y c #a9c0e3",
".Z c #edf7ff",
".0 c #637bb7",
".1 c #00003d",
".2 c #bbddfc",
".3 c #bde6ff",
".4 c #8587b7",
".5 c #c9d1f5",
".6 c #cfe6fd",
".7 c #edfaff",
".8 c #7eaade",
"#` c #000055",
"#. c #000059",
"## c #00004e",
"#a c #192f82",
"#b c #c5e7ff",
"#c c #b7dafd",
"#d c #b7dfff",
"#e c #8486b6",
"#f c #c0cef4",
"#g c #d2e7ff",
"#h c #c7defd",
"#i c #cee6ff",
"#j c #e1ffff",
"#k c #e5ffff",
"#l c #deffff",
"#m c #cef0ff",
"#n c #b3d9fd",
"#o c #b2d7fc",
"#p c #b6e4ff",
"#q c #8587b5",
"#r c #babef3",
"#s c #b5c0ea",
"#t c #b0b9e7",
"#u c #afb9e7",
"#v c #adb5e5",
"#w c #acb4e6",
"#x c #abb3e6",
"#y c #abb4e6",
"#z c #a9b4e7",
"#A c #a8b4e7",
"#B c #afbaee",
"#C c #798dba",
"#D c #020304",
"#E c #0d0f10",
"#F c #0c0f0e",
"#G c #0c0f0f",
"#H c #0d100f",
"#I c #0d100e",
"#J c #0c0f0d",
"#K c #212329",
"#L c #000000",
"#M c #000000",
"#N c #000000",
"#O c #000000",
"#P c #000000",
"#Q c #000000",
"#R c #000000",
"#S c #000000",
"#T c #000000",
"#U c #000000",
"#V c #000000",
"#W c #000000",
"#X c #000000",
"#Y c #000000",
"#Z c #000000",
"#0 c #000000",
"#1 c #000000",
"#2 c #000000",
"#3 c #000000",
"#4 c #000000",
"#5 c #000000",
"#6 c #000000",
"#7 c #000000",
"#8 c #000000",
"a` c #000000",
"a. c #000000",
"a# c #000000",
"aa c #000000",
"ab c #000000",
"ac c #000000",
"ad c #000000",
"ae c #000000",
"af c #000000",
"ag c #000000",
"ah c #000000",
"ai c #000000",
"aj c #000000",
"ak c #000000",
"al c #000000",
"am c #000000",
"an c #000000",
"ao c #000000",
"ap c #000000",
"aq c #000000",
"ar c #000000",
"as c #000000",
"at c #000000",
"au c #000000",
"av c #000000",
"aw c #000000",
"ax c #000000",
"ay c #000000",
"az c #000000",
"aA c #000000",
"aB c #000000",
"aC c #000000",
"aD c #000000",
"aE c #000000",
"aF c #000000",
"aG c #000000",
"aH c #000000",
"aI c #000000",
"aJ c #000000",
"aK c #000000",
"aL c #000000",
"aM c #000000",
"aN c #000000",
"aO c #000000",
"aP c #000000",
"aQ c #000000",
"aR c #000000",
"aS c #000000",
"aT c #000000",
"aU c #000000",
"aV c #000000",
"aW c #000000",
"aX c #000000",
"aY c #000000",
"aZ c #000000",
"a0 c #000000",
"a1 c #000000",
"a2 c #000000",
"a3 c #000000",
"a4 c #000000",
"a5 c #000000",
"a6 c #000000",
"a7 c #000000",
"a8 c #000000",
/* pixels */
"````.o.o.o.o.o.o.o.o.o``````````",
"````.o`i.j`I`m`n`S`x.o`T`h``````",
"````.o.j`I`m`n`o`x`y`V`V`3#e````",
"````.o`l`v`n`x.`.Y.O#h#h#x#q`h``",
"````.o`v`H.`.v.e.e.e.D.b.6#f`h``",
"````.o`H`A.v.e.E.Y.E.e.D.6#f`h``",
"````.o`x.h.v.v`#`O#g.e.e#h#f`E``",
"````.o`z`z`#`#`O`a.P.e.D#h#r`E``",
"````.o`#`#`#`a.6.E.e.e.Y#h#r`E``",
"````.P`#`#`a.6.n.e.v#B.2.2#s`E``",
"````.P`O`a.6.6.D.e.o.2.2.2#B`E``",
"````#C#g.6.6#h.Y#A#f.2#c#o#B`E``",
"````#C.6.6#h#h.D.e.o#c#o#o#B`E``",
"````#e#h#h#h.2.D.e.o#o#o#o#B`E``",
"````.0.o.o.o.o`Q.x.x.x.x.t.t`h``",
"```````h`h`E`E`E`E`E`E`E`E`h`h``"
};
