/* XPM */
static char *quit2[] = {
/* width height num_colors chars_per_pixel */
"    16    16      256            2",
/* colors */
"`` c None s None",
"`. c #131f6c",
"`# c #0c3a93",
"`a c #2743de",
"`b c #113c97",
"`c c #001b59",
"`d c #000411",
"`e c #2c4dff",
"`f c #3d62f6",
"`g c #557fff",
"`h c #4c77fc",
"`i c #4f7afe",
"`j c #3c6cf2",
"`k c #2b4fdc",
"`l c #003cc5",
"`m c #000412",
"`n c #00020e",
"`o c #465cff",
"`p c #4f7cfe",
"`q c #587efa",
"`r c #6f8cf9",
"`s c #97b2f9",
"`t c #8fa7f9",
"`u c #6888fa",
"`v c #597bff",
"`w c #0982be",
"`x c #0045aa",
"`y c #005284",
"`z c #5681fc",
"`A c #6d8df9",
"`B c #d2e0f9",
"`C c #7a9ff6",
"`D c #d5dff9",
"`E c #b0d1f9",
"`F c #7699f6",
"`G c #b5c1fa",
"`H c #4c81ee",
"`I c #0c88d0",
"`J c #003d9f",
"`K c #00000c",
"`L c #2f4dff",
"`M c #6e8df9",
"`N c #def3f9",
"`O c #edf6f6",
"`P c #6a90f6",
"`Q c #d0dcf9",
"`R c #abc2f6",
"`S c #6d93f6",
"`T c #fefef6",
"`U c #dadcfc",
"`V c #3872f1",
"`W c #006fb5",
"`X c #003790",
"`Y c #161f6e",
"`Z c #205ce0",
"`0 c #5c80fc",
"`1 c #b5cef6",
"`2 c #f6fff7",
"`3 c #6184f9",
"`4 c #6284f9",
"`5 c #d1def9",
"`6 c #b8c5f3",
"`7 c #6486f9",
"`8 c #6086f9",
".` c #fffff9",
".. c #9cabf7",
".# c #0085b9",
".a c #003a96",
".b c #00142e",
".c c #113b97",
".d c #577fff",
".e c #6887f9",
".f c #f2fbf7",
".g c #93adee",
".h c #6989f9",
".i c #6587f9",
".j c #b7c5f4",
".k c #6a8af9",
".l c #6385f9",
".m c #85a6f6",
".n c #f1fbf8",
".o c #1d72e4",
".p c #005a8b",
".q c #20244b",
".r c #0038bb",
".s c #fffff6",
".t c #6f91f9",
".u c #d4e1f9",
".v c #bac6f3",
".w c #577df9",
".x c #466ff9",
".y c #6992f7",
".z c #fefafa",
".A c #1b74e4",
".B c #004a95",
".C c #003a78",
".D c #0033a4",
".E c #2084d9",
".F c #6c87fc",
".G c #f5fcf6",
".H c #779cf6",
".I c #6e8cf9",
".J c #6b8bf9",
".K c #bacaf9",
".L c #bdccf6",
".M c #426df9",
".N c #4a72f9",
".O c #6e9af4",
".P c #f6fbfc",
".Q c #0070ad",
".R c #005e83",
".S c #00397b",
".T c #192987",
".U c #2a71e5",
".V c #607dff",
".W c #bfd4f9",
".X c #c5ddf6",
".Y c #587bf9",
".Z c #537af9",
".0 c #4e76f9",
".1 c #4f77f9",
".2 c #5076fa",
".3 c #3562f9",
".4 c #d6e1f4",
".5 c #b6c2ff",
".6 c #006fa6",
".7 c #005b80",
".8 c #202242",
"#` c #001644",
"#. c #0050b6",
"## c #237fdd",
"#a c #718bfe",
"#b c #97b1f9",
"#c c #406bf9",
"#d c #406df9",
"#e c #436cfa",
"#f c #226de2",
"#g c #aecaf5",
"#h c #ffffff",
"#i c #0481cd",
"#j c #006a91",
"#k c #003089",
"#l c #000c31",
"#m c #0038af",
"#n c #0070af",
"#o c #4a7ef5",
"#p c #5d82fb",
"#q c #e1eef7",
"#r c #b8c3f0",
"#s c #bdcff9",
"#t c #f8f0fe",
"#u c #fffaff",
"#v c #0786c7",
"#w c #006a9a",
"#x c #005b95",
"#y c #002266",
"#z c #000008",
"#A c #0040a2",
"#B c #007fa0",
"#C c #257de1",
"#D c #506cff",
"#E c #8fa4fe",
"#F c #c1c7fe",
"#G c #c5c6ff",
"#H c #60aad8",
"#I c #026ccf",
"#J c #0075a9",
"#K c #002473",
"#L c #2a2a31",
"#M c #003e87",
"#N c #002ba8",
"#O c #00689c",
"#P c #007ba4",
"#Q c #0079ae",
"#R c #007ebe",
"#S c #0075af",
"#T c #0072a9",
"#U c #006d93",
"#V c #005287",
"#W c #002474",
"#X c #003c60",
"#Y c #000209",
"#Z c #0030a0",
"#0 c #00378a",
"#1 c #00509f",
"#2 c #005d80",
"#3 c #00548f",
"#4 c #004e87",
"#5 c #002e7c",
"#6 c #001c74",
"#7 c #2a2a30",
"#8 c #00142f",
"a` c #20254a",
"a. c #00397a",
"a# c #003575",
"aa c #335478",
"ab c #00072c",
"ac c #000000",
"ad c #000000",
"ae c #000000",
"af c #000000",
"ag c #000000",
"ah c #000000",
"ai c #000000",
"aj c #000000",
"ak c #000000",
"al c #000000",
"am c #000000",
"an c #000000",
"ao c #000000",
"ap c #000000",
"aq c #000000",
"ar c #000000",
"as c #000000",
"at c #000000",
"au c #000000",
"av c #000000",
"aw c #000000",
"ax c #000000",
"ay c #000000",
"az c #000000",
"aA c #000000",
"aB c #000000",
"aC c #000000",
"aD c #000000",
"aE c #000000",
"aF c #000000",
"aG c #000000",
"aH c #000000",
"aI c #000000",
"aJ c #000000",
"aK c #000000",
"aL c #000000",
"aM c #000000",
"aN c #000000",
"aO c #000000",
"aP c #000000",
"aQ c #000000",
"aR c #000000",
"aS c #000000",
"aT c #000000",
"aU c #000000",
"aV c #000000",
"aW c #000000",
"aX c #000000",
"aY c #000000",
"aZ c #000000",
"a0 c #000000",
"a1 c #000000",
"a2 c #000000",
"a3 c #000000",
"a4 c #000000",
"a5 c #000000",
"a6 c #000000",
"a7 c #000000",
"a8 c #000000",
/* pixels */
"`````````````#`a`a`b````````````",
"`````````e`f`g`h`i`j`k`l````````",
"```````o`p`q`r`s`t`u`v`w`x`y````",
"`````o`z`A`B`C`D`E`F`G`H`I`J````",
"```L`p`M`N`O`P`Q`R`S`T`U`V`W`X``",
"```Z`0`1`2`3`4`5`6`7`8.`...#.a``",
".c.d.e.f.g.h.i`5.j.k.l.m.n.o.p.q",
".r`v.l.s.t`M.i.u.v.w.x.y.z.A.B.C",
".D.E.F.G.H.I.J.K.L.M.N.O.P.Q.R.S",
".T.U.V.W.X.Y.Z.0.1.2.3.4.5.6.7.8",
"``#.###a.s#b#c#d#e#f#g#h#i#j#k``",
"``#m#n#o#p.s#q#r#s#t#u#v#w#x#y``",
"````#A#B#C#D#E#F#G#H#I#J#j#K````",
"````#M#N#O#P#Q#R#S#T#U#V#W#X````",
"````````#Z#0#1#2#3#4#5#6````````",
"````````````a`a.a#aa````````````"
};
