solid Mesh
  facet normal -1.000000 0.000000 0.000000
    outer loop
      vertex 0.000000 25.400000 0.000000
      vertex 0.000000 0.000000 0.000000
      vertex 0.000000 25.400000 220.000000
    endloop
  endfacet
  facet normal -1.000000 -0.000000 0.000000
    outer loop
      vertex 0.000000 25.400000 220.000000
      vertex 0.000000 0.000000 0.000000
      vertex 0.000000 0.000000 220.000000
    endloop
  endfacet
  facet normal 1.000000 0.000000 0.000000
    outer loop
      vertex 25.400000 25.400000 220.000000
      vertex 25.400000 0.000000 0.000000
      vertex 25.400000 25.400000 0.000000
    endloop
  endfacet
  facet normal 1.000000 -0.000000 0.000000
    outer loop
      vertex 25.400000 0.000000 220.000000
      vertex 25.400000 0.000000 0.000000
      vertex 25.400000 25.400000 220.000000
    endloop
  endfacet
  facet normal 0.000000 -1.000000 0.000000
    outer loop
      vertex 0.000000 0.000000 0.000000
      vertex 25.400000 0.000000 0.000000
      vertex 0.000000 0.000000 220.000000
    endloop
  endfacet
  facet normal 0.000000 -1.000000 0.000000
    outer loop
      vertex 0.000000 0.000000 220.000000
      vertex 25.400000 0.000000 0.000000
      vertex 25.400000 0.000000 220.000000
    endloop
  endfacet
  facet normal 0.000000 1.000000 0.000000
    outer loop
      vertex 0.000000 25.400000 220.000000
      vertex 25.400000 25.400000 0.000000
      vertex 0.000000 25.400000 0.000000
    endloop
  endfacet
  facet normal 0.000000 1.000000 0.000000
    outer loop
      vertex 25.400000 25.400000 220.000000
      vertex 25.400000 25.400000 0.000000
      vertex 0.000000 25.400000 220.000000
    endloop
  endfacet
  facet normal 0.000000 0.000000 -1.000000
    outer loop
      vertex 0.000000 0.000000 0.000000
      vertex 0.000000 25.400000 0.000000
      vertex 25.400000 25.400000 0.000000
    endloop
  endfacet
  facet normal 0.000000 0.000000 -1.000000
    outer loop
      vertex 25.400000 0.000000 0.000000
      vertex 0.000000 0.000000 0.000000
      vertex 25.400000 25.400000 0.000000
    endloop
  endfacet
  facet normal 0.000000 0.000000 1.000000
    outer loop
      vertex 25.400000 25.400000 220.000000
      vertex 0.000000 25.400000 220.000000
      vertex 0.000000 0.000000 220.000000
    endloop
  endfacet
  facet normal 0.000000 0.000000 1.000000
    outer loop
      vertex 25.400000 25.400000 220.000000
      vertex 0.000000 0.000000 220.000000
      vertex 25.400000 0.000000 220.000000
    endloop
  endfacet
endsolid Mesh
